<svg xmlns="http://www.w3.org/2000/svg" xmlns:xlink="http://www.w3.org/1999/xlink" width="500" zoomAndPan="magnify" viewBox="0 0 375 225" height="300" preserveAspectRatio="xMidYMid meet" version="1.0"><defs><g/><clipPath id="629b6b4e8e"><path d="M 95 73 L 231 73 L 231 139 L 95 139 Z M 95 73 " clip-rule="nonzero"/></clipPath><clipPath id="9d8d7b5d7a"><path d="M 75.621094 33.710938 L 279.445312 14.25 L 295.695312 184.476562 L 91.875 203.933594 Z M 75.621094 33.710938 " clip-rule="nonzero"/></clipPath><clipPath id="84f8cf38b8"><path d="M 75.621094 33.710938 L 279.445312 14.25 L 295.695312 184.476562 L 91.875 203.933594 Z M 75.621094 33.710938 " clip-rule="nonzero"/></clipPath><clipPath id="e68c913e37"><path d="M 139 67 L 207 67 L 207 97 L 139 97 Z M 139 67 " clip-rule="nonzero"/></clipPath><clipPath id="25bae8af96"><path d="M 75.621094 33.710938 L 279.445312 14.25 L 295.695312 184.476562 L 91.875 203.933594 Z M 75.621094 33.710938 " clip-rule="nonzero"/></clipPath><clipPath id="8febf4f1ec"><path d="M 75.621094 33.710938 L 279.445312 14.25 L 295.695312 184.476562 L 91.875 203.933594 Z M 75.621094 33.710938 " clip-rule="nonzero"/></clipPath><clipPath id="6f9f7c0ad0"><path d="M 90 75 L 112 75 L 112 97 L 90 97 Z M 90 75 " clip-rule="nonzero"/></clipPath><clipPath id="51cf5f9813"><path d="M 75.621094 33.710938 L 279.445312 14.25 L 295.695312 184.476562 L 91.875 203.933594 Z M 75.621094 33.710938 " clip-rule="nonzero"/></clipPath><clipPath id="3c32cfca83"><path d="M 75.621094 33.710938 L 279.445312 14.25 L 295.695312 184.476562 L 91.875 203.933594 Z M 75.621094 33.710938 " clip-rule="nonzero"/></clipPath><clipPath id="9da37f947e"><path d="M 93 94 L 107 94 L 107 125 L 93 125 Z M 93 94 " clip-rule="nonzero"/></clipPath><clipPath id="e2c986188c"><path d="M 75.621094 33.710938 L 279.445312 14.25 L 295.695312 184.476562 L 91.875 203.933594 Z M 75.621094 33.710938 " clip-rule="nonzero"/></clipPath><clipPath id="7c43cad4c7"><path d="M 75.621094 33.710938 L 279.445312 14.25 L 295.695312 184.476562 L 91.875 203.933594 Z M 75.621094 33.710938 " clip-rule="nonzero"/></clipPath><clipPath id="38b05dd44e"><path d="M 100 104 L 106 104 L 106 113 L 100 113 Z M 100 104 " clip-rule="nonzero"/></clipPath><clipPath id="60d40f71cb"><path d="M 75.621094 33.710938 L 279.445312 14.25 L 295.695312 184.476562 L 91.875 203.933594 Z M 75.621094 33.710938 " clip-rule="nonzero"/></clipPath><clipPath id="6ab87c73ca"><path d="M 75.621094 33.710938 L 279.445312 14.25 L 295.695312 184.476562 L 91.875 203.933594 Z M 75.621094 33.710938 " clip-rule="nonzero"/></clipPath><clipPath id="8d049296d4"><path d="M 90 87 L 111 87 L 111 131 L 90 131 Z M 90 87 " clip-rule="nonzero"/></clipPath><clipPath id="504a82a6a2"><path d="M 75.621094 33.710938 L 279.445312 14.25 L 295.695312 184.476562 L 91.875 203.933594 Z M 75.621094 33.710938 " clip-rule="nonzero"/></clipPath><clipPath id="449977bd07"><path d="M 75.621094 33.710938 L 279.445312 14.25 L 295.695312 184.476562 L 91.875 203.933594 Z M 75.621094 33.710938 " clip-rule="nonzero"/></clipPath><clipPath id="59fbc14257"><path d="M 158 121 L 272 121 L 272 139 L 158 139 Z M 158 121 " clip-rule="nonzero"/></clipPath><clipPath id="f5fd450612"><path d="M 75.621094 33.710938 L 279.445312 14.25 L 295.695312 184.476562 L 91.875 203.933594 Z M 75.621094 33.710938 " clip-rule="nonzero"/></clipPath><clipPath id="151470831c"><path d="M 75.621094 33.710938 L 279.445312 14.25 L 295.695312 184.476562 L 91.875 203.933594 Z M 75.621094 33.710938 " clip-rule="nonzero"/></clipPath><clipPath id="f7f47e1c1f"><path d="M 217 84 L 221 84 L 221 91 L 217 91 Z M 217 84 " clip-rule="nonzero"/></clipPath><clipPath id="bf5d834ff0"><path d="M 75.621094 33.710938 L 279.445312 14.25 L 295.695312 184.476562 L 91.875 203.933594 Z M 75.621094 33.710938 " clip-rule="nonzero"/></clipPath><clipPath id="c951390b38"><path d="M 75.621094 33.710938 L 279.445312 14.25 L 295.695312 184.476562 L 91.875 203.933594 Z M 75.621094 33.710938 " clip-rule="nonzero"/></clipPath><clipPath id="5375ffa078"><path d="M 213 82 L 217 82 L 217 88 L 213 88 Z M 213 82 " clip-rule="nonzero"/></clipPath><clipPath id="7ba7698faf"><path d="M 75.621094 33.710938 L 279.445312 14.25 L 295.695312 184.476562 L 91.875 203.933594 Z M 75.621094 33.710938 " clip-rule="nonzero"/></clipPath><clipPath id="fb07f79aad"><path d="M 75.621094 33.710938 L 279.445312 14.25 L 295.695312 184.476562 L 91.875 203.933594 Z M 75.621094 33.710938 " clip-rule="nonzero"/></clipPath><clipPath id="86f0736ade"><path d="M 143 98 L 154 98 L 154 115 L 143 115 Z M 143 98 " clip-rule="nonzero"/></clipPath><clipPath id="c912b85732"><path d="M 75.621094 33.710938 L 279.445312 14.25 L 295.695312 184.476562 L 91.875 203.933594 Z M 75.621094 33.710938 " clip-rule="nonzero"/></clipPath><clipPath id="567ebf2131"><path d="M 75.621094 33.710938 L 279.445312 14.25 L 295.695312 184.476562 L 91.875 203.933594 Z M 75.621094 33.710938 " clip-rule="nonzero"/></clipPath><clipPath id="8a4ce9eba3"><path d="M 99 35 L 207 35 L 207 85 L 99 85 Z M 99 35 " clip-rule="nonzero"/></clipPath><clipPath id="59bd50afc5"><path d="M 75.621094 33.710938 L 279.445312 14.25 L 295.695312 184.476562 L 91.875 203.933594 Z M 75.621094 33.710938 " clip-rule="nonzero"/></clipPath><clipPath id="c05dd471c3"><path d="M 75.621094 33.710938 L 279.445312 14.25 L 295.695312 184.476562 L 91.875 203.933594 Z M 75.621094 33.710938 " clip-rule="nonzero"/></clipPath><clipPath id="6d70c8c8ae"><path d="M 137 96 L 155 96 L 155 127 L 137 127 Z M 137 96 " clip-rule="nonzero"/></clipPath><clipPath id="0204b00b48"><path d="M 75.621094 33.710938 L 279.445312 14.25 L 295.695312 184.476562 L 91.875 203.933594 Z M 75.621094 33.710938 " clip-rule="nonzero"/></clipPath><clipPath id="f010316952"><path d="M 75.621094 33.710938 L 279.445312 14.25 L 295.695312 184.476562 L 91.875 203.933594 Z M 75.621094 33.710938 " clip-rule="nonzero"/></clipPath><clipPath id="25aca53ac3"><path d="M 142 114 L 152 114 L 152 122 L 142 122 Z M 142 114 " clip-rule="nonzero"/></clipPath><clipPath id="f2ffe1c3f4"><path d="M 75.621094 33.710938 L 279.445312 14.25 L 295.695312 184.476562 L 91.875 203.933594 Z M 75.621094 33.710938 " clip-rule="nonzero"/></clipPath><clipPath id="574f6fe5db"><path d="M 75.621094 33.710938 L 279.445312 14.25 L 295.695312 184.476562 L 91.875 203.933594 Z M 75.621094 33.710938 " clip-rule="nonzero"/></clipPath><clipPath id="55d1956441"><path d="M 131 125 L 272 125 L 272 154 L 131 154 Z M 131 125 " clip-rule="nonzero"/></clipPath><clipPath id="50956ba011"><path d="M 75.621094 33.710938 L 279.445312 14.25 L 295.695312 184.476562 L 91.875 203.933594 Z M 75.621094 33.710938 " clip-rule="nonzero"/></clipPath><clipPath id="422c950a68"><path d="M 75.621094 33.710938 L 279.445312 14.25 L 295.695312 184.476562 L 91.875 203.933594 Z M 75.621094 33.710938 " clip-rule="nonzero"/></clipPath><clipPath id="f18ea0f757"><path d="M 87 148 L 244 148 L 244 191 L 87 191 Z M 87 148 " clip-rule="nonzero"/></clipPath><clipPath id="b0768b8f68"><path d="M 75.621094 33.710938 L 279.445312 14.25 L 295.695312 184.476562 L 91.875 203.933594 Z M 75.621094 33.710938 " clip-rule="nonzero"/></clipPath><clipPath id="c758886309"><path d="M 75.621094 33.710938 L 279.445312 14.25 L 295.695312 184.476562 L 91.875 203.933594 Z M 75.621094 33.710938 " clip-rule="nonzero"/></clipPath><clipPath id="df0a98c2de"><path d="M 216 42 L 260 42 L 260 114 L 216 114 Z M 216 42 " clip-rule="nonzero"/></clipPath><clipPath id="ed6372b799"><path d="M 75.621094 33.710938 L 279.445312 14.25 L 295.695312 184.476562 L 91.875 203.933594 Z M 75.621094 33.710938 " clip-rule="nonzero"/></clipPath><clipPath id="06fb69f0a4"><path d="M 75.621094 33.710938 L 279.445312 14.25 L 295.695312 184.476562 L 91.875 203.933594 Z M 75.621094 33.710938 " clip-rule="nonzero"/></clipPath><clipPath id="c6e48bf390"><path d="M 233 18 L 251 18 L 251 49 L 233 49 Z M 233 18 " clip-rule="nonzero"/></clipPath><clipPath id="cc5b53dfa0"><path d="M 75.621094 33.710938 L 279.445312 14.25 L 295.695312 184.476562 L 91.875 203.933594 Z M 75.621094 33.710938 " clip-rule="nonzero"/></clipPath><clipPath id="3643d7a716"><path d="M 75.621094 33.710938 L 279.445312 14.25 L 295.695312 184.476562 L 91.875 203.933594 Z M 75.621094 33.710938 " clip-rule="nonzero"/></clipPath><clipPath id="487d5b8a3b"><path d="M 193 39 L 226 39 L 226 55 L 193 55 Z M 193 39 " clip-rule="nonzero"/></clipPath><clipPath id="3788010df4"><path d="M 75.621094 33.710938 L 279.445312 14.25 L 295.695312 184.476562 L 91.875 203.933594 Z M 75.621094 33.710938 " clip-rule="nonzero"/></clipPath><clipPath id="ec616a7557"><path d="M 75.621094 33.710938 L 279.445312 14.25 L 295.695312 184.476562 L 91.875 203.933594 Z M 75.621094 33.710938 " clip-rule="nonzero"/></clipPath><clipPath id="e7b9182c0b"><path d="M 259 41 L 276 41 L 276 72 L 259 72 Z M 259 41 " clip-rule="nonzero"/></clipPath><clipPath id="f884200a9b"><path d="M 75.621094 33.710938 L 279.445312 14.25 L 295.695312 184.476562 L 91.875 203.933594 Z M 75.621094 33.710938 " clip-rule="nonzero"/></clipPath><clipPath id="bb1c626568"><path d="M 75.621094 33.710938 L 279.445312 14.25 L 295.695312 184.476562 L 91.875 203.933594 Z M 75.621094 33.710938 " clip-rule="nonzero"/></clipPath><clipPath id="ee7209abf3"><path d="M 265 79 L 286 79 L 286 105 L 265 105 Z M 265 79 " clip-rule="nonzero"/></clipPath><clipPath id="a7a77ad03f"><path d="M 75.621094 33.710938 L 279.445312 14.25 L 295.695312 184.476562 L 91.875 203.933594 Z M 75.621094 33.710938 " clip-rule="nonzero"/></clipPath><clipPath id="9e3c5bbb88"><path d="M 75.621094 33.710938 L 279.445312 14.25 L 295.695312 184.476562 L 91.875 203.933594 Z M 75.621094 33.710938 " clip-rule="nonzero"/></clipPath><clipPath id="cf0651e999"><path d="M 37.171875 133.792969 L 337.828125 133.792969 L 337.828125 190.417969 L 37.171875 190.417969 Z M 37.171875 133.792969 " clip-rule="nonzero"/></clipPath></defs><g clip-path="url(#629b6b4e8e)"><g clip-path="url(#9d8d7b5d7a)"><g clip-path="url(#84f8cf38b8)"><path fill="#444443" d="M 203.960938 84.078125 L 200.601562 90.625 L 198.328125 90.796875 L 196.601562 93.34375 L 196.753906 94.933594 L 193.878906 97.453125 L 184.984375 98.300781 L 185.960938 105.171875 C 185.960938 105.171875 181.875 88.796875 170.941406 85.078125 L 167.441406 86.328125 C 160.710938 82.023438 149.65625 80.421875 139.945312 87.121094 L 139.601562 89.304688 C 139.601562 89.304688 135.148438 90.601562 136.085938 94.679688 C 136.085938 94.679688 132.523438 96.210938 134.316406 101.078125 C 134.316406 101.078125 131.285156 103.886719 133.046875 106.96875 L 133.480469 109.125 C 133.777344 99.296875 141.597656 89.070312 150.207031 92.414062 C 150.257812 90.074219 151.839844 88.410156 154.160156 88.234375 C 159.109375 87.808594 165.261719 92.261719 167.695312 96.195312 C 164.574219 93.242188 160.132812 90.828125 156.9375 90.488281 C 152.867188 90.054688 152.734375 93.457031 155.164062 95.878906 C 157.265625 90.550781 165.207031 96.984375 169.15625 103.339844 C 164.558594 98.328125 157.59375 95.417969 158.199219 102.734375 C 162.394531 99.679688 168.128906 107.421875 170.109375 112.363281 C 167.078125 107.476562 158.476562 102.296875 159.125 110.984375 C 163.957031 109.332031 169.289062 115.28125 170.199219 121.925781 C 168.511719 117.1875 158.300781 109.550781 158.65625 119.042969 C 162.453125 117.078125 168.636719 123.3125 168.195312 127.796875 C 165.613281 122.824219 158.628906 118.269531 157.609375 125.328125 C 159.667969 123.894531 162.777344 125.246094 164.277344 127.53125 C 168.136719 133.4375 158.039062 138.019531 153.832031 138.558594 C 159.328125 139.042969 165.824219 137.046875 169.609375 134.441406 C 173.472656 131.738281 177.59375 126.945312 177.921875 122.699219 C 177.921875 122.699219 180.699219 121.566406 180.601562 118.597656 L 179.339844 115.96875 L 189.054688 115.042969 C 189.054688 115.042969 190.542969 116.230469 188.445312 119.222656 C 188.445312 119.222656 187.578125 120.679688 189.78125 121.203125 C 189.78125 121.203125 190.789062 129.855469 202.992188 130.0625 C 215.195312 130.273438 220.796875 128.960938 225.546875 124.519531 C 225.546875 124.519531 226.367188 123.527344 226.054688 121.175781 C 226.054688 121.175781 230.21875 117.800781 228.039062 115.121094 C 226.988281 116.597656 224.898438 116.75 223.640625 115.589844 C 226.378906 115.464844 227.988281 113.617188 229.484375 111.550781 C 230.253906 110.46875 230.363281 109.222656 229.148438 108.511719 C 229.148438 108.511719 231.855469 105.6875 230.289062 103.183594 C 228.777344 105.113281 227.46875 107.207031 226.003906 109.132812 C 225.191406 110.21875 223.78125 110.8125 222.511719 109.972656 C 223.773438 109.757812 225.34375 108.464844 224.242188 107.46875 L 221.886719 105.359375 L 225.285156 106.40625 L 229.140625 101.230469 L 229.359375 95.347656 C 229.113281 92.761719 225.855469 92.246094 225.855469 92.246094 C 225.730469 89.96875 223.621094 88.980469 223.621094 88.980469 L 222.671875 91.496094 L 208.355469 91.261719 C 208.625 89.769531 208.769531 89.34375 210.785156 89.335938 L 213.761719 89.324219 L 210.847656 78.472656 L 208.871094 78.433594 C 207.226562 78.453125 206.316406 79.5 205.972656 80.679688 C 205.625 82.316406 206.097656 83.917969 203.960938 84.078125 Z M 211.949219 94.351562 L 220.652344 94.347656 L 220.058594 96.785156 L 212.5 96.773438 Z M 189.640625 111.09375 L 189.96875 105.429688 L 191.175781 106.09375 Z M 195.835938 106.425781 L 197.394531 109.804688 L 191.34375 114.550781 Z M 192.808594 106.394531 L 193.875 107.484375 L 190.84375 112.671875 Z M 202.574219 98.820312 L 202.894531 96.910156 L 216.375 100.386719 Z M 199.585938 104.464844 L 223.507812 103.144531 L 199.296875 107.195312 Z M 201.859375 102.828125 L 202.210938 100.777344 L 220.484375 102.195312 Z M 204.480469 113.523438 C 204.613281 116.351562 203.054688 119.203125 199.648438 119.023438 C 203.585938 118.050781 202.542969 113.847656 202.53125 113.710938 Z M 194.132812 117.855469 C 198.671875 122.691406 205.894531 121.128906 205.839844 113.347656 L 209.152344 113.03125 C 207.980469 122.808594 198.121094 123.660156 194.132812 117.855469 Z M 216.304688 109.28125 C 215.996094 107.476562 217.492188 106.832031 218.796875 108.035156 C 221.523438 110.660156 222.6875 115.175781 222.6875 115.175781 C 221.039062 112.308594 219.214844 110.46875 216.304688 109.28125 Z M 216.4375 116.871094 C 216.613281 115.390625 217.933594 114.347656 219.085938 115.839844 C 221.691406 119.164062 222.070312 122.652344 222.070312 122.652344 C 220.433594 119.878906 218.929688 118.054688 216.4375 116.871094 Z M 176.34375 110.484375 C 182.425781 113.75 172.644531 121.144531 170.390625 122.960938 C 170.390625 122.960938 178.25 116.53125 176.34375 110.484375 Z M 176.417969 119.410156 C 180.199219 123.535156 171.390625 127.675781 169.679688 128.480469 C 169.675781 128.433594 175.914062 123.71875 176.417969 119.410156 Z M 170.304688 89.441406 C 174.199219 91.863281 170.550781 95.878906 168.175781 97.84375 C 168.175781 97.84375 171.882812 94.46875 170.304688 89.441406 Z M 173.542969 95.546875 C 179.074219 99.277344 172.257812 103.683594 168.933594 105.789062 C 168.933594 105.789062 175.648438 100.335938 173.542969 95.546875 Z M 175.761719 102.9375 C 181.554688 105.589844 172.640625 112.488281 170.933594 113.796875 C 170.933594 113.796875 177.105469 107.433594 175.761719 102.9375 Z M 113.433594 127.027344 C 115.238281 128.183594 117.371094 129.902344 118.453125 132.132812 C 119.578125 127.585938 115.917969 122.847656 113.082031 120.96875 C 116.96875 121.375 119.292969 123.167969 122.152344 126.238281 C 122.167969 122.574219 118.277344 116.851562 113.179688 113.355469 C 118.976562 113.625 121.5 117.964844 121.5 117.964844 C 121.070312 113.472656 117.136719 109.679688 111.765625 106.664062 C 117.140625 105.878906 120.882812 110.054688 120.882812 110.054688 C 120.898438 106.390625 117.859375 100.953125 110.332031 97.414062 C 115.539062 95.816406 119.675781 100.320312 119.675781 100.320312 C 118.390625 95.957031 115.289062 92.265625 107.519531 90.03125 C 111.574219 88.363281 115.449219 89.136719 117.933594 90.6875 C 114.855469 85.300781 110.582031 75.082031 103.953125 74.25 C 108.597656 73.027344 112.027344 72.976562 116.191406 76.746094 L 128.890625 89.367188 L 137.707031 81.929688 L 131.644531 95.195312 L 129.269531 100.503906 L 132.925781 110.050781 L 129.871094 114.507812 L 130.210938 124.277344 L 126.355469 130.921875 L 132.808594 130.855469 L 132.8125 126.59375 C 130.773438 121.066406 131.429688 116.421875 133.621094 111.542969 C 133.152344 122.488281 137.984375 134.253906 147.265625 138.359375 L 108.722656 137.1875 C 103.039062 136.675781 98.050781 134.3125 95.496094 129.609375 C 101.625 135.757812 110.957031 135.140625 115.648438 133.914062 C 115.53125 132.6875 114.753906 128.871094 113.433594 127.027344 Z M 208.226562 81.746094 L 209.386719 81.40625 L 210.417969 87.902344 Z M 205.347656 85.179688 L 206.40625 90.988281 L 202.21875 90.792969 Z M 205.347656 85.179688 " fill-opacity="1" fill-rule="evenodd"/></g></g></g><g clip-path="url(#e68c913e37)"><g clip-path="url(#25bae8af96)"><g clip-path="url(#8febf4f1ec)"><path fill="#444443" d="M 157.046875 68.128906 L 160.964844 67.890625 C 162.285156 67.8125 162.441406 68.484375 162.675781 69.515625 L 164.578125 79.363281 L 167.476562 78.996094 L 165.597656 67.953125 L 170.980469 68.21875 L 172.894531 78.660156 C 172.894531 78.660156 181.640625 81.535156 184.355469 95.109375 C 183.519531 87.3125 180.308594 79.554688 174.761719 78.070312 L 172.730469 68.324219 L 178.4375 68.605469 C 178.90625 69.660156 180.640625 72.972656 184.707031 73.363281 L 193.871094 72.902344 C 195.054688 72.835938 196.394531 72.476562 196.734375 71.210938 L 197.390625 68.488281 L 199.257812 68.402344 L 200.105469 71.988281 L 206.058594 71.96875 L 205.78125 79.140625 L 203.027344 82.929688 L 199.496094 89.585938 L 197.097656 89.90625 L 195.4375 92.675781 L 195.378906 94.46875 L 194.152344 96.003906 L 184.574219 96.921875 C 183.902344 95.152344 180.726562 87.300781 176.242188 83.515625 C 171.609375 79.609375 160.707031 81.976562 160.707031 81.976562 L 158.824219 80.507812 C 157.972656 77.335938 155.242188 77.507812 153.398438 77.867188 L 139.882812 80.253906 L 149.015625 75.628906 L 149.101562 72.6875 L 155.832031 70.761719 Z M 185.136719 76.394531 L 182.640625 76.632812 L 186.636719 94.523438 Z M 190.765625 75.855469 L 188.222656 76.097656 L 190.050781 94.289062 Z M 197.027344 75.257812 L 194.347656 75.511719 L 193.199219 94.171875 Z M 197.027344 75.257812 " fill-opacity="1" fill-rule="evenodd"/></g></g></g><g clip-path="url(#6f9f7c0ad0)"><g clip-path="url(#51cf5f9813)"><g clip-path="url(#3c32cfca83)"><path fill="#444443" d="M 111.523438 84.472656 C 102.566406 74.152344 92.636719 86.691406 90.085938 96.917969 C 90.183594 91.230469 91.964844 83.042969 95.714844 78.65625 C 102.769531 70.515625 110.128906 78.515625 111.523438 84.472656 Z M 111.523438 84.472656 " fill-opacity="1" fill-rule="evenodd"/></g></g></g><g clip-path="url(#9da37f947e)"><g clip-path="url(#e2c986188c)"><g clip-path="url(#7c43cad4c7)"><path fill="#444443" d="M 105.894531 101.316406 C 105.894531 101.316406 105.078125 96.128906 101.367188 96.117188 C 97.703125 96.097656 93.972656 103.601562 96.324219 115.238281 C 98.675781 126.921875 106.484375 119.492188 106.484375 119.492188 C 105.078125 124.890625 99.257812 126.777344 96.347656 121.742188 C 95.195312 119.742188 93.714844 115.761719 93.792969 108.425781 C 93.859375 96.144531 98.792969 94.574219 100.222656 94.210938 C 101.660156 93.890625 105.671875 95.15625 105.894531 101.316406 Z M 105.894531 101.316406 " fill-opacity="1" fill-rule="evenodd"/></g></g></g><g clip-path="url(#38b05dd44e)"><g clip-path="url(#60d40f71cb)"><g clip-path="url(#6ab87c73ca)"><path fill="#444443" d="M 100.675781 112.394531 C 100.675781 112.394531 100.113281 108.878906 100.980469 106.457031 C 101.667969 104.558594 103.644531 103.640625 104.675781 105.328125 C 105.652344 106.929688 105.671875 110.5 105.207031 112.328125 L 104.425781 107.503906 C 104.425781 107.503906 103.375 109.480469 103.890625 111.996094 C 103.890625 111.996094 102.824219 109.441406 103.640625 106.480469 C 103.589844 106.4375 100.941406 105.089844 100.675781 112.394531 Z M 100.675781 112.394531 " fill-opacity="1" fill-rule="evenodd"/></g></g></g><g clip-path="url(#8d049296d4)"><g clip-path="url(#504a82a6a2)"><g clip-path="url(#449977bd07)"><path fill="#444443" d="M 99.101562 130.453125 C 89.480469 125.601562 86.078125 91.894531 98.28125 87.296875 C 101.066406 86.25 105.398438 88.90625 107.6875 93.726562 C 111.402344 101.433594 111.554688 115.523438 109.664062 123.539062 C 109.664062 123.539062 110.867188 103.5 105.890625 95.5 C 102.207031 89.578125 97.929688 91.773438 95.464844 95.71875 C 89.984375 104.484375 93.410156 122.617188 99.101562 130.453125 Z M 99.101562 130.453125 " fill-opacity="1" fill-rule="evenodd"/></g></g></g><g clip-path="url(#59fbc14257)"><g clip-path="url(#f5fd450612)"><g clip-path="url(#151470831c)"><path fill="#444443" d="M 164.667969 135.464844 L 158.078125 138.429688 L 271.042969 125.628906 L 225.589844 124.472656 L 189.824219 121.199219 L 187.925781 124.816406 L 176.488281 125.90625 L 168.421875 133.546875 Z M 164.667969 135.464844 " fill-opacity="1" fill-rule="evenodd"/></g></g></g><g clip-path="url(#f7f47e1c1f)"><g clip-path="url(#bf5d834ff0)"><g clip-path="url(#c951390b38)"><path fill="#444443" d="M 218.984375 84.566406 C 218.984375 84.566406 220.507812 85.65625 220.9375 86.304688 C 220.9375 86.304688 219.417969 89.5625 217.855469 90.492188 C 217.8125 90.496094 219.195312 87.707031 218.984375 84.566406 Z M 218.984375 84.566406 " fill-opacity="1" fill-rule="evenodd"/></g></g></g><g clip-path="url(#5375ffa078)"><g clip-path="url(#7ba7698faf)"><g clip-path="url(#fb07f79aad)"><path fill="#444443" d="M 214.007812 82.339844 L 216.035156 83.429688 C 216.035156 83.429688 215.386719 85.734375 213.953125 87.015625 C 213.992188 86.964844 214.785156 84.234375 214.007812 82.339844 Z M 214.007812 82.339844 " fill-opacity="1" fill-rule="evenodd"/></g></g></g><g clip-path="url(#86f0736ade)"><g clip-path="url(#c912b85732)"><g clip-path="url(#567ebf2131)"><path fill="#444443" d="M 148.304688 114.71875 C 148.304688 114.71875 143.261719 104.574219 149.464844 100.5 C 149.464844 100.5 143.589844 98.453125 143.453125 108.039062 C 141.738281 97.253906 151.683594 93.96875 153.570312 106.0625 C 153.570312 106.0625 149.628906 104.105469 148.945312 109.4375 C 148.945312 109.4375 148.804688 105.097656 151.984375 104.796875 C 151.617188 103.824219 150.609375 102.867188 149.582031 103.648438 C 148.351562 104.636719 146.292969 108.039062 148.304688 114.71875 Z M 148.304688 114.71875 " fill-opacity="1" fill-rule="evenodd"/></g></g></g><g clip-path="url(#8a4ce9eba3)"><g clip-path="url(#59bd50afc5)"><g clip-path="url(#c05dd471c3)"><path fill="#444443" d="M 109.960938 72.441406 C 112.023438 72.425781 114.082031 72.414062 116.136719 72.355469 L 127.964844 84.921875 L 135.878906 80.042969 L 135.875 79.996094 L 136.394531 79.671875 L 136.160156 77.222656 L 146.546875 72.335938 L 145.964844 66.207031 L 149.148438 63.109375 L 151.417969 62.894531 C 151.347656 62.167969 150.953125 57.074219 150.808594 55.074219 C 150.652344 52.9375 152.507812 52.253906 152.507812 52.253906 L 163.820312 47.921875 L 165.058594 61.363281 L 154.242188 63.21875 C 152.125 63.558594 148.914062 65.46875 148.46875 67.480469 L 157.632812 65.140625 C 157.722656 65.132812 170.34375 65.851562 176.183594 66.117188 C 178.570312 66.164062 178.898438 67.691406 178.898438 67.691406 L 205.695312 67.238281 L 206.40625 66.027344 L 201.566406 63.785156 L 181.316406 61.824219 L 180.761719 56.015625 L 180.078125 56.035156 L 179.640625 52.414062 C 178.890625 48.40625 182.089844 46.40625 182.089844 46.40625 L 185.472656 53.550781 C 186.953125 54.644531 188.359375 53.550781 188.574219 52.933594 C 188.742188 52.277344 186.136719 43.6875 184.625 42.273438 C 183.117188 40.859375 180.945312 42.578125 180.945312 42.578125 L 181.523438 45.269531 C 180.019531 41.523438 177.386719 44.660156 177.386719 44.660156 L 169.128906 44.027344 L 171.136719 39.164062 L 171.550781 38.207031 L 165.472656 36.453125 L 160.566406 37.332031 L 141.320312 36.285156 L 140.359375 35.324219 L 126.359375 36.476562 L 125.984375 35.414062 L 119.671875 36.472656 C 116.023438 37.097656 116.898438 40.035156 116.898438 40.035156 C 116.898438 40.035156 111.425781 41.703125 109.371094 43.226562 C 107.367188 44.792969 107.875 48.179688 107.875 48.179688 L 108.492188 48.394531 C 109.023438 50.132812 111.410156 51.140625 111.410156 51.140625 L 111.347656 66.8125 L 110.429688 68.226562 L 106.253906 68.625 L 105.804688 59.597656 L 99.304688 61.546875 L 99.347656 62.507812 L 104.589844 61.273438 L 99.386719 63.875 L 99.402344 64.515625 L 105.003906 63.203125 L 99.496094 65.972656 L 99.511719 66.613281 L 105.292969 65.28125 L 99.570312 68.164062 L 99.605469 69.03125 L 105.433594 67.695312 L 99.667969 70.628906 C 99.773438 71.257812 100.179688 72.183594 101.566406 72.28125 C 103.777344 72.433594 104.886719 72.054688 104.886719 72.054688 L 106.230469 70.78125 L 108.886719 70.757812 L 108.863281 71.492188 C 108.886719 72.222656 109.316406 72.410156 109.960938 72.441406 Z M 165.375 37.789062 L 170.121094 39.078125 L 164.113281 39.925781 Z M 109.101562 47.605469 L 117.445312 42.410156 L 117.949219 44.332031 Z M 139.761719 36.753906 L 141.996094 39.058594 L 125.757812 37.816406 Z M 161.007812 38.617188 L 162.238281 40.472656 L 149.902344 38.398438 Z M 129.65625 43.167969 L 131.867188 42.820312 L 132.457031 48.03125 Z M 131.113281 52.191406 L 128.804688 52.457031 L 131.078125 76.285156 L 132.210938 76.179688 L 132.464844 78.8125 L 131.597656 79.351562 L 130.429688 78.59375 L 127.597656 48.953125 L 128.273438 48.339844 L 130.40625 48.136719 Z M 123.664062 37.96875 C 123.339844 38.414062 123.128906 39.074219 123.179688 39.621094 L 124.195312 48.316406 L 121.546875 48.890625 L 120.953125 49.863281 L 125.734375 51.511719 L 125.0625 45.441406 L 126.195312 44.828125 C 127.246094 44.316406 127.761719 44.90625 127.761719 44.90625 L 128.90625 46.8125 L 127.710938 46.789062 L 126.914062 48.011719 L 129.832031 78.605469 L 127.929688 77.871094 L 122.859375 70.339844 C 121.792969 68.746094 119.855469 68.105469 117.871094 68.433594 L 114.648438 68.742188 C 114.585938 67.144531 114.050781 56.246094 113.988281 54.148438 C 113.921875 52.046875 115.726562 51.277344 115.726562 51.277344 L 120.175781 48.929688 L 118.09375 41.523438 C 118.097656 41.570312 120.734375 38.480469 123.664062 37.96875 Z M 133.777344 52.257812 C 133.777344 52.257812 139.695312 51.875 142.878906 52.121094 C 146.0625 52.367188 146.507812 55.117188 146.507812 55.117188 L 147.402344 62.085938 L 143.886719 65.078125 L 144.292969 69.34375 L 135.800781 72.996094 L 133.820312 52.253906 Z M 170.417969 61.355469 L 168.695312 48.601562 L 169.976562 47.609375 L 170.042969 48.792969 L 176.082031 47.300781 C 174.683594 50.871094 175.847656 56.347656 175.847656 56.347656 L 175.347656 57.816406 C 173.367188 58.691406 172.96875 60.746094 172.851562 61.441406 C 172.023438 61.386719 171.242188 61.367188 170.417969 61.355469 Z M 133.246094 42.871094 L 163.542969 43.550781 L 133.476562 46.238281 Z M 112.683594 51.523438 L 112.617188 49.878906 L 118.789062 48.328125 Z M 112.683594 51.523438 " fill-opacity="1" fill-rule="evenodd"/></g></g></g><g clip-path="url(#6d70c8c8ae)"><g clip-path="url(#0204b00b48)"><g clip-path="url(#f010316952)"><path fill="#444443" d="M 148.457031 97.117188 C 145.894531 97.132812 143.886719 98.195312 142.390625 99.800781 C 138.570312 103.921875 138.03125 112.171875 139.171875 117.421875 C 140.285156 122.355469 143.210938 124.6875 146.242188 124.765625 C 149.867188 124.832031 153.695312 121.761719 154.882812 115.96875 C 154.675781 128.21875 142.136719 130.699219 138.515625 121.105469 C 137.539062 118.539062 137.027344 115.109375 137.179688 110.46875 C 137.703125 94.84375 146.808594 96.175781 148.457031 97.117188 Z M 148.457031 97.117188 " fill-opacity="1" fill-rule="evenodd"/></g></g></g><g clip-path="url(#25aca53ac3)"><g clip-path="url(#f2ffe1c3f4)"><g clip-path="url(#574f6fe5db)"><path fill="#444443" d="M 151.699219 119.570312 C 150.640625 119.992188 143.78125 121.5625 143.210938 114.152344 C 141.78125 118.363281 146.890625 124.382812 151.699219 119.570312 Z M 151.699219 119.570312 " fill-opacity="1" fill-rule="evenodd"/></g></g></g><g clip-path="url(#55d1956441)"><g clip-path="url(#50956ba011)"><g clip-path="url(#422c950a68)"><path fill="#444443" d="M 271.042969 125.628906 C 202.242188 125.554688 131.597656 143.15625 131.597656 143.15625 C 198.332031 138.339844 246.007812 147.894531 262.066406 153.921875 Z M 271.042969 125.628906 " fill-opacity="1" fill-rule="evenodd"/></g></g></g><g clip-path="url(#f18ea0f757)"><g clip-path="url(#b0768b8f68)"><g clip-path="url(#c758886309)"><path fill="#006537" d="M 87.03125 153.226562 C 87.03125 153.226562 175.847656 138.882812 243.828125 162.945312 L 227.078125 190.925781 C 227.078125 190.925781 194.316406 163.457031 87.03125 153.226562 Z M 87.03125 153.226562 " fill-opacity="1" fill-rule="evenodd"/></g></g></g><g clip-path="url(#df0a98c2de)"><g clip-path="url(#ed6372b799)"><g clip-path="url(#06fb69f0a4)"><path fill="#006537" d="M 249.046875 111.605469 C 253.757812 105.292969 256.050781 98.113281 256.363281 90.84375 C 256.6875 83.667969 255.035156 76.453125 251.894531 69.929688 C 248.746094 63.359375 244.023438 57.535156 238.207031 53.234375 C 232.046875 48.648438 224.617188 45.691406 216.386719 45.332031 L 216.511719 42.34375 C 225.390625 42.730469 233.382812 45.863281 239.992188 50.820312 C 246.207031 55.449219 251.195312 61.660156 254.5625 68.621094 C 257.929688 75.582031 259.675781 83.292969 259.355469 90.972656 C 259.003906 98.835938 256.539062 106.585938 251.417969 113.394531 Z M 249.046875 111.605469 " fill-opacity="1" fill-rule="evenodd"/></g></g></g><g clip-path="url(#c6e48bf390)"><g clip-path="url(#cc5b53dfa0)"><g clip-path="url(#3643d7a716)"><path fill="#006537" d="M 237.574219 18.300781 C 228.90625 30.167969 236.882812 41.269531 244.800781 46.972656 L 240.574219 30.976562 L 248.65625 48.023438 C 254.730469 36.769531 248.132812 23.339844 237.574219 18.300781 Z M 237.574219 18.300781 " fill-opacity="1" fill-rule="evenodd"/></g></g></g><g clip-path="url(#487d5b8a3b)"><g clip-path="url(#3788010df4)"><g clip-path="url(#ec616a7557)"><path fill="#006537" d="M 193.882812 46.65625 C 202.445312 58.617188 215.476562 54.535156 223.402344 48.785156 L 206.863281 47.796875 L 225.601562 45.460938 C 216.839844 36.175781 202.007812 38.1875 193.882812 46.65625 Z M 193.882812 46.65625 " fill-opacity="1" fill-rule="evenodd"/></g></g></g><g clip-path="url(#e7b9182c0b)"><g clip-path="url(#f884200a9b)"><g clip-path="url(#bb1c626568)"><path fill="#006537" d="M 273.644531 41.558594 C 259.433594 45.253906 258.535156 58.898438 261.089844 68.363281 L 267.9375 53.28125 L 263.367188 71.582031 C 275.21875 66.691406 278.640625 52.167969 273.644531 41.558594 Z M 273.644531 41.558594 " fill-opacity="1" fill-rule="evenodd"/></g></g></g><g clip-path="url(#ee7209abf3)"><g clip-path="url(#a7a77ad03f)"><g clip-path="url(#9e3c5bbb88)"><path fill="#006537" d="M 285.808594 79.238281 C 271.128906 78.078125 265.875 90.671875 265.160156 100.449219 L 276.566406 88.457031 L 266.257812 104.28125 C 279.058594 103.5625 287.0625 90.9375 285.808594 79.238281 Z M 285.808594 79.238281 " fill-opacity="1" fill-rule="evenodd"/></g></g></g><g clip-path="url(#cf0651e999)"><path fill="#ffffff" d="M 37.171875 133.792969 L 337.773438 133.792969 L 337.773438 190.417969 L 37.171875 190.417969 Z M 37.171875 133.792969 " fill-opacity="1" fill-rule="nonzero"/></g><g fill="#9da65d" fill-opacity="1"><g transform="translate(9.080455, 180.555889)"><g><path d="M 1.703125 -17.015625 C 1.703125 -20.347656 2.453125 -23.332031 3.953125 -25.96875 C 5.460938 -28.613281 7.519531 -30.671875 10.125 -32.140625 C 12.738281 -33.617188 15.664062 -34.359375 18.90625 -34.359375 C 22.695312 -34.359375 26.019531 -33.382812 28.875 -31.4375 C 31.726562 -29.5 33.722656 -26.8125 34.859375 -23.375 L 27.03125 -23.375 C 26.25 -25 25.148438 -26.210938 23.734375 -27.015625 C 22.328125 -27.828125 20.703125 -28.234375 18.859375 -28.234375 C 16.878906 -28.234375 15.117188 -27.769531 13.578125 -26.84375 C 12.046875 -25.925781 10.847656 -24.625 9.984375 -22.9375 C 9.128906 -21.257812 8.703125 -19.285156 8.703125 -17.015625 C 8.703125 -14.773438 9.128906 -12.804688 9.984375 -11.109375 C 10.847656 -9.410156 12.046875 -8.097656 13.578125 -7.171875 C 15.117188 -6.242188 16.878906 -5.78125 18.859375 -5.78125 C 20.703125 -5.78125 22.328125 -6.191406 23.734375 -7.015625 C 25.148438 -7.847656 26.25 -9.070312 27.03125 -10.6875 L 34.859375 -10.6875 C 33.722656 -7.226562 31.734375 -4.53125 28.890625 -2.59375 C 26.054688 -0.664062 22.726562 0.296875 18.90625 0.296875 C 15.664062 0.296875 12.738281 -0.4375 10.125 -1.90625 C 7.519531 -3.382812 5.460938 -5.4375 3.953125 -8.0625 C 2.453125 -10.6875 1.703125 -13.671875 1.703125 -17.015625 Z M 1.703125 -17.015625 "/></g></g></g><g fill="#9da65d" fill-opacity="1"><g transform="translate(46.40027, 180.555889)"><g><path d="M 1.609375 -13.5625 C 1.609375 -16.28125 2.148438 -18.691406 3.234375 -20.796875 C 4.316406 -22.910156 5.789062 -24.53125 7.65625 -25.65625 C 9.519531 -26.789062 11.601562 -27.359375 13.90625 -27.359375 C 15.914062 -27.359375 17.671875 -26.953125 19.171875 -26.140625 C 20.679688 -25.335938 21.890625 -24.320312 22.796875 -23.09375 L 22.796875 -26.921875 L 29.65625 -26.921875 L 29.65625 0 L 22.796875 0 L 22.796875 -3.9375 C 21.921875 -2.675781 20.710938 -1.628906 19.171875 -0.796875 C 17.640625 0.0234375 15.867188 0.4375 13.859375 0.4375 C 11.585938 0.4375 9.519531 -0.144531 7.65625 -1.3125 C 5.789062 -2.476562 4.316406 -4.125 3.234375 -6.25 C 2.148438 -8.375 1.609375 -10.8125 1.609375 -13.5625 Z M 22.796875 -13.46875 C 22.796875 -15.113281 22.472656 -16.53125 21.828125 -17.71875 C 21.179688 -18.90625 20.304688 -19.8125 19.203125 -20.4375 C 18.097656 -21.070312 16.914062 -21.390625 15.65625 -21.390625 C 14.382812 -21.390625 13.210938 -21.082031 12.140625 -20.46875 C 11.078125 -19.851562 10.210938 -18.953125 9.546875 -17.765625 C 8.890625 -16.585938 8.5625 -15.1875 8.5625 -13.5625 C 8.5625 -11.9375 8.890625 -10.515625 9.546875 -9.296875 C 10.210938 -8.085938 11.085938 -7.160156 12.171875 -6.515625 C 13.265625 -5.867188 14.425781 -5.546875 15.65625 -5.546875 C 16.914062 -5.546875 18.097656 -5.859375 19.203125 -6.484375 C 20.304688 -7.117188 21.179688 -8.023438 21.828125 -9.203125 C 22.472656 -10.390625 22.796875 -11.8125 22.796875 -13.46875 Z M 22.796875 -13.46875 "/></g></g></g><g fill="#9da65d" fill-opacity="1"><g transform="translate(79.346671, 180.555889)"><g><path d="M 36.796875 -27.3125 C 40.097656 -27.3125 42.757812 -26.300781 44.78125 -24.28125 C 46.8125 -22.257812 47.828125 -19.429688 47.828125 -15.796875 L 47.828125 0 L 41.03125 0 L 41.03125 -14.875 C 41.03125 -16.976562 40.492188 -18.585938 39.421875 -19.703125 C 38.347656 -20.828125 36.890625 -21.390625 35.046875 -21.390625 C 33.203125 -21.390625 31.734375 -20.828125 30.640625 -19.703125 C 29.554688 -18.585938 29.015625 -16.976562 29.015625 -14.875 L 29.015625 0 L 22.21875 0 L 22.21875 -14.875 C 22.21875 -16.976562 21.679688 -18.585938 20.609375 -19.703125 C 19.535156 -20.828125 18.078125 -21.390625 16.234375 -21.390625 C 14.359375 -21.390625 12.875 -20.828125 11.78125 -19.703125 C 10.695312 -18.585938 10.15625 -16.976562 10.15625 -14.875 L 10.15625 0 L 3.359375 0 L 3.359375 -26.921875 L 10.15625 -26.921875 L 10.15625 -23.671875 C 11.03125 -24.804688 12.15625 -25.695312 13.53125 -26.34375 C 14.914062 -26.988281 16.429688 -27.3125 18.078125 -27.3125 C 20.191406 -27.3125 22.070312 -26.863281 23.71875 -25.96875 C 25.375 -25.082031 26.65625 -23.816406 27.5625 -22.171875 C 28.4375 -23.722656 29.707031 -24.96875 31.375 -25.90625 C 33.039062 -26.84375 34.847656 -27.3125 36.796875 -27.3125 Z M 36.796875 -27.3125 "/></g></g></g><g fill="#9da65d" fill-opacity="1"><g transform="translate(130.272662, 180.555889)"><g><path d="M 10.15625 -23.046875 C 11.03125 -24.273438 12.238281 -25.300781 13.78125 -26.125 C 15.320312 -26.945312 17.082031 -27.359375 19.0625 -27.359375 C 21.351562 -27.359375 23.429688 -26.789062 25.296875 -25.65625 C 27.160156 -24.53125 28.632812 -22.921875 29.71875 -20.828125 C 30.8125 -18.734375 31.359375 -16.3125 31.359375 -13.5625 C 31.359375 -10.8125 30.8125 -8.375 29.71875 -6.25 C 28.632812 -4.125 27.160156 -2.476562 25.296875 -1.3125 C 23.429688 -0.144531 21.351562 0.4375 19.0625 0.4375 C 17.082031 0.4375 15.335938 0.03125 13.828125 -0.78125 C 12.316406 -1.59375 11.09375 -2.613281 10.15625 -3.84375 L 10.15625 12.828125 L 3.359375 12.828125 L 3.359375 -26.921875 L 10.15625 -26.921875 Z M 24.40625 -13.5625 C 24.40625 -15.1875 24.070312 -16.585938 23.40625 -17.765625 C 22.738281 -18.953125 21.863281 -19.851562 20.78125 -20.46875 C 19.695312 -21.082031 18.519531 -21.390625 17.25 -21.390625 C 16.019531 -21.390625 14.863281 -21.070312 13.78125 -20.4375 C 12.695312 -19.8125 11.820312 -18.894531 11.15625 -17.6875 C 10.488281 -16.488281 10.15625 -15.082031 10.15625 -13.46875 C 10.15625 -11.84375 10.488281 -10.429688 11.15625 -9.234375 C 11.820312 -8.035156 12.695312 -7.117188 13.78125 -6.484375 C 14.863281 -5.859375 16.019531 -5.546875 17.25 -5.546875 C 18.519531 -5.546875 19.695312 -5.867188 20.78125 -6.515625 C 21.863281 -7.160156 22.738281 -8.082031 23.40625 -9.28125 C 24.070312 -10.476562 24.40625 -11.90625 24.40625 -13.5625 Z M 24.40625 -13.5625 "/></g></g></g><g fill="#9da65d" fill-opacity="1"><g transform="translate(163.219063, 180.555889)"><g><path d="M 15.3125 0.4375 C 12.71875 0.4375 10.382812 -0.132812 8.3125 -1.28125 C 6.238281 -2.4375 4.609375 -4.066406 3.421875 -6.171875 C 2.242188 -8.273438 1.65625 -10.707031 1.65625 -13.46875 C 1.65625 -16.21875 2.257812 -18.644531 3.46875 -20.75 C 4.6875 -22.863281 6.347656 -24.492188 8.453125 -25.640625 C 10.566406 -26.785156 12.914062 -27.359375 15.5 -27.359375 C 18.09375 -27.359375 20.441406 -26.785156 22.546875 -25.640625 C 24.660156 -24.492188 26.320312 -22.863281 27.53125 -20.75 C 28.75 -18.644531 29.359375 -16.21875 29.359375 -13.46875 C 29.359375 -10.707031 28.734375 -8.273438 27.484375 -6.171875 C 26.234375 -4.066406 24.546875 -2.4375 22.421875 -1.28125 C 20.304688 -0.132812 17.9375 0.4375 15.3125 0.4375 Z M 15.3125 -5.5 C 16.539062 -5.5 17.695312 -5.796875 18.78125 -6.390625 C 19.875 -6.992188 20.742188 -7.894531 21.390625 -9.09375 C 22.035156 -10.289062 22.359375 -11.75 22.359375 -13.46875 C 22.359375 -16.03125 21.6875 -18 20.34375 -19.375 C 19 -20.75 17.351562 -21.4375 15.40625 -21.4375 C 13.46875 -21.4375 11.84375 -20.75 10.53125 -19.375 C 9.21875 -18 8.5625 -16.03125 8.5625 -13.46875 C 8.5625 -10.90625 9.195312 -8.9375 10.46875 -7.5625 C 11.75 -6.1875 13.363281 -5.5 15.3125 -5.5 Z M 15.3125 -5.5 "/></g></g></g><g fill="#9da65d" fill-opacity="1"><g transform="translate(194.221719, 180.555889)"><g/></g></g><g fill="#9da65d" fill-opacity="1"><g transform="translate(205.786974, 180.555889)"><g><path d="M 15.21875 -33.921875 C 18.78125 -33.921875 21.910156 -33.222656 24.609375 -31.828125 C 27.316406 -30.441406 29.410156 -28.457031 30.890625 -25.875 C 32.367188 -23.300781 33.109375 -20.316406 33.109375 -16.921875 C 33.109375 -13.515625 32.367188 -10.539062 30.890625 -8 C 29.410156 -5.457031 27.316406 -3.488281 24.609375 -2.09375 C 21.910156 -0.695312 18.78125 0 15.21875 0 L 3.359375 0 L 3.359375 -33.921875 Z M 14.96875 -5.78125 C 18.53125 -5.78125 21.285156 -6.753906 23.234375 -8.703125 C 25.179688 -10.648438 26.15625 -13.390625 26.15625 -16.921875 C 26.15625 -20.453125 25.179688 -23.210938 23.234375 -25.203125 C 21.285156 -27.191406 18.53125 -28.1875 14.96875 -28.1875 L 10.15625 -28.1875 L 10.15625 -5.78125 Z M 14.96875 -5.78125 "/></g></g></g><g fill="#9da65d" fill-opacity="1"><g transform="translate(240.628527, 180.555889)"><g><path d="M 6.8125 -30.140625 C 5.601562 -30.140625 4.601562 -30.519531 3.8125 -31.28125 C 3.019531 -32.039062 2.625 -32.988281 2.625 -34.125 C 2.625 -35.257812 3.019531 -36.207031 3.8125 -36.96875 C 4.601562 -37.726562 5.601562 -38.109375 6.8125 -38.109375 C 8.007812 -38.109375 9.003906 -37.726562 9.796875 -36.96875 C 10.585938 -36.207031 10.984375 -35.257812 10.984375 -34.125 C 10.984375 -32.988281 10.585938 -32.039062 9.796875 -31.28125 C 9.003906 -30.519531 8.007812 -30.140625 6.8125 -30.140625 Z M 10.15625 -26.921875 L 10.15625 0 L 3.359375 0 L 3.359375 -26.921875 Z M 10.15625 -26.921875 "/></g></g></g><g fill="#9da65d" fill-opacity="1"><g transform="translate(254.137529, 180.555889)"><g><path d="M 13.90625 -27.359375 C 15.914062 -27.359375 17.679688 -26.960938 19.203125 -26.171875 C 20.722656 -25.378906 21.921875 -24.351562 22.796875 -23.09375 L 22.796875 -26.921875 L 29.65625 -26.921875 L 29.65625 0.1875 C 29.65625 2.6875 29.148438 4.914062 28.140625 6.875 C 27.140625 8.832031 25.632812 10.382812 23.625 11.53125 C 21.613281 12.6875 19.179688 13.265625 16.328125 13.265625 C 12.503906 13.265625 9.367188 12.375 6.921875 10.59375 C 4.472656 8.8125 3.085938 6.382812 2.765625 3.3125 L 9.53125 3.3125 C 9.882812 4.539062 10.648438 5.519531 11.828125 6.25 C 13.015625 6.976562 14.453125 7.34375 16.140625 7.34375 C 18.117188 7.34375 19.722656 6.75 20.953125 5.5625 C 22.179688 4.382812 22.796875 2.59375 22.796875 0.1875 L 22.796875 -3.984375 C 21.921875 -2.722656 20.710938 -1.671875 19.171875 -0.828125 C 17.640625 0.015625 15.882812 0.4375 13.90625 0.4375 C 11.632812 0.4375 9.554688 -0.144531 7.671875 -1.3125 C 5.796875 -2.476562 4.316406 -4.125 3.234375 -6.25 C 2.148438 -8.375 1.609375 -10.8125 1.609375 -13.5625 C 1.609375 -16.28125 2.148438 -18.691406 3.234375 -20.796875 C 4.316406 -22.910156 5.789062 -24.53125 7.65625 -25.65625 C 9.519531 -26.789062 11.601562 -27.359375 13.90625 -27.359375 Z M 22.796875 -13.46875 C 22.796875 -15.113281 22.472656 -16.53125 21.828125 -17.71875 C 21.179688 -18.90625 20.304688 -19.8125 19.203125 -20.4375 C 18.097656 -21.070312 16.914062 -21.390625 15.65625 -21.390625 C 14.382812 -21.390625 13.210938 -21.082031 12.140625 -20.46875 C 11.078125 -19.851562 10.210938 -18.953125 9.546875 -17.765625 C 8.890625 -16.585938 8.5625 -15.1875 8.5625 -13.5625 C 8.5625 -11.9375 8.890625 -10.515625 9.546875 -9.296875 C 10.210938 -8.085938 11.085938 -7.160156 12.171875 -6.515625 C 13.265625 -5.867188 14.425781 -5.546875 15.65625 -5.546875 C 16.914062 -5.546875 18.097656 -5.859375 19.203125 -6.484375 C 20.304688 -7.117188 21.179688 -8.023438 21.828125 -9.203125 C 22.472656 -10.390625 22.796875 -11.8125 22.796875 -13.46875 Z M 22.796875 -13.46875 "/></g></g></g><g fill="#9da65d" fill-opacity="1"><g transform="translate(287.08393, 180.555889)"><g><path d="M 6.8125 -30.140625 C 5.601562 -30.140625 4.601562 -30.519531 3.8125 -31.28125 C 3.019531 -32.039062 2.625 -32.988281 2.625 -34.125 C 2.625 -35.257812 3.019531 -36.207031 3.8125 -36.96875 C 4.601562 -37.726562 5.601562 -38.109375 6.8125 -38.109375 C 8.007812 -38.109375 9.003906 -37.726562 9.796875 -36.96875 C 10.585938 -36.207031 10.984375 -35.257812 10.984375 -34.125 C 10.984375 -32.988281 10.585938 -32.039062 9.796875 -31.28125 C 9.003906 -30.519531 8.007812 -30.140625 6.8125 -30.140625 Z M 10.15625 -26.921875 L 10.15625 0 L 3.359375 0 L 3.359375 -26.921875 Z M 10.15625 -26.921875 "/></g></g></g><g fill="#9da65d" fill-opacity="1"><g transform="translate(300.592932, 180.555889)"><g><path d="M 11.28125 -21.34375 L 11.28125 -8.3125 C 11.28125 -7.40625 11.5 -6.75 11.9375 -6.34375 C 12.375 -5.9375 13.109375 -5.734375 14.140625 -5.734375 L 17.3125 -5.734375 L 17.3125 0 L 13.03125 0 C 7.289062 0 4.421875 -2.785156 4.421875 -8.359375 L 4.421875 -21.34375 L 1.21875 -21.34375 L 1.21875 -26.921875 L 4.421875 -26.921875 L 4.421875 -33.59375 L 11.28125 -33.59375 L 11.28125 -26.921875 L 17.3125 -26.921875 L 17.3125 -21.34375 Z M 11.28125 -21.34375 "/></g></g></g><g fill="#9da65d" fill-opacity="1"><g transform="translate(319.447221, 180.555889)"><g><path d="M 1.609375 -13.5625 C 1.609375 -16.28125 2.148438 -18.691406 3.234375 -20.796875 C 4.316406 -22.910156 5.789062 -24.53125 7.65625 -25.65625 C 9.519531 -26.789062 11.601562 -27.359375 13.90625 -27.359375 C 15.914062 -27.359375 17.671875 -26.953125 19.171875 -26.140625 C 20.679688 -25.335938 21.890625 -24.320312 22.796875 -23.09375 L 22.796875 -26.921875 L 29.65625 -26.921875 L 29.65625 0 L 22.796875 0 L 22.796875 -3.9375 C 21.921875 -2.675781 20.710938 -1.628906 19.171875 -0.796875 C 17.640625 0.0234375 15.867188 0.4375 13.859375 0.4375 C 11.585938 0.4375 9.519531 -0.144531 7.65625 -1.3125 C 5.789062 -2.476562 4.316406 -4.125 3.234375 -6.25 C 2.148438 -8.375 1.609375 -10.8125 1.609375 -13.5625 Z M 22.796875 -13.46875 C 22.796875 -15.113281 22.472656 -16.53125 21.828125 -17.71875 C 21.179688 -18.90625 20.304688 -19.8125 19.203125 -20.4375 C 18.097656 -21.070312 16.914062 -21.390625 15.65625 -21.390625 C 14.382812 -21.390625 13.210938 -21.082031 12.140625 -20.46875 C 11.078125 -19.851562 10.210938 -18.953125 9.546875 -17.765625 C 8.890625 -16.585938 8.5625 -15.1875 8.5625 -13.5625 C 8.5625 -11.9375 8.890625 -10.515625 9.546875 -9.296875 C 10.210938 -8.085938 11.085938 -7.160156 12.171875 -6.515625 C 13.265625 -5.867188 14.425781 -5.546875 15.65625 -5.546875 C 16.914062 -5.546875 18.097656 -5.859375 19.203125 -6.484375 C 20.304688 -7.117188 21.179688 -8.023438 21.828125 -9.203125 C 22.472656 -10.390625 22.796875 -11.8125 22.796875 -13.46875 Z M 22.796875 -13.46875 "/></g></g></g><g fill="#9da65d" fill-opacity="1"><g transform="translate(352.393622, 180.555889)"><g><path d="M 10.15625 -35.96875 L 10.15625 0 L 3.359375 0 L 3.359375 -35.96875 Z M 10.15625 -35.96875 "/></g></g></g><g fill="#444443" fill-opacity="1"><g transform="translate(100.537582, 207.132891)"><g><path d="M 3.75 -8.09375 C 4.601562 -8.09375 5.347656 -7.921875 5.984375 -7.578125 C 6.617188 -7.242188 7.109375 -6.769531 7.453125 -6.15625 C 7.804688 -5.550781 7.984375 -4.847656 7.984375 -4.046875 C 7.984375 -3.253906 7.804688 -2.550781 7.453125 -1.9375 C 7.109375 -1.320312 6.613281 -0.84375 5.96875 -0.5 C 5.332031 -0.164062 4.59375 0 3.75 0 L 0.71875 0 L 0.71875 -8.09375 Z M 3.625 -1.703125 C 4.363281 -1.703125 4.941406 -1.90625 5.359375 -2.3125 C 5.773438 -2.71875 5.984375 -3.296875 5.984375 -4.046875 C 5.984375 -4.796875 5.773438 -5.375 5.359375 -5.78125 C 4.941406 -6.195312 4.363281 -6.40625 3.625 -6.40625 L 2.6875 -6.40625 L 2.6875 -1.703125 Z M 3.625 -1.703125 "/></g></g></g><g fill="#444443" fill-opacity="1"><g transform="translate(110.7166, 207.132891)"><g><path d="M 2.6875 -6.515625 L 2.6875 -4.875 L 5.328125 -4.875 L 5.328125 -3.359375 L 2.6875 -3.359375 L 2.6875 -1.578125 L 5.671875 -1.578125 L 5.671875 0 L 0.71875 0 L 0.71875 -8.09375 L 5.671875 -8.09375 L 5.671875 -6.515625 Z M 2.6875 -6.515625 "/></g></g></g><g fill="#444443" fill-opacity="1"><g transform="translate(118.751455, 207.132891)"><g><path d="M 2.6875 -1.515625 L 5.265625 -1.515625 L 5.265625 0 L 0.71875 0 L 0.71875 -8.09375 L 2.6875 -8.09375 Z M 2.6875 -1.515625 "/></g></g></g><g fill="#444443" fill-opacity="1"><g transform="translate(126.048533, 207.132891)"><g/></g></g><g fill="#444443" fill-opacity="1"><g transform="translate(130.290747, 207.132891)"><g><path d="M 0.375 -4.0625 C 0.375 -4.863281 0.546875 -5.578125 0.890625 -6.203125 C 1.242188 -6.828125 1.726562 -7.3125 2.34375 -7.65625 C 2.96875 -8.007812 3.671875 -8.1875 4.453125 -8.1875 C 5.410156 -8.1875 6.226562 -7.929688 6.90625 -7.421875 C 7.59375 -6.921875 8.054688 -6.226562 8.296875 -5.34375 L 6.125 -5.34375 C 5.957031 -5.6875 5.726562 -5.945312 5.4375 -6.125 C 5.144531 -6.300781 4.804688 -6.390625 4.421875 -6.390625 C 3.816406 -6.390625 3.328125 -6.175781 2.953125 -5.75 C 2.578125 -5.332031 2.390625 -4.769531 2.390625 -4.0625 C 2.390625 -3.351562 2.578125 -2.785156 2.953125 -2.359375 C 3.328125 -1.941406 3.816406 -1.734375 4.421875 -1.734375 C 4.804688 -1.734375 5.144531 -1.820312 5.4375 -2 C 5.726562 -2.175781 5.957031 -2.429688 6.125 -2.765625 L 8.296875 -2.765625 C 8.054688 -1.890625 7.59375 -1.195312 6.90625 -0.6875 C 6.226562 -0.1875 5.410156 0.0625 4.453125 0.0625 C 3.671875 0.0625 2.96875 -0.109375 2.34375 -0.453125 C 1.726562 -0.804688 1.242188 -1.296875 0.890625 -1.921875 C 0.546875 -2.546875 0.375 -3.257812 0.375 -4.0625 Z M 0.375 -4.0625 "/></g></g></g><g fill="#444443" fill-opacity="1"><g transform="translate(140.873234, 207.132891)"><g><path d="M 5.75 -1.4375 L 2.734375 -1.4375 L 2.25 0 L 0.1875 0 L 3.109375 -8.09375 L 5.390625 -8.09375 L 8.328125 0 L 6.234375 0 Z M 5.25 -2.953125 L 4.25 -5.921875 L 3.25 -2.953125 Z M 5.25 -2.953125 "/></g></g></g><g fill="#444443" fill-opacity="1"><g transform="translate(151.167526, 207.132891)"><g><path d="M 9.875 -8.09375 L 9.875 0 L 7.90625 0 L 7.90625 -4.859375 L 6.09375 0 L 4.515625 0 L 2.6875 -4.859375 L 2.6875 0 L 0.71875 0 L 0.71875 -8.09375 L 3.046875 -8.09375 L 5.3125 -2.484375 L 7.5625 -8.09375 Z M 9.875 -8.09375 "/></g></g></g><g fill="#444443" fill-opacity="1"><g transform="translate(163.548358, 207.132891)"><g><path d="M 6.890625 -5.484375 C 6.890625 -5.015625 6.78125 -4.585938 6.5625 -4.203125 C 6.34375 -3.816406 6.007812 -3.503906 5.5625 -3.265625 C 5.125 -3.023438 4.570312 -2.90625 3.90625 -2.90625 L 2.6875 -2.90625 L 2.6875 0 L 0.71875 0 L 0.71875 -8.09375 L 3.90625 -8.09375 C 4.550781 -8.09375 5.097656 -7.976562 5.546875 -7.75 C 5.992188 -7.53125 6.328125 -7.222656 6.546875 -6.828125 C 6.773438 -6.441406 6.890625 -5.992188 6.890625 -5.484375 Z M 3.765625 -4.46875 C 4.140625 -4.46875 4.414062 -4.554688 4.59375 -4.734375 C 4.78125 -4.910156 4.875 -5.160156 4.875 -5.484375 C 4.875 -5.804688 4.78125 -6.054688 4.59375 -6.234375 C 4.414062 -6.410156 4.140625 -6.5 3.765625 -6.5 L 2.6875 -6.5 L 2.6875 -4.46875 Z M 3.765625 -4.46875 "/></g></g></g><g fill="#444443" fill-opacity="1"><g transform="translate(172.540016, 207.132891)"><g><path d="M 4.546875 0.078125 C 3.785156 0.078125 3.085938 -0.0976562 2.453125 -0.453125 C 1.816406 -0.804688 1.3125 -1.300781 0.9375 -1.9375 C 0.5625 -2.570312 0.375 -3.285156 0.375 -4.078125 C 0.375 -4.867188 0.5625 -5.578125 0.9375 -6.203125 C 1.3125 -6.835938 1.816406 -7.328125 2.453125 -7.671875 C 3.085938 -8.023438 3.785156 -8.203125 4.546875 -8.203125 C 5.304688 -8.203125 6.003906 -8.023438 6.640625 -7.671875 C 7.273438 -7.328125 7.773438 -6.835938 8.140625 -6.203125 C 8.503906 -5.578125 8.6875 -4.867188 8.6875 -4.078125 C 8.6875 -3.285156 8.5 -2.570312 8.125 -1.9375 C 7.757812 -1.300781 7.257812 -0.804688 6.625 -0.453125 C 6 -0.0976562 5.304688 0.078125 4.546875 0.078125 Z M 4.546875 -1.71875 C 5.191406 -1.71875 5.707031 -1.929688 6.09375 -2.359375 C 6.476562 -2.796875 6.671875 -3.367188 6.671875 -4.078125 C 6.671875 -4.785156 6.476562 -5.351562 6.09375 -5.78125 C 5.707031 -6.207031 5.191406 -6.421875 4.546875 -6.421875 C 3.890625 -6.421875 3.367188 -6.207031 2.984375 -5.78125 C 2.597656 -5.363281 2.40625 -4.796875 2.40625 -4.078125 C 2.40625 -3.359375 2.597656 -2.785156 2.984375 -2.359375 C 3.367188 -1.929688 3.890625 -1.71875 4.546875 -1.71875 Z M 4.546875 -1.71875 "/></g></g></g><g fill="#444443" fill-opacity="1"><g transform="translate(183.399177, 207.132891)"><g/></g></g><g fill="#444443" fill-opacity="1"><g transform="translate(187.641393, 207.132891)"><g><path d="M 5.75 -1.4375 L 2.734375 -1.4375 L 2.25 0 L 0.1875 0 L 3.109375 -8.09375 L 5.390625 -8.09375 L 8.328125 0 L 6.234375 0 Z M 5.25 -2.953125 L 4.25 -5.921875 L 3.25 -2.953125 Z M 5.25 -2.953125 "/></g></g></g><g fill="#444443" fill-opacity="1"><g transform="translate(197.935685, 207.132891)"><g/></g></g><g fill="#444443" fill-opacity="1"><g transform="translate(202.177901, 207.132891)"><g><path d="M 6.53125 -8.09375 L 6.53125 -6.515625 L 4.390625 -6.515625 L 4.390625 0 L 2.421875 0 L 2.421875 -6.515625 L 0.28125 -6.515625 L 0.28125 -8.09375 Z M 6.53125 -8.09375 "/></g></g></g><g fill="#444443" fill-opacity="1"><g transform="translate(210.78915, 207.132891)"><g><path d="M 2.65625 -8.09375 L 2.65625 -3.25 C 2.65625 -2.769531 2.769531 -2.394531 3 -2.125 C 3.238281 -1.863281 3.59375 -1.734375 4.0625 -1.734375 C 4.519531 -1.734375 4.867188 -1.863281 5.109375 -2.125 C 5.359375 -2.394531 5.484375 -2.769531 5.484375 -3.25 L 5.484375 -8.09375 L 7.453125 -8.09375 L 7.453125 -3.265625 C 7.453125 -2.535156 7.296875 -1.921875 6.984375 -1.421875 C 6.679688 -0.929688 6.269531 -0.554688 5.75 -0.296875 C 5.238281 -0.046875 4.664062 0.078125 4.03125 0.078125 C 3.382812 0.078125 2.8125 -0.046875 2.3125 -0.296875 C 1.8125 -0.546875 1.414062 -0.921875 1.125 -1.421875 C 0.832031 -1.921875 0.6875 -2.535156 0.6875 -3.265625 L 0.6875 -8.09375 Z M 2.65625 -8.09375 "/></g></g></g><g fill="#444443" fill-opacity="1"><g transform="translate(220.714552, 207.132891)"><g/></g></g><g fill="#444443" fill-opacity="1"><g transform="translate(224.956768, 207.132891)"><g><path d="M 7.71875 -8.09375 L 7.71875 0 L 5.75 0 L 5.75 -3.328125 L 2.6875 -3.328125 L 2.6875 0 L 0.71875 0 L 0.71875 -8.09375 L 2.6875 -8.09375 L 2.6875 -4.921875 L 5.75 -4.921875 L 5.75 -8.09375 Z M 7.71875 -8.09375 "/></g></g></g><g fill="#444443" fill-opacity="1"><g transform="translate(235.181895, 207.132891)"><g><path d="M 4.546875 0.078125 C 3.785156 0.078125 3.085938 -0.0976562 2.453125 -0.453125 C 1.816406 -0.804688 1.3125 -1.300781 0.9375 -1.9375 C 0.5625 -2.570312 0.375 -3.285156 0.375 -4.078125 C 0.375 -4.867188 0.5625 -5.578125 0.9375 -6.203125 C 1.3125 -6.835938 1.816406 -7.328125 2.453125 -7.671875 C 3.085938 -8.023438 3.785156 -8.203125 4.546875 -8.203125 C 5.304688 -8.203125 6.003906 -8.023438 6.640625 -7.671875 C 7.273438 -7.328125 7.773438 -6.835938 8.140625 -6.203125 C 8.503906 -5.578125 8.6875 -4.867188 8.6875 -4.078125 C 8.6875 -3.285156 8.5 -2.570312 8.125 -1.9375 C 7.757812 -1.300781 7.257812 -0.804688 6.625 -0.453125 C 6 -0.0976562 5.304688 0.078125 4.546875 0.078125 Z M 4.546875 -1.71875 C 5.191406 -1.71875 5.707031 -1.929688 6.09375 -2.359375 C 6.476562 -2.796875 6.671875 -3.367188 6.671875 -4.078125 C 6.671875 -4.785156 6.476562 -5.351562 6.09375 -5.78125 C 5.707031 -6.207031 5.191406 -6.421875 4.546875 -6.421875 C 3.890625 -6.421875 3.367188 -6.207031 2.984375 -5.78125 C 2.597656 -5.363281 2.40625 -4.796875 2.40625 -4.078125 C 2.40625 -3.359375 2.597656 -2.785156 2.984375 -2.359375 C 3.367188 -1.929688 3.890625 -1.71875 4.546875 -1.71875 Z M 4.546875 -1.71875 "/></g></g></g><g fill="#444443" fill-opacity="1"><g transform="translate(246.041049, 207.132891)"><g><path d="M 6.09375 -5.53125 C 5.945312 -5.800781 5.734375 -6.003906 5.453125 -6.140625 C 5.179688 -6.285156 4.863281 -6.359375 4.5 -6.359375 C 3.863281 -6.359375 3.351562 -6.148438 2.96875 -5.734375 C 2.582031 -5.316406 2.390625 -4.757812 2.390625 -4.0625 C 2.390625 -3.3125 2.585938 -2.726562 2.984375 -2.3125 C 3.390625 -1.894531 3.945312 -1.6875 4.65625 -1.6875 C 5.144531 -1.6875 5.554688 -1.804688 5.890625 -2.046875 C 6.222656 -2.296875 6.46875 -2.648438 6.625 -3.109375 L 4.109375 -3.109375 L 4.109375 -4.5625 L 8.40625 -4.5625 L 8.40625 -2.734375 C 8.257812 -2.242188 8.007812 -1.785156 7.65625 -1.359375 C 7.3125 -0.929688 6.867188 -0.585938 6.328125 -0.328125 C 5.796875 -0.0664062 5.191406 0.0625 4.515625 0.0625 C 3.710938 0.0625 3 -0.109375 2.375 -0.453125 C 1.75 -0.804688 1.257812 -1.296875 0.90625 -1.921875 C 0.550781 -2.546875 0.375 -3.257812 0.375 -4.0625 C 0.375 -4.863281 0.550781 -5.578125 0.90625 -6.203125 C 1.257812 -6.828125 1.742188 -7.3125 2.359375 -7.65625 C 2.984375 -8.007812 3.695312 -8.1875 4.5 -8.1875 C 5.46875 -8.1875 6.28125 -7.953125 6.9375 -7.484375 C 7.601562 -7.015625 8.046875 -6.363281 8.265625 -5.53125 Z M 6.09375 -5.53125 "/></g></g></g><g fill="#444443" fill-opacity="1"><g transform="translate(256.623528, 207.132891)"><g><path d="M 5.75 -1.4375 L 2.734375 -1.4375 L 2.25 0 L 0.1875 0 L 3.109375 -8.09375 L 5.390625 -8.09375 L 8.328125 0 L 6.234375 0 Z M 5.25 -2.953125 L 4.25 -5.921875 L 3.25 -2.953125 Z M 5.25 -2.953125 "/></g></g></g><g fill="#444443" fill-opacity="1"><g transform="translate(266.917812, 207.132891)"><g><path d="M 4.84375 0 L 3.15625 -3.0625 L 2.6875 -3.0625 L 2.6875 0 L 0.71875 0 L 0.71875 -8.09375 L 4.03125 -8.09375 C 4.664062 -8.09375 5.207031 -7.976562 5.65625 -7.75 C 6.101562 -7.53125 6.4375 -7.226562 6.65625 -6.84375 C 6.882812 -6.457031 7 -6.023438 7 -5.546875 C 7 -5.003906 6.847656 -4.519531 6.546875 -4.09375 C 6.242188 -3.675781 5.796875 -3.378906 5.203125 -3.203125 L 7.0625 0 Z M 2.6875 -4.453125 L 3.90625 -4.453125 C 4.269531 -4.453125 4.539062 -4.539062 4.71875 -4.71875 C 4.90625 -4.894531 5 -5.144531 5 -5.46875 C 5 -5.769531 4.90625 -6.007812 4.71875 -6.1875 C 4.539062 -6.363281 4.269531 -6.453125 3.90625 -6.453125 L 2.6875 -6.453125 Z M 2.6875 -4.453125 "/></g></g></g></svg>