<svg xmlns="http://www.w3.org/2000/svg" xmlns:xlink="http://www.w3.org/1999/xlink" width="500" zoomAndPan="magnify" viewBox="0 0 375 149.999998" height="200" preserveAspectRatio="xMidYMid meet" version="1.0"><defs><g/><clipPath id="87a3ab7c8b"><path d="M 240 11 L 288.910156 11 L 288.910156 53 L 240 53 Z M 240 11 " clip-rule="nonzero"/></clipPath><clipPath id="202b9f9d93"><path d="M 87.160156 41 L 219 41 L 219 75.941406 L 87.160156 75.941406 Z M 87.160156 41 " clip-rule="nonzero"/></clipPath></defs><path fill="#f2f2f2" d="M 262.285156 68.632812 C 261.078125 69.695312 259.238281 70.464844 257.238281 70.730469 C 255.238281 70.996094 253.105469 70.753906 251.410156 70.066406 C 252.972656 70.933594 255.105469 71.390625 257.214844 71.308594 C 259.320312 71.210938 261.378906 70.585938 262.824219 69.585938 C 263.847656 70.257812 265.5 70.523438 266.933594 70.234375 C 268.546875 69.910156 269.257812 69.128906 270.003906 68.273438 C 269.148438 69.054688 267.90625 69.511719 266.414062 69.609375 C 264.886719 69.695312 263.320312 69.332031 262.285156 68.632812 Z M 262.285156 68.632812 " fill-opacity="1" fill-rule="nonzero"/><path fill="#f2f2f2" d="M 268.136719 63.492188 C 266.921875 63.996094 265.292969 63.480469 264.800781 62.261719 C 264.257812 60.925781 265.1875 59.421875 266.304688 58.503906 C 267.425781 57.589844 268.800781 56.964844 269.703125 55.832031 C 264.066406 56.914062 258.1875 56.710938 252.648438 55.21875 C 252.226562 56.503906 253.5625 57.710938 254.839844 58.167969 C 256.117188 58.625 257.621094 58.855469 258.429688 59.9375 C 259.105469 60.828125 259.082031 62.140625 258.503906 63.09375 C 257.925781 64.046875 256.839844 64.648438 255.730469 64.792969 C 254.167969 64.996094 252.527344 64.320312 251.554688 63.082031 C 250.589844 61.839844 250.335938 60.082031 250.914062 58.613281 C 249.554688 61.371094 250.601562 64.417969 252.277344 66.082031 C 253.9375 67.730469 256.539062 67.875 258.886719 67.898438 C 260.972656 67.933594 263.140625 67.945312 265.125 67.394531 L 265.886719 67.164062 C 266.222656 67.066406 266.546875 66.921875 266.847656 66.742188 C 266.859375 66.742188 266.859375 66.742188 266.859375 66.742188 C 268.824219 65.082031 271.085938 63.359375 270.257812 60.371094 C 270.125 61.695312 269.351562 62.984375 268.136719 63.492188 Z M 268.136719 63.492188 " fill-opacity="1" fill-rule="nonzero"/><path fill="#f2f2f2" d="M 271.808594 50.410156 C 271.808594 50.363281 271.808594 50.304688 271.808594 50.253906 L 271.75 50.183594 C 271.773438 50.253906 271.796875 50.328125 271.808594 50.410156 Z M 271.808594 50.410156 " fill-opacity="1" fill-rule="nonzero"/><g clip-path="url(#87a3ab7c8b)"><path fill="#f2f2f2" d="M 273.195312 11.175781 C 268.558594 11.59375 263.824219 13.691406 261.128906 17.386719 C 260.765625 16.929688 260.382812 16.496094 259.960938 16.085938 C 257.394531 13.605469 253.589844 12.246094 249.746094 11.714844 C 246.855469 11.320312 243.871094 11.34375 240.992188 11.8125 C 245.542969 11.96875 250.023438 13.28125 253.722656 15.546875 C 255.203125 16.460938 256.613281 17.570312 257.320312 19.003906 C 258.03125 20.433594 257.925781 22.253906 256.660156 23.375 C 256.191406 23.796875 255.574219 24.109375 255.152344 24.566406 C 254.734375 25.023438 254.5625 25.746094 255.035156 26.167969 C 255.417969 26.515625 256.058594 26.53125 256.585938 26.386719 C 257.117188 26.242188 257.585938 25.964844 258.105469 25.792969 C 259.863281 25.230469 261.957031 26.082031 262.898438 27.46875 C 263.847656 28.839844 263.800781 30.589844 263.199219 32.105469 C 257.515625 46.484375 267.402344 50.820312 270.484375 51.796875 C 271.0625 51.855469 271.558594 52 271.738281 52.410156 L 271.796875 52.472656 C 271.761719 51.027344 270.640625 49.738281 269.460938 48.675781 C 268.246094 47.582031 266.859375 46.546875 266.210938 45.148438 C 265.570312 43.765625 265.742188 42.199219 266.175781 40.753906 C 266.609375 39.308594 267.28125 37.921875 267.65625 36.464844 C 268.316406 33.851562 267.945312 31.117188 267.078125 28.566406 C 266.558594 27.046875 265.886719 25.589844 265.125 24.144531 C 267.210938 24.902344 269.390625 25.410156 271.605469 25.53125 C 274.773438 25.710938 278.035156 25.070312 280.757812 23.433594 C 284.527344 21.171875 286.949219 17.257812 289.226562 13.5 C 283.972656 12.089844 278.601562 10.691406 273.195312 11.175781 Z M 273.195312 11.175781 " fill-opacity="1" fill-rule="nonzero"/></g><path fill="#f2f2f2" d="M 241.148438 35.789062 C 241.449219 33.597656 240.316406 31.285156 238.414062 30.15625 C 236.511719 29.023438 233.945312 29.15625 232.164062 30.46875 C 233.597656 30.179688 235.089844 30.023438 236.472656 30.324219 C 235.367188 30.445312 234.511719 31.382812 234.511719 32.515625 C 234.511719 33.730469 235.5 34.730469 236.726562 34.730469 C 237.945312 34.730469 238.945312 33.742188 238.945312 32.515625 C 238.945312 31.984375 238.761719 31.503906 238.449219 31.117188 C 240.015625 32.140625 241.160156 33.910156 241.148438 35.789062 Z M 236.304688 34.40625 C 235.535156 34.40625 234.910156 33.78125 234.910156 33.007812 C 234.910156 32.238281 235.535156 31.613281 236.304688 31.613281 C 237.078125 31.613281 237.703125 32.238281 237.703125 33.007812 C 237.703125 33.78125 237.078125 34.40625 236.304688 34.40625 Z M 236.304688 34.40625 " fill-opacity="1" fill-rule="nonzero"/><g clip-path="url(#202b9f9d93)"><path fill="#f2f2f2" d="M 206.714844 48.859375 C 203.390625 52.566406 201.523438 56.953125 197.851562 60.3125 C 190.636719 66.910156 180.351562 69.296875 170.585938 68.933594 C 160.816406 68.574219 151.316406 65.753906 141.882812 63.164062 C 132.453125 60.578125 122.796875 58.167969 113.015625 58.625 C 103.25 59.09375 93.203125 62.828125 87.207031 70.546875 C 93.914062 63.972656 103.816406 61.492188 113.207031 61.890625 C 122.589844 62.285156 131.660156 65.25 140.558594 68.273438 C 149.460938 71.285156 158.457031 74.402344 167.8125 75.136719 C 177.171875 75.871094 187.144531 73.933594 194.296875 67.839844 C 198.972656 63.851562 202.125 58.433594 205.667969 53.410156 C 209.113281 48.519531 213.253906 43.75 218.820312 41.609375 C 213.433594 41.65625 209.796875 45.425781 206.714844 48.859375 Z M 206.714844 48.859375 " fill-opacity="1" fill-rule="nonzero"/></g><path fill="#f2f2f2" d="M 218.710938 41.597656 C 218.699219 41.597656 218.6875 41.597656 218.6875 41.597656 C 218.6875 41.582031 218.699219 41.597656 218.710938 41.597656 Z M 218.710938 41.597656 " fill-opacity="1" fill-rule="nonzero"/><path fill="#f2f2f2" d="M 218.6875 41.582031 C 218.566406 41.570312 218.613281 41.582031 218.6875 41.582031 Z M 218.6875 41.582031 " fill-opacity="1" fill-rule="nonzero"/><path fill="#f2f2f2" d="M 236.980469 38.875 C 235.523438 38.875 234.066406 38.679688 232.742188 38.175781 C 230.742188 37.417969 229.066406 35.851562 228.863281 34.007812 C 228.597656 31.648438 230.621094 29.578125 232.511719 27.832031 C 233.742188 26.699219 235.054688 25.519531 236.777344 25.046875 C 238.511719 24.578125 240.761719 25.121094 241.339844 26.589844 C 241.460938 25.300781 240.351562 24.121094 239.027344 23.46875 C 237.703125 22.820312 236.183594 22.554688 234.742188 22.132812 C 233.296875 21.710938 231.835938 21.0625 231.101562 19.917969 C 229.875 18.027344 231.210938 15.535156 233.34375 14.339844 C 235.304688 13.246094 237.726562 12.980469 240.085938 12.8125 C 238.101562 11.921875 235.511719 12.4375 233.414062 13.269531 C 231.128906 14.183594 228.886719 15.449219 226.359375 15.496094 C 225.492188 15.507812 224.613281 15.390625 223.746094 15.472656 C 222.878906 15.570312 221.972656 15.96875 221.710938 16.664062 C 221.636719 16.835938 221.613281 17.003906 221.625 17.171875 C 218.9375 16.0625 215.890625 15.667969 212.988281 15.917969 C 207.582031 16.375 202.523438 18.6875 197.597656 20.976562 C 200.488281 24.289062 203.546875 27.722656 207.65625 29.300781 C 210.617188 30.445312 213.941406 30.503906 217.023438 29.78125 C 220.058594 29.070312 222.890625 27.625 225.453125 25.832031 C 225.417969 26.386719 225.347656 26.9375 225.25 27.480469 C 222.890625 41.355469 226.828125 48.605469 233.332031 57.46875 C 235.753906 60.769531 240.519531 63.730469 244.867188 64.925781 C 242.386719 63.335938 240.535156 60.613281 241.125 58.035156 C 241.414062 56.792969 242.121094 55.625 243.109375 54.6875 C 244.953125 52.941406 246.085938 50.738281 246.207031 48.386719 C 246.398438 44.292969 244.6875 39.957031 236.980469 38.875 Z M 236.980469 38.875 " fill-opacity="1" fill-rule="nonzero"/><g fill="#9da65d" fill-opacity="1"><g transform="translate(28.311811, 115.831638)"><g><path d="M 1.421875 -15.140625 C 1.421875 -18.117188 2.066406 -20.773438 3.359375 -23.109375 C 4.648438 -25.453125 6.445312 -27.273438 8.75 -28.578125 C 11.0625 -29.890625 13.679688 -30.546875 16.609375 -30.546875 C 20.191406 -30.546875 23.257812 -29.597656 25.8125 -27.703125 C 28.363281 -25.804688 30.066406 -23.222656 30.921875 -19.953125 L 22.84375 -19.953125 C 22.238281 -21.222656 21.382812 -22.1875 20.28125 -22.84375 C 19.175781 -23.5 17.921875 -23.828125 16.515625 -23.828125 C 14.253906 -23.828125 12.421875 -23.035156 11.015625 -21.453125 C 9.609375 -19.878906 8.90625 -17.773438 8.90625 -15.140625 C 8.90625 -12.503906 9.609375 -10.394531 11.015625 -8.8125 C 12.421875 -7.238281 14.253906 -6.453125 16.515625 -6.453125 C 17.921875 -6.453125 19.175781 -6.78125 20.28125 -7.4375 C 21.382812 -8.101562 22.238281 -9.066406 22.84375 -10.328125 L 30.921875 -10.328125 C 30.066406 -7.054688 28.363281 -4.476562 25.8125 -2.59375 C 23.257812 -0.71875 20.191406 0.21875 16.609375 0.21875 C 13.679688 0.21875 11.0625 -0.429688 8.75 -1.734375 C 6.445312 -3.046875 4.648438 -4.863281 3.359375 -7.1875 C 2.066406 -9.507812 1.421875 -12.160156 1.421875 -15.140625 Z M 1.421875 -15.140625 "/></g></g></g><g fill="#9da65d" fill-opacity="1"><g transform="translate(61.075373, 115.831638)"><g><path d="M 1.203125 -12.046875 C 1.203125 -14.515625 1.664062 -16.675781 2.59375 -18.53125 C 3.53125 -20.394531 4.800781 -21.828125 6.40625 -22.828125 C 8.007812 -23.835938 9.800781 -24.34375 11.78125 -24.34375 C 13.476562 -24.34375 14.960938 -24 16.234375 -23.3125 C 17.515625 -22.625 18.5 -21.722656 19.1875 -20.609375 L 19.1875 -24 L 26.546875 -24 L 26.546875 0 L 19.1875 0 L 19.1875 -3.390625 C 18.46875 -2.273438 17.46875 -1.375 16.1875 -0.6875 C 14.914062 0 13.4375 0.34375 11.75 0.34375 C 9.789062 0.34375 8.007812 -0.160156 6.40625 -1.171875 C 4.800781 -2.191406 3.53125 -3.640625 2.59375 -5.515625 C 1.664062 -7.398438 1.203125 -9.578125 1.203125 -12.046875 Z M 19.1875 -12 C 19.1875 -13.832031 18.675781 -15.28125 17.65625 -16.34375 C 16.632812 -17.40625 15.394531 -17.9375 13.9375 -17.9375 C 12.476562 -17.9375 11.238281 -17.410156 10.21875 -16.359375 C 9.195312 -15.316406 8.6875 -13.878906 8.6875 -12.046875 C 8.6875 -10.210938 9.195312 -8.753906 10.21875 -7.671875 C 11.238281 -6.597656 12.476562 -6.0625 13.9375 -6.0625 C 15.394531 -6.0625 16.632812 -6.59375 17.65625 -7.65625 C 18.675781 -8.71875 19.1875 -10.164062 19.1875 -12 Z M 19.1875 -12 "/></g></g></g><g fill="#9da65d" fill-opacity="1"><g transform="translate(90.270198, 115.831638)"><g><path d="M 33.296875 -24.265625 C 36.273438 -24.265625 38.644531 -23.359375 40.40625 -21.546875 C 42.175781 -19.742188 43.0625 -17.234375 43.0625 -14.015625 L 43.0625 0 L 35.75 0 L 35.75 -13.03125 C 35.75 -14.582031 35.335938 -15.78125 34.515625 -16.625 C 33.703125 -17.46875 32.578125 -17.890625 31.140625 -17.890625 C 29.710938 -17.890625 28.585938 -17.46875 27.765625 -16.625 C 26.953125 -15.78125 26.546875 -14.582031 26.546875 -13.03125 L 26.546875 0 L 19.234375 0 L 19.234375 -13.03125 C 19.234375 -14.582031 18.820312 -15.78125 18 -16.625 C 17.1875 -17.46875 16.0625 -17.890625 14.625 -17.890625 C 13.1875 -17.890625 12.054688 -17.46875 11.234375 -16.625 C 10.421875 -15.78125 10.015625 -14.582031 10.015625 -13.03125 L 10.015625 0 L 2.671875 0 L 2.671875 -24 L 10.015625 -24 L 10.015625 -20.984375 C 10.765625 -21.992188 11.738281 -22.789062 12.9375 -23.375 C 14.144531 -23.96875 15.507812 -24.265625 17.03125 -24.265625 C 18.84375 -24.265625 20.457031 -23.875 21.875 -23.09375 C 23.289062 -22.320312 24.398438 -21.21875 25.203125 -19.78125 C 26.035156 -21.101562 27.164062 -22.179688 28.59375 -23.015625 C 30.03125 -23.847656 31.597656 -24.265625 33.296875 -24.265625 Z M 33.296875 -24.265625 "/></g></g></g><g fill="#9da65d" fill-opacity="1"><g transform="translate(135.803813, 115.831638)"><g><path d="M 10.015625 -20.609375 C 10.734375 -21.722656 11.722656 -22.625 12.984375 -23.3125 C 14.253906 -24 15.734375 -24.34375 17.421875 -24.34375 C 19.398438 -24.34375 21.191406 -23.835938 22.796875 -22.828125 C 24.398438 -21.828125 25.664062 -20.394531 26.59375 -18.53125 C 27.53125 -16.675781 28 -14.515625 28 -12.046875 C 28 -9.578125 27.53125 -7.398438 26.59375 -5.515625 C 25.664062 -3.640625 24.398438 -2.191406 22.796875 -1.171875 C 21.191406 -0.160156 19.398438 0.34375 17.421875 0.34375 C 15.753906 0.34375 14.28125 0 13 -0.6875 C 11.726562 -1.375 10.734375 -2.265625 10.015625 -3.359375 L 10.015625 11.4375 L 2.671875 11.4375 L 2.671875 -24 L 10.015625 -24 Z M 20.515625 -12.046875 C 20.515625 -13.878906 20.003906 -15.316406 18.984375 -16.359375 C 17.972656 -17.410156 16.722656 -17.9375 15.234375 -17.9375 C 13.765625 -17.9375 12.519531 -17.40625 11.5 -16.34375 C 10.488281 -15.28125 9.984375 -13.832031 9.984375 -12 C 9.984375 -10.164062 10.488281 -8.71875 11.5 -7.65625 C 12.519531 -6.59375 13.765625 -6.0625 15.234375 -6.0625 C 16.691406 -6.0625 17.9375 -6.597656 18.96875 -7.671875 C 20 -8.753906 20.515625 -10.210938 20.515625 -12.046875 Z M 20.515625 -12.046875 "/></g></g></g><g fill="#9da65d" fill-opacity="1"><g transform="translate(164.998637, 115.831638)"><g><path d="M 13.59375 0.34375 C 11.238281 0.34375 9.125 -0.15625 7.25 -1.15625 C 5.375 -2.164062 3.894531 -3.601562 2.8125 -5.46875 C 1.738281 -7.332031 1.203125 -9.507812 1.203125 -12 C 1.203125 -14.46875 1.742188 -16.640625 2.828125 -18.515625 C 3.921875 -20.390625 5.414062 -21.828125 7.3125 -22.828125 C 9.207031 -23.835938 11.328125 -24.34375 13.671875 -24.34375 C 16.023438 -24.34375 18.148438 -23.835938 20.046875 -22.828125 C 21.941406 -21.828125 23.429688 -20.390625 24.515625 -18.515625 C 25.609375 -16.640625 26.15625 -14.46875 26.15625 -12 C 26.15625 -9.53125 25.601562 -7.359375 24.5 -5.484375 C 23.394531 -3.609375 21.890625 -2.164062 19.984375 -1.15625 C 18.078125 -0.15625 15.945312 0.34375 13.59375 0.34375 Z M 13.59375 -6.015625 C 15 -6.015625 16.195312 -6.53125 17.1875 -7.5625 C 18.175781 -8.601562 18.671875 -10.082031 18.671875 -12 C 18.671875 -13.925781 18.1875 -15.40625 17.21875 -16.4375 C 16.257812 -17.46875 15.078125 -17.984375 13.671875 -17.984375 C 12.242188 -17.984375 11.054688 -17.472656 10.109375 -16.453125 C 9.160156 -15.429688 8.6875 -13.945312 8.6875 -12 C 8.6875 -10.082031 9.148438 -8.601562 10.078125 -7.5625 C 11.015625 -6.53125 12.1875 -6.015625 13.59375 -6.015625 Z M 13.59375 -6.015625 "/></g></g></g><g fill="#9da65d" fill-opacity="1"><g transform="translate(192.387598, 115.831638)"><g/></g></g><g fill="#9da65d" fill-opacity="1"><g transform="translate(201.502916, 115.831638)"><g><path d="M 13.984375 -30.203125 C 17.160156 -30.203125 19.9375 -29.566406 22.3125 -28.296875 C 24.695312 -27.035156 26.539062 -25.265625 27.84375 -22.984375 C 29.15625 -20.710938 29.8125 -18.082031 29.8125 -15.09375 C 29.8125 -12.144531 29.15625 -9.519531 27.84375 -7.21875 C 26.539062 -4.925781 24.691406 -3.148438 22.296875 -1.890625 C 19.910156 -0.628906 17.140625 0 13.984375 0 L 2.671875 0 L 2.671875 -30.203125 Z M 13.5 -6.359375 C 16.28125 -6.359375 18.445312 -7.117188 20 -8.640625 C 21.550781 -10.160156 22.328125 -12.3125 22.328125 -15.09375 C 22.328125 -17.875 21.550781 -20.039062 20 -21.59375 C 18.445312 -23.144531 16.28125 -23.921875 13.5 -23.921875 L 10.015625 -23.921875 L 10.015625 -6.359375 Z M 13.5 -6.359375 "/></g></g></g><g fill="#9da65d" fill-opacity="1"><g transform="translate(232.761584, 115.831638)"><g><path d="M 6.359375 -26.5 C 5.078125 -26.5 4.023438 -26.878906 3.203125 -27.640625 C 2.390625 -28.398438 1.984375 -29.335938 1.984375 -30.453125 C 1.984375 -31.597656 2.390625 -32.550781 3.203125 -33.3125 C 4.023438 -34.070312 5.078125 -34.453125 6.359375 -34.453125 C 7.628906 -34.453125 8.671875 -34.070312 9.484375 -33.3125 C 10.296875 -32.550781 10.703125 -31.597656 10.703125 -30.453125 C 10.703125 -29.335938 10.296875 -28.398438 9.484375 -27.640625 C 8.671875 -26.878906 7.628906 -26.5 6.359375 -26.5 Z M 10.015625 -24 L 10.015625 0 L 2.671875 0 L 2.671875 -24 Z M 10.015625 -24 "/></g></g></g><g fill="#9da65d" fill-opacity="1"><g transform="translate(245.445639, 115.831638)"><g><path d="M 11.78125 -24.34375 C 13.476562 -24.34375 14.960938 -24 16.234375 -23.3125 C 17.515625 -22.625 18.5 -21.722656 19.1875 -20.609375 L 19.1875 -24 L 26.546875 -24 L 26.546875 -0.046875 C 26.546875 2.160156 26.109375 4.160156 25.234375 5.953125 C 24.359375 7.742188 23.023438 9.171875 21.234375 10.234375 C 19.441406 11.296875 17.210938 11.828125 14.546875 11.828125 C 10.984375 11.828125 8.097656 10.988281 5.890625 9.3125 C 3.679688 7.632812 2.421875 5.363281 2.109375 2.5 L 9.375 2.5 C 9.601562 3.414062 10.144531 4.140625 11 4.671875 C 11.863281 5.203125 12.925781 5.46875 14.1875 5.46875 C 15.707031 5.46875 16.921875 5.03125 17.828125 4.15625 C 18.734375 3.28125 19.1875 1.878906 19.1875 -0.046875 L 19.1875 -3.4375 C 18.46875 -2.320312 17.476562 -1.410156 16.21875 -0.703125 C 14.957031 -0.00390625 13.476562 0.34375 11.78125 0.34375 C 9.800781 0.34375 8.007812 -0.160156 6.40625 -1.171875 C 4.800781 -2.191406 3.53125 -3.640625 2.59375 -5.515625 C 1.664062 -7.398438 1.203125 -9.578125 1.203125 -12.046875 C 1.203125 -14.515625 1.664062 -16.675781 2.59375 -18.53125 C 3.53125 -20.394531 4.800781 -21.828125 6.40625 -22.828125 C 8.007812 -23.835938 9.800781 -24.34375 11.78125 -24.34375 Z M 19.1875 -12 C 19.1875 -13.832031 18.675781 -15.28125 17.65625 -16.34375 C 16.632812 -17.40625 15.394531 -17.9375 13.9375 -17.9375 C 12.476562 -17.9375 11.238281 -17.410156 10.21875 -16.359375 C 9.195312 -15.316406 8.6875 -13.878906 8.6875 -12.046875 C 8.6875 -10.210938 9.195312 -8.753906 10.21875 -7.671875 C 11.238281 -6.597656 12.476562 -6.0625 13.9375 -6.0625 C 15.394531 -6.0625 16.632812 -6.59375 17.65625 -7.65625 C 18.675781 -8.71875 19.1875 -10.164062 19.1875 -12 Z M 19.1875 -12 "/></g></g></g><g fill="#9da65d" fill-opacity="1"><g transform="translate(274.640464, 115.831638)"><g><path d="M 6.359375 -26.5 C 5.078125 -26.5 4.023438 -26.878906 3.203125 -27.640625 C 2.390625 -28.398438 1.984375 -29.335938 1.984375 -30.453125 C 1.984375 -31.597656 2.390625 -32.550781 3.203125 -33.3125 C 4.023438 -34.070312 5.078125 -34.453125 6.359375 -34.453125 C 7.628906 -34.453125 8.671875 -34.070312 9.484375 -33.3125 C 10.296875 -32.550781 10.703125 -31.597656 10.703125 -30.453125 C 10.703125 -29.335938 10.296875 -28.398438 9.484375 -27.640625 C 8.671875 -26.878906 7.628906 -26.5 6.359375 -26.5 Z M 10.015625 -24 L 10.015625 0 L 2.671875 0 L 2.671875 -24 Z M 10.015625 -24 "/></g></g></g><g fill="#9da65d" fill-opacity="1"><g transform="translate(287.324503, 115.831638)"><g><path d="M 16.046875 -6.234375 L 16.046875 0 L 12.296875 0 C 9.628906 0 7.550781 -0.648438 6.0625 -1.953125 C 4.570312 -3.265625 3.828125 -5.394531 3.828125 -8.34375 L 3.828125 -17.890625 L 0.90625 -17.890625 L 0.90625 -24 L 3.828125 -24 L 3.828125 -29.859375 L 11.1875 -29.859375 L 11.1875 -24 L 16 -24 L 16 -17.890625 L 11.1875 -17.890625 L 11.1875 -8.265625 C 11.1875 -7.546875 11.359375 -7.023438 11.703125 -6.703125 C 12.046875 -6.390625 12.617188 -6.234375 13.421875 -6.234375 Z M 16.046875 -6.234375 "/></g></g></g><g fill="#9da65d" fill-opacity="1"><g transform="translate(304.781204, 115.831638)"><g><path d="M 1.203125 -12.046875 C 1.203125 -14.515625 1.664062 -16.675781 2.59375 -18.53125 C 3.53125 -20.394531 4.800781 -21.828125 6.40625 -22.828125 C 8.007812 -23.835938 9.800781 -24.34375 11.78125 -24.34375 C 13.476562 -24.34375 14.960938 -24 16.234375 -23.3125 C 17.515625 -22.625 18.5 -21.722656 19.1875 -20.609375 L 19.1875 -24 L 26.546875 -24 L 26.546875 0 L 19.1875 0 L 19.1875 -3.390625 C 18.46875 -2.273438 17.46875 -1.375 16.1875 -0.6875 C 14.914062 0 13.4375 0.34375 11.75 0.34375 C 9.789062 0.34375 8.007812 -0.160156 6.40625 -1.171875 C 4.800781 -2.191406 3.53125 -3.640625 2.59375 -5.515625 C 1.664062 -7.398438 1.203125 -9.578125 1.203125 -12.046875 Z M 19.1875 -12 C 19.1875 -13.832031 18.675781 -15.28125 17.65625 -16.34375 C 16.632812 -17.40625 15.394531 -17.9375 13.9375 -17.9375 C 12.476562 -17.9375 11.238281 -17.410156 10.21875 -16.359375 C 9.195312 -15.316406 8.6875 -13.878906 8.6875 -12.046875 C 8.6875 -10.210938 9.195312 -8.753906 10.21875 -7.671875 C 11.238281 -6.597656 12.476562 -6.0625 13.9375 -6.0625 C 15.394531 -6.0625 16.632812 -6.59375 17.65625 -7.65625 C 18.675781 -8.71875 19.1875 -10.164062 19.1875 -12 Z M 19.1875 -12 "/></g></g></g><g fill="#9da65d" fill-opacity="1"><g transform="translate(333.976029, 115.831638)"><g><path d="M 10.015625 -31.828125 L 10.015625 0 L 2.671875 0 L 2.671875 -31.828125 Z M 10.015625 -31.828125 "/></g></g></g><g fill="#f2f2f2" fill-opacity="1"><g transform="translate(102.246319, 135.787386)"><g><path d="M 3.625 -7.828125 C 4.445312 -7.828125 5.164062 -7.660156 5.78125 -7.328125 C 6.394531 -7.003906 6.867188 -6.546875 7.203125 -5.953125 C 7.546875 -5.359375 7.71875 -4.675781 7.71875 -3.90625 C 7.71875 -3.144531 7.546875 -2.46875 7.203125 -1.875 C 6.867188 -1.28125 6.390625 -0.816406 5.765625 -0.484375 C 5.148438 -0.160156 4.4375 0 3.625 0 L 0.6875 0 L 0.6875 -7.828125 Z M 3.5 -1.65625 C 4.21875 -1.65625 4.773438 -1.847656 5.171875 -2.234375 C 5.578125 -2.628906 5.78125 -3.1875 5.78125 -3.90625 C 5.78125 -4.625 5.578125 -5.179688 5.171875 -5.578125 C 4.773438 -5.984375 4.21875 -6.1875 3.5 -6.1875 L 2.59375 -6.1875 L 2.59375 -1.65625 Z M 3.5 -1.65625 "/></g></g></g><g fill="#f2f2f2" fill-opacity="1"><g transform="translate(112.211242, 135.787386)"><g><path d="M 2.59375 -6.296875 L 2.59375 -4.71875 L 5.140625 -4.71875 L 5.140625 -3.234375 L 2.59375 -3.234375 L 2.59375 -1.53125 L 5.484375 -1.53125 L 5.484375 0 L 0.6875 0 L 0.6875 -7.828125 L 5.484375 -7.828125 L 5.484375 -6.296875 Z M 2.59375 -6.296875 "/></g></g></g><g fill="#f2f2f2" fill-opacity="1"><g transform="translate(120.105244, 135.787386)"><g><path d="M 2.59375 -1.46875 L 5.09375 -1.46875 L 5.09375 0 L 0.6875 0 L 0.6875 -7.828125 L 2.59375 -7.828125 Z M 2.59375 -1.46875 "/></g></g></g><g fill="#f2f2f2" fill-opacity="1"><g transform="translate(127.286671, 135.787386)"><g/></g></g><g fill="#f2f2f2" fill-opacity="1"><g transform="translate(131.517583, 135.787386)"><g><path d="M 0.375 -3.921875 C 0.375 -4.691406 0.539062 -5.378906 0.875 -5.984375 C 1.207031 -6.585938 1.671875 -7.054688 2.265625 -7.390625 C 2.859375 -7.734375 3.535156 -7.90625 4.296875 -7.90625 C 5.222656 -7.90625 6.015625 -7.660156 6.671875 -7.171875 C 7.335938 -6.679688 7.785156 -6.015625 8.015625 -5.171875 L 5.921875 -5.171875 C 5.765625 -5.492188 5.539062 -5.738281 5.25 -5.90625 C 4.96875 -6.082031 4.644531 -6.171875 4.28125 -6.171875 C 3.6875 -6.171875 3.207031 -5.96875 2.84375 -5.5625 C 2.488281 -5.15625 2.3125 -4.609375 2.3125 -3.921875 C 2.3125 -3.234375 2.488281 -2.6875 2.84375 -2.28125 C 3.207031 -1.875 3.6875 -1.671875 4.28125 -1.671875 C 4.644531 -1.671875 4.96875 -1.753906 5.25 -1.921875 C 5.539062 -2.097656 5.765625 -2.347656 5.921875 -2.671875 L 8.015625 -2.671875 C 7.785156 -1.828125 7.335938 -1.160156 6.671875 -0.671875 C 6.015625 -0.179688 5.222656 0.0625 4.296875 0.0625 C 3.535156 0.0625 2.859375 -0.101562 2.265625 -0.4375 C 1.671875 -0.78125 1.207031 -1.253906 0.875 -1.859375 C 0.539062 -2.460938 0.375 -3.148438 0.375 -3.921875 Z M 0.375 -3.921875 "/></g></g></g><g fill="#f2f2f2" fill-opacity="1"><g transform="translate(141.872191, 135.787386)"><g><path d="M 5.5625 -1.375 L 2.640625 -1.375 L 2.171875 0 L 0.171875 0 L 3.015625 -7.828125 L 5.21875 -7.828125 L 8.046875 0 L 6.03125 0 Z M 5.0625 -2.859375 L 4.09375 -5.71875 L 3.140625 -2.859375 Z M 5.0625 -2.859375 "/></g></g></g><g fill="#f2f2f2" fill-opacity="1"><g transform="translate(151.948447, 135.787386)"><g><path d="M 9.546875 -7.828125 L 9.546875 0 L 7.640625 0 L 7.640625 -4.6875 L 5.890625 0 L 4.359375 0 L 2.59375 -4.703125 L 2.59375 0 L 0.6875 0 L 0.6875 -7.828125 L 2.9375 -7.828125 L 5.140625 -2.40625 L 7.3125 -7.828125 Z M 9.546875 -7.828125 "/></g></g></g><g fill="#f2f2f2" fill-opacity="1"><g transform="translate(164.039974, 135.787386)"><g><path d="M 6.65625 -5.296875 C 6.65625 -4.847656 6.550781 -4.4375 6.34375 -4.0625 C 6.132812 -3.6875 5.8125 -3.382812 5.375 -3.15625 C 4.945312 -2.925781 4.414062 -2.8125 3.78125 -2.8125 L 2.59375 -2.8125 L 2.59375 0 L 0.6875 0 L 0.6875 -7.828125 L 3.78125 -7.828125 C 4.40625 -7.828125 4.929688 -7.71875 5.359375 -7.5 C 5.785156 -7.28125 6.109375 -6.976562 6.328125 -6.59375 C 6.546875 -6.21875 6.65625 -5.785156 6.65625 -5.296875 Z M 3.625 -4.328125 C 3.988281 -4.328125 4.257812 -4.410156 4.4375 -4.578125 C 4.625 -4.742188 4.71875 -4.984375 4.71875 -5.296875 C 4.71875 -5.609375 4.625 -5.847656 4.4375 -6.015625 C 4.257812 -6.191406 3.988281 -6.28125 3.625 -6.28125 L 2.59375 -6.28125 L 2.59375 -4.328125 Z M 3.625 -4.328125 "/></g></g></g><g fill="#f2f2f2" fill-opacity="1"><g transform="translate(172.858094, 135.787386)"><g><path d="M 4.390625 0.078125 C 3.648438 0.078125 2.972656 -0.09375 2.359375 -0.4375 C 1.753906 -0.78125 1.269531 -1.253906 0.90625 -1.859375 C 0.550781 -2.472656 0.375 -3.164062 0.375 -3.9375 C 0.375 -4.695312 0.550781 -5.378906 0.90625 -5.984375 C 1.269531 -6.597656 1.753906 -7.078125 2.359375 -7.421875 C 2.972656 -7.765625 3.648438 -7.9375 4.390625 -7.9375 C 5.128906 -7.9375 5.800781 -7.765625 6.40625 -7.421875 C 7.019531 -7.078125 7.503906 -6.597656 7.859375 -5.984375 C 8.210938 -5.378906 8.390625 -4.695312 8.390625 -3.9375 C 8.390625 -3.164062 8.207031 -2.472656 7.84375 -1.859375 C 7.488281 -1.253906 7.007812 -0.78125 6.40625 -0.4375 C 5.800781 -0.09375 5.128906 0.078125 4.390625 0.078125 Z M 4.390625 -1.65625 C 5.015625 -1.65625 5.515625 -1.863281 5.890625 -2.28125 C 6.265625 -2.695312 6.453125 -3.25 6.453125 -3.9375 C 6.453125 -4.625 6.265625 -5.171875 5.890625 -5.578125 C 5.515625 -5.992188 5.015625 -6.203125 4.390625 -6.203125 C 3.753906 -6.203125 3.25 -6 2.875 -5.59375 C 2.5 -5.1875 2.3125 -4.632812 2.3125 -3.9375 C 2.3125 -3.238281 2.5 -2.679688 2.875 -2.265625 C 3.25 -1.859375 3.753906 -1.65625 4.390625 -1.65625 Z M 4.390625 -1.65625 "/></g></g></g><g fill="#f2f2f2" fill-opacity="1"><g transform="translate(183.479925, 135.787386)"><g/></g></g><g fill="#f2f2f2" fill-opacity="1"><g transform="translate(187.710837, 135.787386)"><g><path d="M 5.5625 -1.375 L 2.640625 -1.375 L 2.171875 0 L 0.171875 0 L 3.015625 -7.828125 L 5.21875 -7.828125 L 8.046875 0 L 6.03125 0 Z M 5.0625 -2.859375 L 4.09375 -5.71875 L 3.140625 -2.859375 Z M 5.0625 -2.859375 "/></g></g></g><g fill="#f2f2f2" fill-opacity="1"><g transform="translate(197.787093, 135.787386)"><g/></g></g><g fill="#f2f2f2" fill-opacity="1"><g transform="translate(202.018005, 135.787386)"><g><path d="M 6.3125 -7.828125 L 6.3125 -6.296875 L 4.25 -6.296875 L 4.25 0 L 2.34375 0 L 2.34375 -6.296875 L 0.265625 -6.296875 L 0.265625 -7.828125 Z M 6.3125 -7.828125 "/></g></g></g><g fill="#f2f2f2" fill-opacity="1"><g transform="translate(210.468709, 135.787386)"><g><path d="M 2.5625 -7.828125 L 2.5625 -3.140625 C 2.5625 -2.671875 2.675781 -2.3125 2.90625 -2.0625 C 3.132812 -1.8125 3.472656 -1.6875 3.921875 -1.6875 C 4.367188 -1.6875 4.707031 -1.8125 4.9375 -2.0625 C 5.175781 -2.3125 5.296875 -2.671875 5.296875 -3.140625 L 5.296875 -7.828125 L 7.203125 -7.828125 L 7.203125 -3.15625 C 7.203125 -2.457031 7.050781 -1.863281 6.75 -1.375 C 6.457031 -0.894531 6.0625 -0.53125 5.5625 -0.28125 C 5.0625 -0.0390625 4.503906 0.078125 3.890625 0.078125 C 3.273438 0.078125 2.722656 -0.0390625 2.234375 -0.28125 C 1.742188 -0.519531 1.359375 -0.882812 1.078125 -1.375 C 0.796875 -1.863281 0.65625 -2.457031 0.65625 -3.15625 L 0.65625 -7.828125 Z M 2.5625 -7.828125 "/></g></g></g><g fill="#f2f2f2" fill-opacity="1"><g transform="translate(220.188677, 135.787386)"><g/></g></g><g fill="#f2f2f2" fill-opacity="1"><g transform="translate(224.419589, 135.787386)"><g><path d="M 7.46875 -7.828125 L 7.46875 0 L 5.5625 0 L 5.5625 -3.21875 L 2.59375 -3.21875 L 2.59375 0 L 0.6875 0 L 0.6875 -7.828125 L 2.59375 -7.828125 L 2.59375 -4.75 L 5.5625 -4.75 L 5.5625 -7.828125 Z M 7.46875 -7.828125 "/></g></g></g><g fill="#f2f2f2" fill-opacity="1"><g transform="translate(234.429058, 135.787386)"><g><path d="M 4.390625 0.078125 C 3.648438 0.078125 2.972656 -0.09375 2.359375 -0.4375 C 1.753906 -0.78125 1.269531 -1.253906 0.90625 -1.859375 C 0.550781 -2.472656 0.375 -3.164062 0.375 -3.9375 C 0.375 -4.695312 0.550781 -5.378906 0.90625 -5.984375 C 1.269531 -6.597656 1.753906 -7.078125 2.359375 -7.421875 C 2.972656 -7.765625 3.648438 -7.9375 4.390625 -7.9375 C 5.128906 -7.9375 5.800781 -7.765625 6.40625 -7.421875 C 7.019531 -7.078125 7.503906 -6.597656 7.859375 -5.984375 C 8.210938 -5.378906 8.390625 -4.695312 8.390625 -3.9375 C 8.390625 -3.164062 8.207031 -2.472656 7.84375 -1.859375 C 7.488281 -1.253906 7.007812 -0.78125 6.40625 -0.4375 C 5.800781 -0.09375 5.128906 0.078125 4.390625 0.078125 Z M 4.390625 -1.65625 C 5.015625 -1.65625 5.515625 -1.863281 5.890625 -2.28125 C 6.265625 -2.695312 6.453125 -3.25 6.453125 -3.9375 C 6.453125 -4.625 6.265625 -5.171875 5.890625 -5.578125 C 5.515625 -5.992188 5.015625 -6.203125 4.390625 -6.203125 C 3.753906 -6.203125 3.25 -6 2.875 -5.59375 C 2.5 -5.1875 2.3125 -4.632812 2.3125 -3.9375 C 2.3125 -3.238281 2.5 -2.679688 2.875 -2.265625 C 3.25 -1.859375 3.753906 -1.65625 4.390625 -1.65625 Z M 4.390625 -1.65625 "/></g></g></g><g fill="#f2f2f2" fill-opacity="1"><g transform="translate(245.050895, 135.787386)"><g><path d="M 5.875 -5.34375 C 5.738281 -5.601562 5.535156 -5.800781 5.265625 -5.9375 C 5.003906 -6.082031 4.695312 -6.15625 4.34375 -6.15625 C 3.726562 -6.15625 3.234375 -5.953125 2.859375 -5.546875 C 2.492188 -5.140625 2.3125 -4.597656 2.3125 -3.921875 C 2.3125 -3.203125 2.503906 -2.640625 2.890625 -2.234375 C 3.273438 -1.828125 3.8125 -1.625 4.5 -1.625 C 4.96875 -1.625 5.363281 -1.742188 5.6875 -1.984375 C 6.007812 -2.222656 6.242188 -2.566406 6.390625 -3.015625 L 3.984375 -3.015625 L 3.984375 -4.40625 L 8.125 -4.40625 L 8.125 -2.640625 C 7.976562 -2.160156 7.734375 -1.71875 7.390625 -1.3125 C 7.054688 -0.90625 6.628906 -0.570312 6.109375 -0.3125 C 5.597656 -0.0625 5.015625 0.0625 4.359375 0.0625 C 3.585938 0.0625 2.894531 -0.101562 2.28125 -0.4375 C 1.675781 -0.78125 1.207031 -1.253906 0.875 -1.859375 C 0.539062 -2.460938 0.375 -3.148438 0.375 -3.921875 C 0.375 -4.691406 0.539062 -5.378906 0.875 -5.984375 C 1.207031 -6.585938 1.675781 -7.054688 2.28125 -7.390625 C 2.882812 -7.734375 3.570312 -7.90625 4.34375 -7.90625 C 5.28125 -7.90625 6.066406 -7.675781 6.703125 -7.21875 C 7.347656 -6.769531 7.773438 -6.144531 7.984375 -5.34375 Z M 5.875 -5.34375 "/></g></g></g><g fill="#f2f2f2" fill-opacity="1"><g transform="translate(255.40551, 135.787386)"><g><path d="M 5.5625 -1.375 L 2.640625 -1.375 L 2.171875 0 L 0.171875 0 L 3.015625 -7.828125 L 5.21875 -7.828125 L 8.046875 0 L 6.03125 0 Z M 5.0625 -2.859375 L 4.09375 -5.71875 L 3.140625 -2.859375 Z M 5.0625 -2.859375 "/></g></g></g><g fill="#f2f2f2" fill-opacity="1"><g transform="translate(265.481773, 135.787386)"><g><path d="M 4.671875 0 L 3.046875 -2.953125 L 2.59375 -2.953125 L 2.59375 0 L 0.6875 0 L 0.6875 -7.828125 L 3.890625 -7.828125 C 4.503906 -7.828125 5.023438 -7.71875 5.453125 -7.5 C 5.890625 -7.28125 6.21875 -6.984375 6.4375 -6.609375 C 6.65625 -6.234375 6.765625 -5.816406 6.765625 -5.359375 C 6.765625 -4.835938 6.613281 -4.375 6.3125 -3.96875 C 6.019531 -3.5625 5.59375 -3.269531 5.03125 -3.09375 L 6.828125 0 Z M 2.59375 -4.296875 L 3.78125 -4.296875 C 4.125 -4.296875 4.382812 -4.378906 4.5625 -4.546875 C 4.738281 -4.722656 4.828125 -4.96875 4.828125 -5.28125 C 4.828125 -5.570312 4.738281 -5.800781 4.5625 -5.96875 C 4.382812 -6.144531 4.125 -6.234375 3.78125 -6.234375 L 2.59375 -6.234375 Z M 2.59375 -4.296875 "/></g></g></g></svg>