<svg xmlns="http://www.w3.org/2000/svg" xmlns:xlink="http://www.w3.org/1999/xlink" width="756" zoomAndPan="magnify" viewBox="0 0 567 495.749986" height="661" preserveAspectRatio="xMidYMid meet" version="1.0"><defs><clipPath id="f4a6bbdde8"><path d="M 95 103 L 500.800781 103 L 500.800781 491.917969 L 95 491.917969 Z M 95 103 " clip-rule="nonzero"/></clipPath><clipPath id="f8af9fa20a"><path d="M 196 3.914062 L 401 3.914062 L 401 187 L 196 187 Z M 196 3.914062 " clip-rule="nonzero"/></clipPath></defs><g clip-path="url(#f4a6bbdde8)"><path fill="#ffffff" d="M 470.648438 491.976562 L 125.820312 491.976562 C 117.449219 491.976562 109.320312 488.484375 103.582031 482.398438 C 97.824219 476.3125 94.78125 468.023438 95.25 459.652344 L 113.40625 132.914062 C 114.304688 116.679688 127.71875 103.976562 143.976562 103.976562 L 452.496094 103.976562 C 468.75 103.976562 482.167969 116.679688 483.066406 132.914062 L 501.21875 459.652344 C 501.691406 468.023438 498.648438 476.3125 492.890625 482.398438 C 487.128906 488.484375 479.023438 491.976562 470.648438 491.976562 Z M 143.976562 124.398438 C 138.5625 124.398438 134.070312 128.644531 133.785156 134.039062 L 115.628906 460.773438 C 115.488281 463.613281 116.46875 466.308594 118.40625 468.371094 C 120.367188 470.414062 122.980469 471.554688 125.820312 471.554688 L 470.648438 471.554688 C 473.488281 471.554688 476.125 470.414062 478.0625 468.371094 C 480.003906 466.308594 481.003906 463.613281 480.839844 460.773438 L 462.6875 134.039062 C 462.398438 128.644531 457.90625 124.398438 452.496094 124.398438 Z M 143.976562 124.398438 " fill-opacity="1" fill-rule="nonzero"/></g><g clip-path="url(#f8af9fa20a)"><path fill="#ffffff" d="M 390.128906 186.152344 C 384.492188 186.152344 379.917969 181.578125 379.917969 175.941406 L 379.917969 105.855469 C 379.917969 60.808594 343.285156 24.171875 298.234375 24.171875 C 253.1875 24.171875 216.550781 60.808594 216.550781 105.855469 L 216.550781 175.941406 C 216.550781 181.578125 211.976562 186.152344 206.339844 186.152344 C 200.703125 186.152344 196.128906 181.578125 196.128906 175.941406 L 196.128906 105.855469 C 196.128906 49.554688 241.933594 3.75 298.234375 3.75 C 354.535156 3.75 400.339844 49.554688 400.339844 105.855469 L 400.339844 175.941406 C 400.339844 181.578125 395.765625 186.152344 390.128906 186.152344 Z M 390.128906 186.152344 " fill-opacity="1" fill-rule="nonzero"/></g></svg>