<svg xmlns="http://www.w3.org/2000/svg" xmlns:xlink="http://www.w3.org/1999/xlink" width="309" zoomAndPan="magnify" viewBox="0 0 231.75 262.499992" height="350" preserveAspectRatio="xMidYMid meet" version="1.0"><defs><clipPath id="42a581e60b"><path d="M 0.09375 0 L 231 0 L 231 261.253906 L 0.09375 261.253906 Z M 0.09375 0 " clip-rule="nonzero"/></clipPath></defs><g clip-path="url(#42a581e60b)"><path fill="#b58c7f" d="M 229.992188 136.738281 C 228.777344 176.433594 214.4375 235.984375 213.804688 238.59375 C 214.355469 240.398438 218.117188 252.839844 217.503906 254.804688 C 217.074219 256.1875 198.816406 259.347656 177.128906 260.632812 C 170.878906 261.003906 163.71875 261.261719 155.980469 261.261719 C 137.886719 261.261719 116.613281 259.832031 96.28125 255.015625 C 41.132812 241.949219 0.09375 217.726562 0.09375 214.949219 C 0.09375 212.476562 7.28125 201.882812 8.167969 200.582031 C 7.703125 198.597656 2.558594 175.714844 5.003906 143.539062 C 6.496094 123.855469 10.496094 104.589844 16.886719 86.28125 C 24.855469 63.441406 36.59375 42.035156 51.769531 22.648438 C 51.277344 20.996094 47.699219 8.160156 52.472656 0.425781 L 52.574219 0.265625 L 52.761719 0.277344 C 53.246094 0.308594 101.457031 3.28125 136.121094 9.238281 C 164.59375 14.128906 196.59375 22.9375 215.714844 28.199219 C 220.128906 29.414062 223.9375 30.464844 226.828125 31.222656 L 227.074219 31.289062 L 227.0625 31.539062 C 226.726562 39.535156 218.074219 49.40625 216.882812 50.730469 C 217.851562 53.847656 231.183594 97.597656 229.992188 136.738281 Z M 229.992188 136.738281 " fill-opacity="1" fill-rule="nonzero"/></g><path fill="#fefee3" d="M 195.074219 119.28125 C 195.015625 120.777344 194.824219 122.261719 194.621094 123.839844 C 194.484375 124.890625 194.34375 125.976562 194.246094 127.070312 C 194.160156 128.007812 194.105469 128.945312 194.046875 129.933594 C 193.949219 131.539062 193.851562 133.203125 193.621094 134.878906 C 193.535156 135.472656 193.445312 136.082031 193.351562 136.707031 C 193.078125 138.539062 192.796875 140.429688 192.644531 142.414062 C 192.457031 144.90625 192.246094 147.484375 192.03125 150.011719 C 191.828125 152.414062 191.507812 154.957031 191.074219 157.582031 C 190.902344 158.621094 190.746094 159.660156 190.589844 160.695312 C 190.382812 162.09375 190.164062 163.542969 189.910156 164.945312 C 189.734375 165.90625 189.570312 166.867188 189.40625 167.816406 C 189.152344 169.292969 188.886719 170.816406 188.601562 172.285156 C 188.3125 173.78125 187.988281 175.253906 187.679688 176.679688 C 187.464844 177.65625 187.253906 178.625 187.058594 179.578125 C 186.597656 181.808594 186.128906 183.957031 185.679688 186.007812 L 185.496094 186.859375 C 185.171875 188.339844 184.816406 189.75 184.46875 191.113281 C 184.207031 192.140625 183.957031 193.136719 183.734375 194.097656 C 183.101562 196.855469 182.503906 199.347656 182.019531 201.347656 C 181.5625 203.25 181.796875 204.453125 181.984375 205.425781 C 182.242188 206.75 182.429688 207.707031 180.566406 209.078125 C 179.417969 209.921875 178.648438 210.203125 177.953125 210.203125 C 177.394531 210.203125 176.882812 210.019531 176.261719 209.800781 C 175.316406 209.460938 174.140625 209.042969 172.058594 208.976562 C 170.949219 208.941406 169.734375 208.820312 168.449219 208.691406 C 167.027344 208.550781 165.554688 208.40625 163.949219 208.339844 C 162.582031 208.28125 161.148438 208.191406 159.628906 208.097656 C 158.410156 208.023438 157.144531 207.945312 155.835938 207.878906 L 153.640625 207.769531 C 151.75 207.675781 149.773438 207.578125 147.722656 207.457031 C 146.714844 207.398438 145.6875 207.34375 144.644531 207.285156 C 143.007812 207.199219 141.328125 207.109375 139.609375 206.996094 C 138.265625 206.902344 136.929688 206.742188 135.519531 206.570312 C 134.21875 206.414062 132.878906 206.25 131.523438 206.148438 C 130.351562 206.058594 129.164062 205.992188 127.960938 205.921875 C 126.480469 205.839844 124.949219 205.75 123.414062 205.621094 C 121.8125 205.488281 120.195312 205.328125 118.550781 205.167969 C 117.484375 205.066406 116.410156 204.960938 115.320312 204.859375 C 114.253906 204.761719 113.160156 204.699219 112.105469 204.636719 C 110.648438 204.550781 109.136719 204.460938 107.664062 204.28125 C 106.175781 204.101562 104.6875 203.828125 103.246094 203.570312 C 102.210938 203.382812 101.136719 203.1875 100.085938 203.027344 C 99.011719 202.871094 97.941406 202.738281 96.875 202.605469 C 95.425781 202.425781 93.929688 202.242188 92.480469 201.988281 C 90.664062 201.671875 88.855469 201.308594 87.109375 200.957031 C 86.386719 200.8125 85.664062 200.664062 84.945312 200.523438 C 83.476562 200.234375 82.03125 199.875 80.632812 199.523438 C 79.546875 199.253906 78.519531 198.996094 77.476562 198.769531 C 76.257812 198.503906 75.023438 198.316406 73.828125 198.136719 C 72.464844 197.929688 71.179688 197.734375 69.910156 197.433594 C 68.445312 197.085938 67.035156 196.660156 65.671875 196.25 C 64.582031 195.921875 63.554688 195.613281 62.523438 195.347656 C 61.222656 195.011719 59.9375 194.78125 58.695312 194.5625 C 57.390625 194.328125 56.160156 194.109375 54.996094 193.785156 C 53.277344 193.308594 51.671875 192.785156 50.257812 192.324219 C 49.339844 192.027344 48.476562 191.746094 47.664062 191.503906 C 45.960938 190.992188 44.941406 190.855469 44.199219 190.753906 C 42.871094 190.574219 42.320312 190.5 40.449219 188.835938 L 40.351562 188.75 L 40.34375 188.625 C 40.230469 187.066406 40.257812 184.753906 40.433594 181.34375 C 40.546875 179.054688 40.71875 176.542969 40.9375 173.882812 C 41.019531 172.878906 41.054688 171.847656 41.09375 170.753906 C 41.144531 169.351562 41.199219 167.90625 41.351562 166.40625 C 41.597656 163.984375 41.898438 161.4375 42.1875 158.96875 C 42.371094 157.417969 42.582031 155.863281 42.808594 154.21875 C 42.929688 153.339844 43.050781 152.449219 43.171875 151.550781 C 43.308594 150.511719 43.425781 149.460938 43.542969 148.398438 C 43.699219 147.003906 43.859375 145.558594 44.070312 144.117188 C 44.261719 142.78125 44.582031 141.425781 44.886719 140.117188 C 45.171875 138.902344 45.46875 137.644531 45.667969 136.386719 C 45.839844 135.304688 45.992188 134.214844 46.148438 133.117188 C 46.355469 131.636719 46.570312 130.105469 46.835938 128.589844 C 47.042969 127.40625 47.195312 126.179688 47.339844 124.992188 C 47.511719 123.609375 47.691406 122.175781 47.957031 120.777344 C 48.21875 119.402344 48.613281 118.035156 48.992188 116.714844 C 49.332031 115.542969 49.679688 114.332031 49.929688 113.132812 C 50.179688 111.933594 50.359375 110.699219 50.53125 109.503906 C 50.726562 108.132812 50.929688 106.714844 51.246094 105.347656 C 51.414062 104.617188 51.578125 103.886719 51.742188 103.160156 C 52.152344 101.34375 52.574219 99.46875 53.039062 97.664062 C 53.65625 95.25 54.339844 92.878906 55 90.582031 L 55.152344 90.058594 C 55.4375 89.070312 55.695312 88.082031 55.957031 87.101562 C 56.382812 85.484375 56.785156 83.957031 57.28125 82.453125 C 57.789062 80.917969 58.449219 79.472656 59.085938 78.070312 C 59.546875 77.070312 59.976562 76.125 60.351562 75.160156 C 61.210938 72.945312 62.1875 70.714844 63.515625 67.933594 L 64.101562 66.699219 C 65.097656 64.59375 66.035156 62.609375 67.148438 60.898438 L 67.21875 60.785156 L 67.347656 60.761719 C 69.3125 60.367188 71.8125 60.140625 75.210938 60.050781 C 77.304688 59.996094 80.089844 59.949219 83.070312 60.09375 C 84.898438 60.183594 86.773438 60.367188 88.757812 60.5625 C 89.460938 60.632812 90.171875 60.703125 90.894531 60.769531 C 92.679688 60.9375 94.476562 61.167969 96.378906 61.410156 C 97.140625 61.507812 97.90625 61.609375 98.683594 61.703125 C 100.308594 61.902344 101.917969 62.152344 103.617188 62.417969 C 104.550781 62.5625 105.492188 62.707031 106.441406 62.847656 C 107.566406 63.011719 108.734375 63.140625 109.859375 63.269531 C 111.289062 63.429688 112.765625 63.59375 114.226562 63.832031 C 115.410156 64.027344 116.636719 64.167969 117.820312 64.304688 C 119.195312 64.460938 120.617188 64.625 122.007812 64.871094 C 123.355469 65.109375 124.699219 65.464844 126 65.804688 C 127.195312 66.121094 128.429688 66.445312 129.65625 66.679688 C 130.832031 66.902344 132.03125 67.097656 133.191406 67.289062 C 134.570312 67.515625 135.992188 67.75 137.378906 68.027344 C 138.601562 68.273438 139.847656 68.476562 141.054688 68.675781 C 142.386719 68.898438 143.769531 69.125 145.101562 69.402344 C 146.542969 69.703125 147.980469 70.042969 149.371094 70.367188 C 150.507812 70.632812 151.632812 70.898438 152.75 71.140625 C 154.128906 71.441406 155.476562 71.839844 156.78125 72.226562 C 158 72.585938 159.152344 72.925781 160.324219 73.191406 C 162.988281 73.789062 165.546875 74.371094 167.964844 74.933594 C 169.207031 75.222656 170.414062 75.488281 171.582031 75.746094 C 172.984375 76.058594 174.332031 76.355469 175.609375 76.664062 C 177.117188 77.023438 178.542969 77.234375 179.921875 77.441406 C 181.144531 77.621094 182.300781 77.792969 183.339844 78.050781 C 185.179688 78.503906 186.300781 78.527344 187.117188 78.542969 C 188.457031 78.570312 189.191406 78.585938 191.019531 80.300781 C 192.886719 82.058594 192.855469 82.785156 192.792969 84.238281 C 192.757812 85.074219 192.707031 86.21875 193.042969 88.046875 L 193.078125 88.222656 C 193.460938 90.300781 193.9375 92.886719 194.28125 95.792969 C 194.449219 97.203125 194.488281 98.699219 194.527344 100.285156 C 194.554688 101.363281 194.585938 102.480469 194.65625 103.625 C 194.714844 104.550781 194.808594 105.484375 194.910156 106.472656 C 195.074219 108.070312 195.242188 109.71875 195.257812 111.441406 C 195.285156 113.84375 195.195312 116.308594 195.074219 119.28125 Z M 195.074219 119.28125 " fill-opacity="1" fill-rule="nonzero"/><path fill="#9da65d" d="M 116.671875 133.203125 C 120.460938 123.59375 128.027344 111.457031 137.191406 106.695312 C 153.101562 98.40625 171.097656 106.097656 170.828125 111.132812 C 170.710938 113.285156 168.734375 114.828125 166.859375 115.914062 C 159.125 120.429688 143.859375 121.671875 126.777344 134.921875 C 123.878906 137.171875 121.324219 139.878906 119.472656 143.054688 C 114.535156 151.574219 116.101562 159.042969 116.761719 168.9375 C 116.816406 169.746094 115.710938 170.058594 115.335938 169.328125 C 111.175781 161.304688 116.832031 150.496094 111.429688 143.429688 C 110.035156 141.609375 108.074219 140.34375 106.140625 139.113281 C 94.277344 131.59375 82.039062 124.667969 69.488281 118.34375 C 68.082031 117.632812 66.636719 116.914062 65.574219 115.746094 C 64.511719 114.582031 63.910156 112.863281 64.492188 111.398438 C 64.984375 110.15625 66.1875 109.367188 67.355469 108.734375 C 76.890625 103.519531 88.960938 103.234375 98.726562 108.003906 C 108.496094 112.785156 112.957031 124.113281 116.671875 133.203125 Z M 116.671875 133.203125 " fill-opacity="1" fill-rule="nonzero"/><path fill="#5c6333" d="M 73.609375 113.984375 C 72.761719 114.039062 72.769531 112.722656 73.609375 112.667969 C 77.929688 112.390625 82.347656 112.039062 86.605469 113.046875 C 90.21875 113.90625 93.289062 115.957031 96.285156 118.066406 C 99.019531 119.988281 101.769531 121.882812 104.386719 123.964844 C 109.519531 128.058594 114.152344 132.941406 116.480469 139.1875 C 116.113281 139.089844 115.75 138.992188 115.382812 138.894531 C 118.363281 135.796875 121.335938 132.683594 124.433594 129.699219 C 134.910156 119.582031 147.6875 110.628906 162.761719 110.121094 C 163.609375 110.089844 163.605469 111.40625 162.761719 111.433594 C 158.734375 111.570312 154.765625 112.355469 150.949219 113.648438 C 136.839844 118.414062 126.375 129.363281 116.3125 139.828125 C 115.945312 140.207031 115.378906 139.980469 115.214844 139.535156 C 113.964844 136.1875 111.972656 133.183594 109.582031 130.542969 C 105.21875 125.726562 99.757812 122.046875 94.441406 118.375 C 91.460938 116.316406 88.40625 114.617188 84.785156 114.023438 C 81.097656 113.421875 77.316406 113.742188 73.609375 113.984375 Z M 73.609375 113.984375 " fill-opacity="1" fill-rule="nonzero"/><path fill="#775e53" d="M 214.207031 52.027344 C 214.214844 52.375 213.933594 52.660156 213.585938 52.664062 C 213.101562 52.671875 212.679688 52.675781 212.304688 52.675781 C 210.507812 52.675781 209.820312 52.601562 208.730469 52.484375 C 207.824219 52.386719 206.585938 52.253906 204.121094 52.101562 C 203.171875 52.042969 202.152344 52.011719 201.070312 51.980469 C 199.15625 51.917969 196.988281 51.851562 194.667969 51.617188 C 193.683594 51.519531 192.660156 51.433594 191.609375 51.34375 C 189.574219 51.175781 187.46875 51 185.238281 50.695312 C 184.496094 50.59375 183.738281 50.496094 182.972656 50.394531 C 180.683594 50.089844 178.316406 49.78125 175.859375 49.359375 C 173.71875 48.992188 171.554688 48.535156 169.265625 48.050781 C 168.375 47.859375 167.476562 47.671875 166.566406 47.484375 C 165.628906 47.289062 164.664062 47.078125 163.675781 46.863281 C 161.6875 46.429688 159.632812 45.980469 157.460938 45.601562 C 154.722656 45.121094 151.863281 44.664062 148.835938 44.175781 L 148.273438 44.085938 C 146.851562 43.855469 145.449219 43.578125 143.960938 43.285156 C 142.382812 42.96875 140.753906 42.644531 139.109375 42.390625 C 137.632812 42.160156 136.164062 41.980469 134.605469 41.792969 C 134.417969 41.769531 134.21875 41.742188 134.027344 41.71875 C 133.972656 41.734375 133.914062 41.742188 133.851562 41.742188 C 133.769531 41.742188 133.683594 41.726562 133.605469 41.691406 C 133.585938 41.683594 133.574219 41.667969 133.558594 41.660156 C 132.339844 41.507812 131.105469 41.351562 129.867188 41.160156 C 128.417969 40.933594 126.910156 40.757812 125.453125 40.585938 C 123.871094 40.402344 122.234375 40.210938 120.617188 39.953125 C 117.566406 39.464844 114.492188 38.945312 111.414062 38.425781 C 110.203125 38.222656 108.992188 38.027344 107.777344 37.835938 C 105.949219 37.542969 104.054688 37.242188 102.203125 36.90625 C 100.144531 36.53125 98.074219 36.109375 96.074219 35.699219 C 95.0625 35.488281 94.050781 35.285156 93.046875 35.082031 C 91.324219 34.738281 89.628906 34.269531 87.988281 33.816406 C 87.828125 33.773438 87.664062 33.730469 87.503906 33.683594 C 87.5 33.683594 87.5 33.6875 87.496094 33.6875 C 87.488281 33.6875 87.484375 33.6875 87.480469 33.6875 C 87.375 33.683594 87.28125 33.648438 87.195312 33.601562 C 86.128906 33.308594 85.050781 33.019531 83.988281 32.78125 L 82.378906 32.425781 C 79.785156 31.851562 77.332031 31.308594 74.890625 30.679688 C 72.34375 30.03125 69.675781 29.332031 67.105469 28.582031 C 67.085938 28.589844 67.074219 28.601562 67.058594 28.605469 C 67.007812 28.617188 66.957031 28.621094 66.90625 28.621094 C 66.714844 28.621094 66.539062 28.53125 66.421875 28.382812 C 66.242188 28.328125 66.054688 28.277344 65.871094 28.222656 C 62.292969 27.136719 59.46875 26.195312 56.996094 25.265625 C 56.667969 25.144531 56.503906 24.78125 56.628906 24.457031 C 56.75 24.128906 57.113281 23.964844 57.4375 24.085938 C 59.832031 24.988281 62.5625 25.898438 66.003906 26.945312 C 65.457031 24.699219 65.429688 24.390625 65.261719 21.675781 L 65.160156 20.09375 C 65.050781 18.433594 65.214844 16.59375 65.386719 14.648438 C 65.460938 13.796875 65.539062 12.917969 65.597656 12.011719 C 65.753906 9.652344 65.96875 6.894531 66.585938 4.007812 C 66.660156 3.671875 66.992188 3.453125 67.335938 3.527344 C 67.675781 3.597656 67.890625 3.933594 67.816406 4.273438 C 67.21875 7.074219 67.007812 9.78125 66.855469 12.09375 C 66.796875 13.007812 66.71875 13.898438 66.640625 14.761719 C 66.472656 16.65625 66.3125 18.445312 66.417969 20.011719 L 66.515625 21.597656 C 66.699219 24.496094 66.699219 24.511719 67.398438 27.359375 C 69.972656 28.109375 72.648438 28.808594 75.199219 29.460938 C 77.621094 30.082031 80.066406 30.621094 82.652344 31.195312 L 84.261719 31.550781 C 85.136719 31.75 86.015625 31.976562 86.886719 32.214844 C 86.996094 28.117188 87.027344 27.925781 87.628906 24.21875 C 87.757812 23.4375 87.910156 22.5 88.09375 21.332031 L 88.207031 20.625 C 88.71875 17.382812 89.296875 13.707031 90.3125 9.761719 C 90.398438 9.425781 90.742188 9.226562 91.078125 9.308594 C 91.414062 9.394531 91.617188 9.738281 91.53125 10.074219 C 90.53125 13.964844 89.957031 17.609375 89.449219 20.824219 L 89.339844 21.527344 C 89.152344 22.695312 89 23.636719 88.875 24.421875 C 88.269531 28.132812 88.253906 28.246094 88.136719 32.550781 C 88.199219 32.570312 88.261719 32.585938 88.324219 32.601562 C 89.941406 33.050781 91.617188 33.511719 93.292969 33.847656 C 94.300781 34.046875 95.3125 34.253906 96.324219 34.464844 C 98.320312 34.871094 100.386719 35.296875 102.429688 35.664062 C 104.269531 36 106.152344 36.300781 107.976562 36.589844 C 108.078125 36.605469 108.183594 36.625 108.285156 36.640625 C 108.75 35.167969 109.035156 34.402344 109.289062 33.730469 C 109.6875 32.679688 110 31.851562 110.816406 28.734375 C 111.191406 27.300781 111.558594 25.65625 111.945312 23.914062 C 112.199219 22.777344 112.46875 21.578125 112.761719 20.324219 C 113.21875 18.382812 113.652344 16.289062 114.109375 14.074219 L 114.570312 11.878906 C 114.640625 11.539062 114.972656 11.320312 115.3125 11.394531 C 115.65625 11.464844 115.871094 11.796875 115.800781 12.136719 L 115.34375 14.332031 C 114.882812 16.554688 114.445312 18.65625 113.988281 20.613281 C 113.695312 21.859375 113.429688 23.054688 113.175781 24.191406 C 112.785156 25.941406 112.414062 27.597656 112.035156 29.054688 C 111.203125 32.234375 110.878906 33.09375 110.46875 34.175781 C 110.230469 34.804688 109.964844 35.515625 109.542969 36.84375 C 110.238281 36.957031 110.933594 37.066406 111.625 37.183594 C 114.703125 37.703125 117.773438 38.21875 120.820312 38.707031 C 122.410156 38.960938 124.035156 39.152344 125.601562 39.335938 C 127.070312 39.507812 128.589844 39.683594 130.066406 39.914062 C 131.207031 40.09375 132.355469 40.238281 133.488281 40.382812 C 133.773438 39.734375 134 39.226562 134.1875 38.8125 C 134.972656 37.070312 135.074219 36.84375 136.175781 32.839844 C 136.769531 30.695312 137.359375 28.03125 138.039062 24.457031 C 138.441406 22.34375 138.695312 20.03125 138.964844 17.582031 L 139.144531 15.9375 C 139.183594 15.589844 139.488281 15.34375 139.839844 15.382812 C 140.1875 15.421875 140.433594 15.734375 140.398438 16.078125 L 140.214844 17.71875 C 139.945312 20.195312 139.6875 22.53125 139.277344 24.691406 C 138.589844 28.300781 137.992188 30.996094 137.390625 33.171875 C 136.261719 37.273438 136.136719 37.546875 135.332031 39.332031 C 135.183594 39.664062 135.003906 40.066406 134.792969 40.542969 C 136.28125 40.726562 137.820312 40.914062 139.304688 41.148438 C 140.972656 41.40625 142.617188 41.734375 144.207031 42.046875 C 145.683594 42.339844 147.074219 42.617188 148.476562 42.84375 L 149.039062 42.933594 C 152.070312 43.421875 154.933594 43.882812 157.679688 44.363281 C 158.878906 44.570312 160.035156 44.800781 161.167969 45.035156 C 161.335938 44.578125 161.480469 44.191406 161.605469 43.855469 C 162.402344 41.71875 162.417969 41.675781 163.574219 37.582031 C 163.8125 36.734375 164.097656 35.855469 164.394531 34.921875 C 164.910156 33.324219 165.492188 31.515625 165.929688 29.59375 C 166.242188 28.222656 166.390625 26.753906 166.550781 25.195312 C 166.679688 23.941406 166.808594 22.644531 167.035156 21.332031 C 167.09375 20.988281 167.425781 20.761719 167.761719 20.820312 C 168.105469 20.878906 168.335938 21.203125 168.277344 21.546875 C 168.058594 22.816406 167.925781 24.089844 167.800781 25.324219 C 167.640625 26.921875 167.488281 28.425781 167.15625 29.875 C 166.707031 31.847656 166.117188 33.6875 165.59375 35.308594 C 165.296875 36.230469 165.019531 37.101562 164.785156 37.921875 C 163.613281 42.070312 163.597656 42.109375 162.785156 44.292969 C 162.675781 44.585938 162.554688 44.917969 162.410156 45.300781 C 162.929688 45.410156 163.441406 45.523438 163.945312 45.632812 C 164.929688 45.847656 165.890625 46.058594 166.824219 46.25 C 167.734375 46.4375 168.636719 46.628906 169.527344 46.816406 C 171.804688 47.300781 173.953125 47.753906 176.074219 48.117188 C 178.507812 48.535156 180.859375 48.84375 183.136719 49.144531 C 183.910156 49.246094 184.667969 49.347656 185.410156 49.449219 C 185.75 49.496094 186.082031 49.53125 186.417969 49.574219 C 188.046875 45.179688 188.082031 45.035156 189.097656 40.664062 L 189.460938 39.109375 C 190.445312 34.914062 191.039062 31.160156 191.226562 27.945312 C 191.246094 27.597656 191.539062 27.339844 191.890625 27.351562 C 192.238281 27.371094 192.503906 27.671875 192.484375 28.019531 C 192.292969 31.304688 191.6875 35.132812 190.6875 39.398438 L 190.324219 40.949219 C 189.308594 45.304688 189.257812 45.53125 187.703125 49.722656 C 189.074219 49.867188 190.410156 49.984375 191.714844 50.09375 C 192.777344 50.179688 193.804688 50.265625 194.796875 50.367188 C 197.074219 50.597656 199.21875 50.664062 201.113281 50.722656 C 202.203125 50.757812 203.234375 50.789062 204.199219 50.847656 C 204.441406 50.863281 204.660156 50.875 204.878906 50.890625 L 205.492188 49.867188 C 207.089844 47.214844 207.121094 47.164062 208.730469 42.933594 C 209.988281 39.636719 210.8125 36.785156 211.246094 34.210938 C 211.304688 33.867188 211.628906 33.644531 211.972656 33.695312 C 212.3125 33.753906 212.546875 34.078125 212.488281 34.421875 C 212.039062 37.074219 211.195312 40.007812 209.910156 43.378906 C 208.253906 47.71875 208.191406 47.820312 206.570312 50.515625 L 206.285156 50.992188 C 207.472656 51.082031 208.25 51.167969 208.863281 51.234375 C 210.175781 51.375 210.835938 51.445312 213.570312 51.40625 C 213.574219 51.40625 213.578125 51.40625 213.582031 51.40625 C 213.921875 51.40625 214.203125 51.683594 214.207031 52.027344 Z M 208.328125 236.402344 C 208.175781 236.414062 192.582031 237.921875 172.285156 238.667969 C 153.566406 239.359375 126.90625 239.527344 106.195312 236.40625 C 78.457031 232.226562 58.039062 223.277344 38.296875 214.625 C 30.1875 211.074219 21.800781 207.398438 13.003906 204.09375 C 12.683594 203.972656 12.316406 204.136719 12.195312 204.460938 C 12.074219 204.785156 12.238281 205.148438 12.5625 205.273438 C 21.328125 208.566406 29.695312 212.234375 37.789062 215.78125 C 57.609375 224.464844 78.101562 233.445312 106.007812 237.648438 C 119.648438 239.707031 135.835938 240.339844 150.664062 240.339844 C 158.457031 240.339844 165.871094 240.164062 172.339844 239.925781 C 192.671875 239.179688 208.296875 237.667969 208.453125 237.652344 C 208.796875 237.621094 209.050781 237.3125 209.015625 236.964844 C 208.984375 236.621094 208.671875 236.375 208.328125 236.402344 Z M 38.941406 193.15625 L 39.042969 193.242188 C 41.613281 195.417969 42.65625 195.453125 44.382812 195.503906 C 45.605469 195.542969 47.125 195.589844 49.847656 196.375 C 50.980469 196.703125 52.1875 197.082031 53.460938 197.484375 C 55.566406 198.148438 57.957031 198.902344 60.507812 199.566406 C 62.347656 200.046875 64.285156 200.425781 66.335938 200.824219 C 67.976562 201.144531 69.671875 201.476562 71.390625 201.875 C 72.566406 202.148438 73.761719 202.441406 74.972656 202.738281 C 77.3125 203.308594 79.726562 203.902344 82.222656 204.40625 C 84.605469 204.890625 87.003906 205.277344 89.539062 205.6875 C 90.746094 205.882812 91.960938 206.078125 93.183594 206.285156 L 94.046875 206.433594 C 97.339844 206.996094 100.742188 207.578125 104.167969 208.035156 C 107.394531 208.46875 110.710938 208.773438 113.917969 209.066406 L 115.230469 209.1875 C 117.054688 209.355469 118.867188 209.550781 120.621094 209.738281 C 122.917969 209.988281 125.09375 210.222656 127.269531 210.398438 C 129.171875 210.550781 131.050781 210.738281 132.867188 210.921875 C 135.109375 211.144531 137.222656 211.355469 139.316406 211.5 C 144.382812 211.84375 148.105469 212.082031 151.390625 212.265625 C 155.875 212.515625 159.914062 212.691406 163.476562 212.84375 L 167.3125 213.011719 C 170.574219 213.15625 173.394531 213.28125 175.5625 213.339844 C 175.621094 213.34375 175.679688 213.34375 175.734375 213.34375 C 178.902344 213.34375 181.648438 211 182.300781 207.707031 C 182.546875 206.46875 182.871094 205.070312 183.246094 203.453125 C 183.773438 201.179688 184.371094 198.605469 184.917969 195.730469 C 185.269531 193.898438 185.558594 191.960938 185.867188 189.90625 C 186.171875 187.882812 186.484375 185.785156 186.882812 183.628906 C 187.210938 181.832031 187.628906 180.035156 188.070312 178.132812 C 188.558594 176.03125 189.0625 173.855469 189.453125 171.636719 C 189.816406 169.5625 190.082031 167.433594 190.339844 165.378906 C 190.574219 163.492188 190.820312 161.542969 191.140625 159.605469 L 191.191406 159.292969 L 190.878906 159.242188 C 190.226562 159.136719 189.578125 159.027344 188.9375 158.917969 C 185.878906 158.40625 182.988281 157.921875 180.03125 157.6875 C 176.757812 157.433594 173.238281 157.316406 168.945312 157.34375 L 168.222656 157.347656 C 164.59375 157.363281 161.167969 157.378906 157.855469 157.667969 C 154.464844 157.964844 150.863281 158.441406 146.851562 159.121094 C 143.753906 159.648438 140.914062 160.394531 138.171875 161.113281 C 137.457031 161.304688 136.75 161.488281 136.058594 161.664062 C 131.710938 162.773438 128.230469 163.789062 125.421875 164.769531 C 122.546875 165.777344 121.238281 166.863281 120.285156 167.660156 C 119.058594 168.675781 118.386719 169.238281 115.429688 168.746094 C 112.078125 168.1875 111.367188 167.328125 110.285156 166.035156 C 109.34375 164.902344 108.171875 163.496094 105.027344 161.707031 C 101.894531 159.925781 98.003906 158.046875 93.46875 156.125 C 89.242188 154.335938 85.296875 152.902344 81.40625 151.746094 C 77.289062 150.519531 73.085938 149.519531 68.921875 148.777344 C 64.867188 148.050781 60.578125 147.539062 56.175781 147.257812 C 52.734375 147.035156 49.265625 147.210938 45.59375 147.398438 C 44.886719 147.433594 44.171875 147.46875 43.453125 147.503906 L 43.195312 147.515625 L 43.15625 147.769531 C 42.960938 149.128906 42.757812 150.460938 42.558594 151.773438 C 42.179688 154.242188 41.824219 156.578125 41.527344 158.933594 C 41.324219 160.585938 41.089844 162.207031 40.867188 163.777344 C 40.546875 166.03125 40.242188 168.160156 40.03125 170.230469 C 39.546875 174.96875 39.226562 178.578125 39.019531 181.585938 C 38.613281 187.449219 38.820312 191.539062 38.929688 193.027344 Z M 38.941406 193.15625 " fill-opacity="1" fill-rule="nonzero"/></svg>