<svg xmlns="http://www.w3.org/2000/svg" xmlns:xlink="http://www.w3.org/1999/xlink" width="350" zoomAndPan="magnify" viewBox="0 0 262.5 262.500001" height="350" preserveAspectRatio="xMidYMid meet" version="1.0"><defs><clipPath id="b1b0c3caa6"><path d="M 140 1 L 246.851562 1 L 246.851562 147 L 140 147 Z M 140 1 " clip-rule="nonzero"/></clipPath><clipPath id="bb153ff2ad"><path d="M 14.792969 2 L 115 2 L 115 137 L 14.792969 137 Z M 14.792969 2 " clip-rule="nonzero"/></clipPath></defs><g clip-path="url(#b1b0c3caa6)"><path fill="#c09586" d="M 161.972656 146.667969 C 154.5625 146.609375 147.894531 144.679688 143.328125 138.839844 C 140.1875 134.78125 140.394531 129.117188 140.957031 124.019531 C 144.367188 91.855469 154 60.640625 165.265625 30.316406 C 167.933594 23.109375 170.808594 15.789062 175.816406 9.980469 C 180.828125 4.167969 188.476562 0.046875 196.066406 1.234375 C 204.839844 2.628906 211.066406 10.394531 215.6875 17.953125 C 233.476562 47.121094 240.738281 81.421875 245.421875 115.273438 C 246.429688 122.566406 247.199219 130.539062 243.347656 136.796875 C 238.691406 144.265625 228.941406 146.816406 220.136719 146.636719 C 211.363281 146.460938 175.195312 146.757812 161.972656 146.667969 Z M 161.972656 146.667969 " fill-opacity="1" fill-rule="nonzero"/></g><path fill="#a28070" d="M 192.300781 81.511719 C 186.519531 108.546875 187.792969 124.195312 187.792969 159.238281 L 198.820312 159.207031 C 198.496094 125.175781 200.898438 108.367188 195.085938 81.511719 C 194.761719 80.027344 192.625 80.027344 192.300781 81.511719 Z M 192.300781 81.511719 " fill-opacity="1" fill-rule="nonzero"/><g clip-path="url(#bb153ff2ad)"><path fill="#c09586" d="M 114.039062 16.796875 C 114.898438 48.101562 114.78125 61.945312 114.574219 89.75 C 114.484375 102.054688 113.953125 115.511719 105.800781 124.699219 C 100.671875 130.480469 93.734375 133.652344 86.144531 134.957031 C 78.527344 136.261719 66.9375 136.527344 59.226562 136.113281 C 46.246094 135.402344 35.304688 134.660156 25.96875 125.621094 C 15.355469 115.363281 14.792969 98.820312 14.910156 84.058594 C 15.117188 60.699219 15.324219 42.617188 15.535156 19.257812 C 16.925781 14.425781 19.269531 9.890625 22.441406 5.976562 C 23.0625 5.207031 23.921875 4.375 24.902344 4.613281 C 25.789062 4.820312 27.125 7.488281 27.570312 8.257812 C 29.316406 11.195312 30.265625 14.394531 31.6875 18.308594 C 32.460938 34.789062 31.421875 49.050781 32.191406 65.53125 C 32.371094 69.117188 32.3125 73.238281 34.476562 76.085938 C 37.46875 80.027344 39.128906 80.5 44.050781 80.945312 C 47.667969 81.273438 51.816406 81.421875 54.277344 78.753906 C 56.144531 76.707031 56.382812 73.714844 56.5 70.957031 C 57.152344 54.328125 56.382812 24.710938 57.507812 16.589844 C 59.257812 12.5 60.828125 8.585938 63.378906 4.9375 C 64.148438 3.8125 65.363281 2.597656 66.667969 3.011719 C 67.589844 3.308594 68.210938 4.375 68.746094 5.207031 C 71.53125 9.5625 73.21875 13.121094 74.851562 17.09375 C 74.96875 33.367188 74.941406 52.726562 75.027344 69 C 75.058594 72.4375 74.820312 76.027344 76.511719 78.988281 C 78.082031 81.71875 84.246094 81.570312 87.390625 81.894531 C 90.53125 82.222656 93.792969 81.777344 95.78125 79.316406 C 98.449219 76.054688 97.734375 69.414062 97.796875 65.207031 C 97.972656 50.441406 96.90625 31.945312 96.492188 17.210938 C 97.5 13.535156 99.277344 11.285156 100.878906 7.875 C 101.707031 6.09375 103.574219 3.101562 105.503906 3.425781 C 106.835938 3.664062 107.609375 5 108.289062 6.15625 C 110.570312 10.039062 112.914062 13.535156 114.039062 16.796875 Z M 114.039062 16.796875 " fill-opacity="1" fill-rule="nonzero"/></g><path fill="#a28070" d="M 63.675781 97.875 C 60.265625 107.832031 58.28125 125.769531 58.28125 159.445312 L 71.292969 159.148438 C 71.382812 116.84375 69.308594 106.320312 66.34375 97.875 C 65.929688 96.597656 64.121094 96.597656 63.675781 97.875 Z M 63.675781 97.875 " fill-opacity="1" fill-rule="nonzero"/><path fill="#46392f" d="M 175.433594 176.726562 C 175.375 171.953125 174.957031 160.894531 182.546875 159.472656 C 190.019531 158.050781 193.664062 158.082031 203.832031 158.851562 C 213.289062 159.5625 212.308594 170.414062 212.222656 178.535156 C 211.953125 202.160156 211.6875 221.488281 211.449219 245.144531 C 211.421875 247.574219 211.363281 250.09375 210.144531 252.289062 C 207.242188 257.445312 199.414062 258.542969 192.746094 259.019531 C 186.195312 259.460938 177.921875 259.078125 175.375 253.890625 C 174.335938 251.785156 174.515625 245.648438 174.632812 243.367188 C 175.433594 229.226562 175.640625 190.183594 175.433594 176.726562 Z M 175.433594 176.726562 " fill-opacity="1" fill-rule="nonzero"/><path fill="#46392f" d="M 45.296875 217.21875 C 44.523438 205.007812 46.453125 186.003906 45.679688 173.792969 C 45.472656 170.707031 45.324219 167.476562 47.042969 164.75 C 50.425781 159.324219 59.140625 158.496094 66.460938 158.347656 C 72.507812 158.226562 79.710938 158.613281 82.855469 162.972656 C 84.484375 165.222656 84.515625 168.011719 84.515625 170.621094 C 84.515625 195.667969 84.515625 220.746094 84.484375 245.796875 C 84.484375 249.058594 84.070312 254.394531 81.34375 256.675781 C 75.089844 261.953125 61.183594 260.765625 55.820312 259.996094 C 52.527344 259.523438 49.386719 258.011719 47.488281 255.726562 C 46.066406 253.980469 45.53125 250.6875 45.53125 248.554688 C 45.503906 239.570312 45.324219 226.230469 45.296875 217.21875 Z M 45.296875 217.21875 " fill-opacity="1" fill-rule="nonzero"/></svg>