<svg xmlns="http://www.w3.org/2000/svg" xmlns:xlink="http://www.w3.org/1999/xlink" width="479" zoomAndPan="magnify" viewBox="0 0 359.25 262.500001" height="350" preserveAspectRatio="xMidYMid meet" version="1.0"><defs><clipPath id="df83588208"><path d="M 76.304688 201.253906 L 349 201.253906 L 349 261.9375 L 76.304688 261.9375 Z M 76.304688 201.253906 " clip-rule="nonzero"/></clipPath></defs><path fill="#987a6b" d="M 319.847656 240.425781 L 319.96875 235.53125 L 301.457031 234.964844 L 301.800781 241.21875 Z M 297.066406 241.421875 L 297.230469 234.835938 L 278.585938 234.269531 L 279.019531 242.214844 Z M 274.210938 242.425781 L 274.414062 234.140625 L 256.140625 233.582031 L 256.433594 243.207031 Z M 341.585938 246.136719 L 325.292969 254.632812 L 273.914062 254.632812 L 256.785156 254.578125 L 250.988281 254.578125 L 234.128906 246.136719 L 234.203125 244.183594 L 251.539062 243.421875 L 252.03125 233.457031 L 236.585938 232.988281 L 236.035156 207.128906 L 233.214844 207.140625 L 233.214844 202.914062 L 235.945312 202.941406 L 235.746094 193.707031 L 234.886719 193.707031 L 234.886719 192.507812 C 227.785156 185.996094 178.257812 139.730469 182.933594 119.441406 C 186.167969 105.398438 206.328125 110.628906 229.503906 134.046875 C 229.503906 134.046875 207.050781 61.019531 215.210938 41.917969 C 221.460938 27.292969 247.730469 30.480469 256.785156 87.453125 C 256.785156 87.453125 253.328125 41.660156 262.097656 29.933594 C 270.765625 18.347656 283.34375 22.542969 286.238281 40.617188 C 288.367188 53.90625 288.894531 75.382812 288.894531 75.382812 C 288.894531 75.382812 291.613281 46.230469 300.484375 32.289062 C 307.703125 20.945312 320.832031 24.1875 323.117188 36.089844 C 326.554688 54.015625 321.304688 82.261719 321.304688 82.261719 C 321.304688 82.261719 328.1875 59.628906 339.351562 52.445312 C 346.964844 47.546875 356.714844 48.945312 356.613281 72.125 C 356.488281 99.617188 338.894531 192.871094 338.894531 192.871094 L 338.230469 203.890625 L 340.46875 203.914062 L 340.976562 206.734375 L 338.054688 206.746094 L 336.289062 236.027344 L 324.25 235.660156 L 324.5 240.222656 L 341.0625 239.496094 Z M 181.84375 203.460938 L 169.121094 217.382812 L 163.710938 219.457031 L 147.738281 225.636719 L 142.328125 227.714844 L 126.421875 233.8125 L 121.007812 235.886719 L 105.175781 241.957031 L 99.765625 244.035156 L 81.511719 241.9375 L 79.617188 235.550781 L 85.5 233.585938 L 84.148438 230.050781 L 82.835938 230.601562 L 70.328125 203.074219 L 67.863281 203.984375 L 66.414062 200.015625 L 68.589844 199.246094 L 64.949219 191.238281 C 64.949219 191.238281 16.960938 114.207031 7 88.582031 C -1.394531 66.976562 7.210938 62.179688 16.074219 64.027344 C 29.070312 66.738281 41.769531 81.667969 41.769531 81.667969 C 41.769531 81.667969 28.308594 59.878906 25.617188 42.652344 C 23.746094 30.675781 34.585938 22.992188 45.386719 31 C 58.664062 40.839844 69.566406 63.636719 69.566406 63.636719 C 69.566406 63.636719 62.371094 43.398438 59.601562 30.226562 C 55.832031 12.3125 66.074219 3.890625 78.316406 11.609375 C 90.703125 19.414062 103.871094 63.410156 103.871094 63.410156 C 91.921875 6.972656 112.269531 -0.0078125 122.515625 12.15625 C 139.417969 32.234375 146.023438 97.148438 146.023438 97.148438 C 154.738281 76.988281 173.632812 59.992188 181.679688 71.941406 C 194.203125 90.539062 161.414062 154.691406 161.414062 154.691406 L 165.097656 164.945312 L 167.476562 164.101562 L 168.921875 166.578125 L 166.066406 167.632812 L 174.839844 192.066406 L 173.148438 192.773438 L 177.003906 202.722656 L 171.828125 204.75 L 181.074219 201.664062 L 181.84375 203.460938 " fill-opacity="1" fill-rule="nonzero"/><path fill="#b58c7f" d="M 341.585938 246.136719 L 341.0625 239.496094 L 341.375 246.136719 Z M 324.824219 246.136719 L 234.171875 246.136719 L 234.089844 251.136719 L 341.597656 250.929688 L 341.375 246.136719 Z M 321.03125 191.585938 L 312.554688 191.585938 L 312.554688 193.707031 L 321.03125 193.707031 Z M 305.496094 191.585938 L 297.023438 191.585938 L 297.023438 193.707031 L 305.496094 193.707031 Z M 289.960938 191.585938 L 281.488281 191.585938 L 281.488281 193.707031 L 289.960938 193.707031 Z M 274.429688 191.585938 L 265.957031 191.585938 L 265.957031 193.707031 L 274.429688 193.707031 Z M 258.894531 191.585938 L 250.421875 191.585938 L 250.421875 193.707031 L 258.894531 193.707031 Z M 339.40625 203.902344 L 234.867188 202.929688 L 235.015625 193.707031 L 243.359375 193.707031 L 243.359375 191.585938 L 237.609375 191.585938 C 231.152344 184.269531 194.328125 141.644531 201.777344 129.742188 C 205.226562 124.230469 224.976562 134.230469 237.011719 143.167969 C 237.011719 143.167969 219.507812 59.511719 230.503906 52.921875 C 237.757812 48.578125 248.296875 56.792969 260.984375 123.425781 C 260.984375 123.425781 258.429688 49.707031 269.503906 43.144531 C 282.746094 35.300781 285.050781 70.417969 287.84375 121.011719 C 287.84375 121.011719 291.695312 43.023438 308.691406 45.5 C 313.75 46.234375 319.230469 60.65625 314.019531 125.113281 C 314.019531 125.113281 328.546875 60.894531 342.9375 66.652344 C 354.867188 71.421875 337.183594 178.695312 335.011719 191.585938 L 328.089844 191.585938 L 328.089844 193.707031 L 336.5625 193.707031 L 336.5625 192.867188 L 338.894531 192.871094 Z M 251.539062 243.421875 L 252.921875 215.253906 L 255.578125 215.253906 L 256.433594 243.207031 L 274.210938 242.425781 L 274.878906 215.207031 L 277.535156 215.207031 L 279.019531 242.214844 L 297.066406 241.421875 L 297.710938 215.207031 L 300.367188 215.207031 L 301.800781 241.21875 L 319.847656 240.425781 L 320.464844 215.207031 L 323.121094 215.207031 L 324.5 240.222656 L 341.0625 239.496094 L 339.539062 206.742188 L 234.800781 207.136719 L 234.203125 244.183594 Z M 161.847656 153.839844 L 64.949219 191.238281 L 67.707031 199.558594 L 166.160156 164.566406 Z M 69.027344 203.554688 L 79.617188 235.550781 L 95.34375 230.292969 L 87.675781 206.441406 L 90.15625 205.492188 L 99.765625 228.820312 L 116.898438 223.097656 L 108.921875 198.296875 L 111.398438 197.347656 L 121.390625 221.597656 L 138.519531 215.875 L 130.242188 190.121094 L 132.71875 189.167969 L 143.089844 214.351562 L 159.964844 208.710938 L 150.757812 182.308594 L 153.238281 181.359375 L 164.613281 207.160156 L 181.074219 201.664062 L 167.21875 167.207031 Z M 234.203125 244.183594 L 234.171875 246.136719 L 234.128906 246.136719 Z M 234.203125 244.183594 " fill-opacity="1" fill-rule="nonzero"/><g clip-path="url(#df83588208)"><path fill="#9da65d" d="M 346.519531 246.136719 L 228.949219 246.136719 L 226.75 261.9375 L 348.9375 260.433594 Z M 186.679688 201.605469 L 194.386719 215.570312 L 79.765625 257.921875 L 76.902344 243.703125 L 186.679688 201.605469 " fill-opacity="1" fill-rule="nonzero"/></g><path fill="#5c6333" d="M 341.585938 246.136719 L 234.128906 246.136719 L 233.800781 254.632812 L 342.097656 252.691406 Z M 181.84375 203.460938 L 185.191406 211.273438 L 83.378906 248.242188 L 81.511719 241.9375 L 181.84375 203.460938 " fill-opacity="1" fill-rule="nonzero"/><path fill="#46392f" d="M 143.058594 108.589844 L 142.066406 106.722656 C 141.746094 106.890625 109.941406 124.191406 115.882812 153.503906 L 117.957031 153.085938 C 112.332031 125.328125 142.75 108.753906 143.058594 108.589844 Z M 120.503906 95.6875 L 57.351562 122.828125 L 56.515625 120.882812 L 62.628906 118.253906 L 50.507812 98.4375 L 52.316406 97.332031 L 64.59375 117.410156 L 88.425781 107.171875 L 75.328125 77.417969 L 77.269531 76.5625 L 90.371094 106.332031 L 111.972656 97.050781 L 105.445312 72.210938 L 107.496094 71.675781 L 113.941406 96.207031 L 119.667969 93.742188 L 120.503906 95.6875 " fill-opacity="1" fill-rule="nonzero"/></svg>