<svg xmlns="http://www.w3.org/2000/svg" xmlns:xlink="http://www.w3.org/1999/xlink" width="283" zoomAndPan="magnify" viewBox="0 0 212.25 262.500001" height="350" preserveAspectRatio="xMidYMid meet" version="1.0"><defs><clipPath id="7523899334"><path d="M 166 248 L 179 248 L 179 261.789062 L 166 261.789062 Z M 166 248 " clip-rule="nonzero"/></clipPath><clipPath id="c736d43063"><path d="M 166 248 L 179 248 L 179 261.789062 L 166 261.789062 Z M 166 248 " clip-rule="nonzero"/></clipPath></defs><path fill="#b58c7f" d="M 204.683594 207.578125 C 204.683594 207.578125 200.390625 217.289062 200.769531 223.585938 C 200.851562 225.050781 201.207031 226.328125 201.667969 227.4375 C 203.28125 231.121094 208.910156 230.785156 210.058594 226.9375 C 210.394531 225.785156 210.582031 224.464844 210.5 223 C 210.121094 216.722656 204.683594 207.578125 204.683594 207.578125 Z M 204.683594 207.578125 " fill-opacity="1" fill-rule="nonzero"/><path fill="#b58c7f" d="M 199.453125 243.574219 C 199.453125 243.839844 199.425781 244.101562 199.375 244.363281 C 199.320312 244.625 199.242188 244.878906 199.140625 245.125 C 199.039062 245.371094 198.914062 245.605469 198.765625 245.824219 C 198.613281 246.046875 198.445312 246.253906 198.257812 246.441406 C 198.066406 246.628906 197.859375 246.796875 197.636719 246.945312 C 197.414062 247.09375 197.179688 247.21875 196.933594 247.320312 C 196.683594 247.421875 196.429688 247.5 196.164062 247.550781 C 195.902344 247.601562 195.636719 247.628906 195.371094 247.628906 C 195.101562 247.628906 194.835938 247.601562 194.574219 247.550781 C 194.308594 247.5 194.054688 247.421875 193.808594 247.320312 C 193.558594 247.21875 193.324219 247.09375 193.101562 246.945312 C 192.878906 246.796875 192.671875 246.628906 192.480469 246.441406 C 192.292969 246.253906 192.125 246.046875 191.972656 245.824219 C 191.824219 245.605469 191.699219 245.371094 191.597656 245.125 C 191.496094 244.878906 191.417969 244.625 191.363281 244.363281 C 191.3125 244.101562 191.285156 243.839844 191.285156 243.574219 C 191.285156 243.304688 191.3125 243.042969 191.363281 242.78125 C 191.417969 242.519531 191.496094 242.265625 191.597656 242.019531 C 191.699219 241.773438 191.824219 241.542969 191.972656 241.320312 C 192.125 241.097656 192.292969 240.894531 192.480469 240.707031 C 192.671875 240.515625 192.878906 240.347656 193.101562 240.199219 C 193.324219 240.054688 193.558594 239.929688 193.808594 239.824219 C 194.054688 239.722656 194.308594 239.648438 194.574219 239.59375 C 194.835938 239.542969 195.101562 239.515625 195.371094 239.515625 C 195.636719 239.515625 195.902344 239.542969 196.164062 239.59375 C 196.429688 239.648438 196.683594 239.722656 196.933594 239.824219 C 197.179688 239.929688 197.414062 240.054688 197.636719 240.199219 C 197.859375 240.347656 198.066406 240.515625 198.257812 240.707031 C 198.445312 240.894531 198.613281 241.097656 198.765625 241.320312 C 198.914062 241.542969 199.039062 241.773438 199.140625 242.019531 C 199.242188 242.265625 199.320312 242.519531 199.375 242.78125 C 199.425781 243.042969 199.453125 243.304688 199.453125 243.574219 Z M 199.453125 243.574219 " fill-opacity="1" fill-rule="nonzero"/><path fill="#b58c7f" d="M 192.585938 200.003906 C 192.0625 191.714844 184.863281 179.664062 184.863281 179.664062 C 184.863281 179.664062 179.214844 192.511719 179.738281 200.796875 C 179.863281 202.746094 180.324219 204.417969 180.949219 205.882812 C 183.085938 210.757812 190.535156 210.300781 192.019531 205.191406 C 192.460938 203.683594 192.710938 201.949219 192.585938 200.003906 Z M 192.585938 200.003906 " fill-opacity="1" fill-rule="nonzero"/><path fill="#b58c7f" d="M 203.84375 187.574219 C 206.859375 189.75 211.167969 186.859375 210.226562 183.28125 C 209.957031 182.214844 209.472656 181.085938 208.71875 179.976562 C 205.433594 175.183594 196.792969 170.476562 196.792969 170.476562 C 196.792969 170.476562 198.007812 180.144531 201.292969 184.9375 C 202.066406 186.0625 202.945312 186.921875 203.84375 187.574219 Z M 203.84375 187.574219 " fill-opacity="1" fill-rule="nonzero"/><path fill="#b58c7f" d="M 136.125 162.125 C 144.433594 167.898438 149.980469 174.386719 153.472656 179.261719 C 157.597656 178.65625 163.917969 177.253906 170.800781 173.550781 C 177.789062 169.804688 182.5 165.242188 185.261719 162.125 L 104.335938 122.109375 L 157.46875 69.5625 C 162.429688 64.644531 162.429688 56.671875 157.46875 51.753906 L 110.46875 5.253906 C 105.488281 0.335938 97.410156 0.335938 92.449219 5.253906 L 4.976562 91.765625 C 0.015625 96.683594 0.015625 104.65625 4.976562 109.574219 L 55.011719 159.066406 C 58.632812 162.648438 64.074219 163.734375 68.824219 161.808594 C 73.34375 160.007812 77.863281 158.1875 82.363281 156.367188 C 99.964844 149.273438 120.09375 151.117188 135.707031 161.832031 C 135.851562 161.917969 135.980469 162.019531 136.125 162.125 Z M 85.0625 23.984375 L 91.949219 17.183594 C 95.609375 13.5625 101.53125 13.5625 105.175781 17.183594 L 139.621094 51.253906 C 141.460938 53.050781 142.363281 55.4375 142.363281 57.804688 C 142.363281 60.167969 141.460938 62.554688 139.621094 64.351562 C 138.804688 65.148438 137.863281 65.777344 136.859375 66.238281 Z M 85.0625 23.984375 " fill-opacity="1" fill-rule="nonzero"/><path fill="#b58c7f" d="M 172.621094 231.414062 C 172.433594 232.878906 172.539062 234.195312 172.789062 235.367188 C 173.667969 239.300781 179.277344 240.011719 181.117188 236.433594 C 181.683594 235.367188 182.101562 234.113281 182.289062 232.648438 C 183.105469 226.390625 179.484375 216.429688 179.484375 216.429688 C 179.484375 216.429688 173.4375 225.175781 172.621094 231.414062 Z M 172.621094 231.414062 " fill-opacity="1" fill-rule="nonzero"/><g clip-path="url(#7523899334)"><path fill="#b58c7f" d="M 167.914062 250.707031 C 165.527344 253.09375 165.527344 256.925781 167.914062 259.289062 C 170.320312 261.652344 174.191406 261.652344 176.578125 259.289062 C 178.984375 256.925781 178.984375 253.09375 176.578125 250.707031 C 174.191406 248.34375 170.316406 248.34375 167.914062 250.707031 Z M 167.914062 250.707031 " fill-opacity="1" fill-rule="nonzero"/></g><path fill="#b58c7f" d="M 151.507812 240.222656 C 151.339844 241.5625 151.421875 242.777344 151.652344 243.84375 C 152.46875 247.464844 157.617188 248.113281 159.3125 244.828125 C 159.835938 243.84375 160.234375 242.671875 160.402344 241.332031 C 161.132812 235.597656 157.804688 226.433594 157.804688 226.433594 C 157.804688 226.433594 152.238281 234.46875 151.507812 240.222656 Z M 151.507812 240.222656 " fill-opacity="1" fill-rule="nonzero"/><path fill="#b58c7f" d="M 157.699219 210.425781 C 160.734375 202.683594 159.292969 188.765625 159.292969 188.765625 C 159.292969 188.765625 148.722656 198.078125 145.6875 205.820312 C 144.976562 207.640625 144.683594 209.359375 144.640625 210.949219 C 144.496094 216.242188 151.464844 218.921875 154.980469 214.902344 C 156.027344 213.710938 156.988281 212.246094 157.699219 210.425781 Z M 157.699219 210.425781 " fill-opacity="1" fill-rule="nonzero"/><path fill="#b58c7f" d="M 133.238281 230.703125 C 131.648438 232.292969 131.648438 234.847656 133.238281 236.4375 C 134.828125 238.007812 137.421875 238.007812 139.011719 236.4375 C 140.625 234.847656 140.625 232.292969 139.011719 230.703125 C 137.421875 229.132812 134.828125 229.132812 133.238281 230.703125 Z M 133.238281 230.703125 " fill-opacity="1" fill-rule="nonzero"/><path fill="#5c6333" d="M 210.5 223 C 210.582031 224.464844 210.394531 225.785156 210.058594 226.9375 C 208.910156 230.785156 203.28125 231.121094 201.667969 227.4375 C 201.207031 226.328125 200.851562 225.050781 200.769531 223.585938 C 200.390625 217.289062 204.683594 207.578125 204.683594 207.578125 C 204.683594 207.578125 210.121094 216.722656 210.5 223 Z M 210.5 223 " fill-opacity="1" fill-rule="nonzero"/><path fill="#9da65d" d="M 199.453125 243.574219 C 199.453125 243.839844 199.425781 244.101562 199.375 244.363281 C 199.320312 244.625 199.242188 244.878906 199.140625 245.125 C 199.039062 245.371094 198.914062 245.605469 198.765625 245.824219 C 198.613281 246.046875 198.445312 246.253906 198.257812 246.441406 C 198.066406 246.628906 197.859375 246.796875 197.636719 246.945312 C 197.414062 247.09375 197.179688 247.21875 196.933594 247.320312 C 196.683594 247.421875 196.429688 247.5 196.164062 247.550781 C 195.902344 247.601562 195.636719 247.628906 195.371094 247.628906 C 195.101562 247.628906 194.835938 247.601562 194.574219 247.550781 C 194.308594 247.5 194.054688 247.421875 193.808594 247.320312 C 193.558594 247.21875 193.324219 247.09375 193.101562 246.945312 C 192.878906 246.796875 192.671875 246.628906 192.480469 246.441406 C 192.292969 246.253906 192.125 246.046875 191.972656 245.824219 C 191.824219 245.605469 191.699219 245.371094 191.597656 245.125 C 191.496094 244.878906 191.417969 244.625 191.363281 244.363281 C 191.3125 244.101562 191.285156 243.839844 191.285156 243.574219 C 191.285156 243.304688 191.3125 243.042969 191.363281 242.78125 C 191.417969 242.519531 191.496094 242.265625 191.597656 242.019531 C 191.699219 241.773438 191.824219 241.542969 191.972656 241.320312 C 192.125 241.097656 192.292969 240.894531 192.480469 240.707031 C 192.671875 240.515625 192.878906 240.347656 193.101562 240.199219 C 193.324219 240.054688 193.558594 239.929688 193.808594 239.824219 C 194.054688 239.722656 194.308594 239.648438 194.574219 239.59375 C 194.835938 239.542969 195.101562 239.515625 195.371094 239.515625 C 195.636719 239.515625 195.902344 239.542969 196.164062 239.59375 C 196.429688 239.648438 196.683594 239.722656 196.933594 239.824219 C 197.179688 239.929688 197.414062 240.054688 197.636719 240.199219 C 197.859375 240.347656 198.066406 240.515625 198.257812 240.707031 C 198.445312 240.894531 198.613281 241.097656 198.765625 241.320312 C 198.914062 241.542969 199.039062 241.773438 199.140625 242.019531 C 199.242188 242.265625 199.320312 242.519531 199.375 242.78125 C 199.425781 243.042969 199.453125 243.304688 199.453125 243.574219 Z M 199.453125 243.574219 " fill-opacity="1" fill-rule="nonzero"/><path fill="#9da65d" d="M 192.585938 200.003906 C 192.710938 201.949219 192.460938 203.6875 192.019531 205.191406 C 190.535156 210.300781 183.085938 210.757812 180.949219 205.882812 C 180.324219 204.417969 179.863281 202.746094 179.738281 200.796875 C 179.214844 192.511719 184.863281 179.664062 184.863281 179.664062 C 184.863281 179.664062 192.0625 191.714844 192.585938 200.003906 Z M 192.585938 200.003906 " fill-opacity="1" fill-rule="nonzero"/><path fill="#5c6333" d="M 210.226562 183.28125 C 211.167969 186.859375 206.859375 189.75 203.84375 187.574219 C 202.945312 186.921875 202.066406 186.066406 201.292969 184.9375 C 198.007812 180.144531 196.792969 170.476562 196.792969 170.476562 C 196.792969 170.476562 205.433594 175.183594 208.71875 179.976562 C 209.472656 181.085938 209.957031 182.214844 210.226562 183.28125 Z M 210.226562 183.28125 " fill-opacity="1" fill-rule="nonzero"/><path fill="#5c6333" d="M 179.484375 216.429688 C 179.484375 216.429688 183.105469 226.390625 182.289062 232.648438 C 182.101562 234.113281 181.683594 235.371094 181.117188 236.4375 C 179.277344 240.015625 173.667969 239.304688 172.789062 235.371094 C 172.539062 234.199219 172.433594 232.878906 172.621094 231.414062 C 173.4375 225.179688 179.484375 216.429688 179.484375 216.429688 Z M 179.484375 216.429688 " fill-opacity="1" fill-rule="nonzero"/><g clip-path="url(#c736d43063)"><path fill="#5c6333" d="M 176.578125 250.707031 C 178.984375 253.09375 178.984375 256.925781 176.578125 259.289062 C 174.191406 261.652344 170.320312 261.652344 167.914062 259.289062 C 165.527344 256.925781 165.527344 253.09375 167.914062 250.707031 C 170.320312 248.34375 174.191406 248.34375 176.578125 250.707031 Z M 176.578125 250.707031 " fill-opacity="1" fill-rule="nonzero"/></g><path fill="#9da65d" d="M 157.804688 226.433594 C 157.804688 226.433594 161.132812 235.601562 160.402344 241.332031 C 160.234375 242.671875 159.835938 243.84375 159.3125 244.828125 C 157.617188 248.113281 152.46875 247.464844 151.652344 243.84375 C 151.421875 242.777344 151.339844 241.5625 151.507812 240.222656 C 152.238281 234.46875 157.804688 226.433594 157.804688 226.433594 Z M 157.804688 226.433594 " fill-opacity="1" fill-rule="nonzero"/><path fill="#5c6333" d="M 159.292969 188.765625 C 159.292969 188.765625 160.734375 202.683594 157.699219 210.425781 C 156.988281 212.246094 156.027344 213.710938 154.980469 214.902344 C 151.464844 218.921875 144.496094 216.242188 144.640625 210.949219 C 144.683594 209.359375 144.976562 207.640625 145.6875 205.820312 C 148.722656 198.078125 159.292969 188.765625 159.292969 188.765625 Z M 159.292969 188.765625 " fill-opacity="1" fill-rule="nonzero"/><path fill="#9da65d" d="M 139.011719 230.703125 C 140.625 232.292969 140.625 234.847656 139.011719 236.4375 C 137.421875 238.007812 134.828125 238.007812 133.238281 236.4375 C 131.648438 234.847656 131.648438 232.292969 133.238281 230.703125 C 134.828125 229.132812 137.421875 229.132812 139.011719 230.703125 Z M 139.011719 230.703125 " fill-opacity="1" fill-rule="nonzero"/><path fill="#987a6b" d="M 85.0625 23.988281 L 136.859375 66.238281 C 135.058594 67.054688 133.007812 67.285156 131 66.84375 C 128.925781 66.386719 126.601562 65.777344 124.09375 64.960938 C 117.710938 58.914062 110.636719 52.65625 102.894531 46.378906 C 95.839844 40.644531 88.957031 35.453125 82.34375 30.746094 C 82.28125 28.296875 83.199219 25.847656 85.0625 23.988281 Z M 85.0625 23.988281 " fill-opacity="1" fill-rule="nonzero"/><path fill="#5c6333" d="M 124.09375 64.960938 C 117.417969 62.847656 109.445312 59.351562 101.449219 53.515625 C 93.519531 47.71875 87.929688 41.316406 84.078125 35.957031 C 82.949219 34.367188 82.386719 32.546875 82.34375 30.746094 C 88.957031 35.453125 95.839844 40.644531 102.894531 46.378906 C 110.636719 52.65625 117.710938 58.914062 124.09375 64.960938 Z M 124.09375 64.960938 " fill-opacity="1" fill-rule="nonzero"/><path fill="#987a6b" d="M 170.800781 173.550781 C 163.917969 177.253906 157.597656 178.65625 153.472656 179.265625 C 149.980469 174.386719 144.433594 167.902344 136.125 162.125 C 135.980469 162.019531 135.851562 161.917969 135.707031 161.832031 C 120.09375 151.117188 99.964844 149.277344 82.363281 156.371094 C 77.863281 158.191406 73.34375 160.011719 68.824219 161.8125 C 64.074219 163.738281 58.632812 162.648438 55.011719 159.070312 L 4.976562 109.578125 C 0.015625 104.660156 0.015625 96.6875 4.976562 91.769531 L 56.5 40.8125 C 29.796875 67.597656 46.957031 125.839844 99.816406 137.390625 C 152.71875 148.921875 170.800781 173.550781 170.800781 173.550781 Z M 170.800781 173.550781 " fill-opacity="1" fill-rule="nonzero"/></svg>