<svg xmlns="http://www.w3.org/2000/svg" xmlns:xlink="http://www.w3.org/1999/xlink" width="255" zoomAndPan="magnify" viewBox="0 0 191.25 262.500001" height="350" preserveAspectRatio="xMidYMid meet" version="1.0"><defs><clipPath id="38e60fa668"><path d="M 5.070312 12.148438 L 185.117188 12.148438 L 185.117188 249.714844 L 5.070312 249.714844 Z M 5.070312 12.148438 " clip-rule="nonzero"/></clipPath></defs><path fill="#f2f2f2" d="M 70.660156 77.71875 C 70.125 77.71875 69.589844 77.773438 69.0625 77.875 C 68.535156 77.980469 68.023438 78.136719 67.523438 78.34375 C 67.027344 78.550781 66.554688 78.800781 66.109375 79.101562 C 65.660156 79.398438 65.246094 79.738281 64.867188 80.121094 C 64.484375 80.5 64.144531 80.914062 63.847656 81.363281 C 63.546875 81.808594 63.296875 82.28125 63.089844 82.777344 C 62.882812 83.277344 62.726562 83.789062 62.621094 84.316406 C 62.519531 84.84375 62.464844 85.378906 62.464844 85.914062 L 62.464844 200.664062 C 62.464844 201.203125 62.519531 201.738281 62.621094 202.265625 C 62.726562 202.792969 62.882812 203.304688 63.089844 203.800781 C 63.296875 204.300781 63.546875 204.773438 63.847656 205.21875 C 64.144531 205.667969 64.484375 206.082031 64.867188 206.460938 C 65.246094 206.84375 65.660156 207.183594 66.109375 207.480469 C 66.554688 207.78125 67.027344 208.03125 67.523438 208.238281 C 68.023438 208.445312 68.535156 208.601562 69.0625 208.703125 C 69.589844 208.808594 70.125 208.863281 70.660156 208.863281 C 71.199219 208.863281 71.734375 208.808594 72.261719 208.703125 C 72.789062 208.601562 73.300781 208.445312 73.796875 208.238281 C 74.296875 208.03125 74.769531 207.78125 75.214844 207.480469 C 75.664062 207.183594 76.078125 206.84375 76.457031 206.460938 C 76.839844 206.082031 77.179688 205.667969 77.476562 205.21875 C 77.777344 204.773438 78.027344 204.300781 78.234375 203.800781 C 78.441406 203.304688 78.597656 202.792969 78.699219 202.265625 C 78.804688 201.738281 78.859375 201.203125 78.859375 200.664062 L 78.859375 85.914062 C 78.859375 85.378906 78.804688 84.84375 78.699219 84.316406 C 78.597656 83.789062 78.441406 83.277344 78.234375 82.777344 C 78.027344 82.28125 77.777344 81.808594 77.476562 81.363281 C 77.179688 80.914062 76.839844 80.5 76.457031 80.121094 C 76.078125 79.738281 75.664062 79.398438 75.214844 79.101562 C 74.769531 78.800781 74.296875 78.550781 73.796875 78.34375 C 73.300781 78.136719 72.789062 77.980469 72.261719 77.875 C 71.734375 77.773438 71.199219 77.71875 70.660156 77.71875 Z M 70.660156 77.71875 " fill-opacity="1" fill-rule="nonzero"/><path fill="#f2f2f2" d="M 111.644531 200.664062 C 111.644531 201.203125 111.695312 201.738281 111.800781 202.265625 C 111.90625 202.792969 112.0625 203.304688 112.269531 203.800781 C 112.472656 204.300781 112.726562 204.773438 113.023438 205.21875 C 113.324219 205.667969 113.664062 206.082031 114.042969 206.460938 C 114.425781 206.84375 114.839844 207.183594 115.285156 207.480469 C 115.734375 207.78125 116.207031 208.03125 116.703125 208.238281 C 117.199219 208.445312 117.714844 208.601562 118.242188 208.703125 C 118.769531 208.808594 119.300781 208.863281 119.839844 208.863281 C 120.378906 208.863281 120.910156 208.808594 121.441406 208.703125 C 121.96875 208.601562 122.480469 208.445312 122.976562 208.238281 C 123.472656 208.03125 123.945312 207.78125 124.394531 207.480469 C 124.839844 207.183594 125.253906 206.84375 125.636719 206.460938 C 126.015625 206.082031 126.355469 205.667969 126.65625 205.21875 C 126.953125 204.773438 127.207031 204.300781 127.414062 203.800781 C 127.617188 203.304688 127.773438 202.792969 127.878906 202.265625 C 127.984375 201.738281 128.035156 201.203125 128.035156 200.664062 L 128.035156 85.914062 C 128.035156 85.378906 127.984375 84.84375 127.878906 84.316406 C 127.773438 83.789062 127.617188 83.277344 127.414062 82.777344 C 127.207031 82.28125 126.953125 81.808594 126.65625 81.363281 C 126.355469 80.914062 126.015625 80.5 125.636719 80.121094 C 125.253906 79.738281 124.839844 79.398438 124.394531 79.101562 C 123.945312 78.800781 123.472656 78.550781 122.976562 78.34375 C 122.480469 78.136719 121.96875 77.980469 121.441406 77.875 C 120.910156 77.773438 120.378906 77.71875 119.839844 77.71875 C 119.300781 77.71875 118.769531 77.773438 118.242188 77.875 C 117.714844 77.980469 117.199219 78.136719 116.703125 78.34375 C 116.207031 78.550781 115.734375 78.800781 115.285156 79.101562 C 114.839844 79.398438 114.425781 79.738281 114.042969 80.121094 C 113.664062 80.5 113.324219 80.914062 113.023438 81.363281 C 112.726562 81.808594 112.472656 82.28125 112.269531 82.777344 C 112.0625 83.277344 111.90625 83.789062 111.800781 84.316406 C 111.695312 84.84375 111.644531 85.378906 111.644531 85.914062 Z M 111.644531 200.664062 " fill-opacity="1" fill-rule="nonzero"/><g clip-path="url(#38e60fa668)"><path fill="#f2f2f2" d="M 177.214844 44.933594 L 119.839844 44.933594 L 119.839844 32.394531 C 119.839844 31.730469 119.808594 31.070312 119.742188 30.410156 C 119.675781 29.75 119.578125 29.09375 119.449219 28.445312 C 119.320312 27.792969 119.15625 27.152344 118.964844 26.519531 C 118.773438 25.882812 118.550781 25.261719 118.296875 24.648438 C 118.042969 24.035156 117.757812 23.4375 117.445312 22.851562 C 117.132812 22.269531 116.792969 21.699219 116.421875 21.148438 C 116.054688 20.597656 115.660156 20.066406 115.238281 19.554688 C 114.820312 19.042969 114.375 18.550781 113.90625 18.082031 C 113.4375 17.613281 112.945312 17.167969 112.433594 16.75 C 111.921875 16.328125 111.390625 15.933594 110.839844 15.566406 C 110.289062 15.195312 109.71875 14.855469 109.136719 14.542969 C 108.550781 14.230469 107.953125 13.945312 107.339844 13.691406 C 106.726562 13.4375 106.105469 13.214844 105.46875 13.023438 C 104.835938 12.832031 104.195312 12.667969 103.542969 12.539062 C 102.894531 12.410156 102.238281 12.3125 101.578125 12.246094 C 100.917969 12.179688 100.257812 12.148438 99.59375 12.148438 L 90.90625 12.148438 C 90.242188 12.148438 89.582031 12.179688 88.921875 12.246094 C 88.261719 12.3125 87.609375 12.410156 86.957031 12.539062 C 86.308594 12.667969 85.667969 12.832031 85.03125 13.023438 C 84.398438 13.214844 83.773438 13.4375 83.160156 13.691406 C 82.550781 13.945312 81.953125 14.230469 81.367188 14.542969 C 80.78125 14.855469 80.214844 15.195312 79.664062 15.566406 C 79.113281 15.933594 78.582031 16.328125 78.066406 16.75 C 77.554688 17.167969 77.066406 17.613281 76.597656 18.082031 C 76.128906 18.550781 75.683594 19.042969 75.261719 19.554688 C 74.839844 20.066406 74.445312 20.597656 74.078125 21.148438 C 73.710938 21.699219 73.371094 22.269531 73.058594 22.851562 C 72.746094 23.4375 72.460938 24.035156 72.207031 24.648438 C 71.953125 25.261719 71.730469 25.882812 71.539062 26.519531 C 71.34375 27.152344 71.183594 27.792969 71.054688 28.445312 C 70.921875 29.09375 70.828125 29.75 70.761719 30.410156 C 70.695312 31.070312 70.664062 31.730469 70.660156 32.394531 L 70.660156 44.933594 L 13.285156 44.933594 C 12.75 44.933594 12.214844 44.984375 11.6875 45.089844 C 11.160156 45.195312 10.648438 45.351562 10.148438 45.558594 C 9.652344 45.761719 9.179688 46.015625 8.734375 46.316406 C 8.285156 46.613281 7.871094 46.953125 7.492188 47.335938 C 7.109375 47.714844 6.769531 48.128906 6.472656 48.578125 C 6.171875 49.023438 5.921875 49.496094 5.714844 49.992188 C 5.507812 50.492188 5.351562 51.003906 5.246094 51.53125 C 5.144531 52.058594 5.089844 52.589844 5.089844 53.128906 C 5.089844 53.667969 5.144531 54.199219 5.246094 54.730469 C 5.351562 55.257812 5.507812 55.769531 5.714844 56.265625 C 5.921875 56.765625 6.171875 57.234375 6.472656 57.683594 C 6.769531 58.132812 7.109375 58.546875 7.492188 58.925781 C 7.871094 59.304688 8.285156 59.644531 8.734375 59.945312 C 9.179688 60.242188 9.652344 60.496094 10.148438 60.703125 C 10.648438 60.910156 11.160156 61.0625 11.6875 61.167969 C 12.214844 61.273438 12.75 61.328125 13.285156 61.328125 L 21.484375 61.328125 L 21.484375 216.484375 C 21.484375 217.578125 21.539062 218.667969 21.648438 219.753906 C 21.753906 220.839844 21.917969 221.917969 22.132812 222.992188 C 22.34375 224.0625 22.609375 225.121094 22.929688 226.164062 C 23.246094 227.210938 23.613281 228.234375 24.035156 229.246094 C 24.453125 230.253906 24.917969 231.238281 25.433594 232.203125 C 25.949219 233.164062 26.511719 234.101562 27.117188 235.007812 C 27.726562 235.917969 28.375 236.792969 29.066406 237.636719 C 29.761719 238.480469 30.492188 239.289062 31.265625 240.0625 C 32.039062 240.835938 32.847656 241.566406 33.691406 242.257812 C 34.535156 242.953125 35.410156 243.601562 36.320312 244.210938 C 37.226562 244.816406 38.164062 245.378906 39.125 245.894531 C 40.089844 246.410156 41.074219 246.875 42.082031 247.292969 C 43.089844 247.710938 44.117188 248.082031 45.164062 248.398438 C 46.207031 248.714844 47.265625 248.984375 48.335938 249.195312 C 49.410156 249.410156 50.488281 249.570312 51.574219 249.679688 C 52.660156 249.789062 53.75 249.84375 54.84375 249.84375 L 135.660156 249.84375 C 136.75 249.84375 137.839844 249.789062 138.929688 249.679688 C 140.015625 249.570312 141.09375 249.410156 142.164062 249.195312 C 143.234375 248.984375 144.292969 248.714844 145.339844 248.398438 C 146.382812 248.082031 147.410156 247.710938 148.417969 247.292969 C 149.429688 246.875 150.414062 246.410156 151.378906 245.894531 C 152.339844 245.378906 153.277344 244.816406 154.183594 244.210938 C 155.089844 243.601562 155.96875 242.953125 156.8125 242.257812 C 157.65625 241.566406 158.464844 240.835938 159.238281 240.0625 C 160.007812 239.289062 160.742188 238.480469 161.433594 237.636719 C 162.128906 236.792969 162.777344 235.917969 163.382812 235.007812 C 163.992188 234.101562 164.550781 233.164062 165.066406 232.203125 C 165.582031 231.238281 166.050781 230.253906 166.46875 229.246094 C 166.886719 228.234375 167.253906 227.210938 167.574219 226.164062 C 167.890625 225.121094 168.15625 224.0625 168.371094 222.992188 C 168.585938 221.917969 168.746094 220.839844 168.855469 219.753906 C 168.964844 218.667969 169.019531 217.578125 169.019531 216.484375 L 169.019531 61.328125 L 177.214844 61.328125 C 177.753906 61.328125 178.285156 61.273438 178.816406 61.167969 C 179.34375 61.0625 179.855469 60.910156 180.351562 60.703125 C 180.847656 60.496094 181.320312 60.242188 181.769531 59.945312 C 182.214844 59.644531 182.628906 59.304688 183.011719 58.925781 C 183.390625 58.546875 183.730469 58.132812 184.03125 57.683594 C 184.328125 57.234375 184.582031 56.765625 184.789062 56.265625 C 184.992188 55.769531 185.148438 55.257812 185.253906 54.730469 C 185.359375 54.199219 185.410156 53.667969 185.410156 53.128906 C 185.410156 52.589844 185.359375 52.058594 185.253906 51.53125 C 185.148438 51.003906 184.992188 50.492188 184.789062 49.992188 C 184.582031 49.496094 184.328125 49.023438 184.03125 48.578125 C 183.730469 48.128906 183.390625 47.714844 183.011719 47.335938 C 182.628906 46.953125 182.214844 46.613281 181.769531 46.316406 C 181.320312 46.015625 180.847656 45.761719 180.351562 45.558594 C 179.855469 45.351562 179.34375 45.195312 178.816406 45.089844 C 178.285156 44.984375 177.753906 44.933594 177.214844 44.933594 Z M 87.054688 32.394531 C 87.054688 31.882812 87.152344 31.390625 87.351562 30.921875 C 87.546875 30.449219 87.824219 30.03125 88.183594 29.671875 C 88.546875 29.308594 88.960938 29.03125 89.433594 28.835938 C 89.90625 28.640625 90.398438 28.542969 90.90625 28.539062 L 99.59375 28.539062 C 100.105469 28.542969 100.597656 28.640625 101.066406 28.835938 C 101.539062 29.03125 101.957031 29.308594 102.316406 29.671875 C 102.679688 30.03125 102.957031 30.449219 103.152344 30.921875 C 103.347656 31.390625 103.445312 31.882812 103.449219 32.394531 L 103.449219 44.933594 L 87.054688 44.933594 Z M 152.625 216.484375 C 152.625 217.039062 152.597656 217.59375 152.542969 218.148438 C 152.488281 218.699219 152.40625 219.25 152.296875 219.792969 C 152.1875 220.339844 152.050781 220.875 151.890625 221.40625 C 151.726562 221.9375 151.542969 222.460938 151.328125 222.972656 C 151.113281 223.488281 150.878906 223.988281 150.617188 224.476562 C 150.351562 224.96875 150.066406 225.445312 149.757812 225.90625 C 149.449219 226.367188 149.121094 226.8125 148.765625 227.242188 C 148.414062 227.671875 148.042969 228.082031 147.648438 228.476562 C 147.257812 228.867188 146.847656 229.242188 146.417969 229.59375 C 145.988281 229.945312 145.542969 230.277344 145.078125 230.585938 C 144.617188 230.894531 144.140625 231.179688 143.652344 231.441406 C 143.164062 231.703125 142.660156 231.941406 142.148438 232.152344 C 141.636719 232.367188 141.113281 232.554688 140.582031 232.714844 C 140.050781 232.878906 139.511719 233.011719 138.96875 233.121094 C 138.421875 233.230469 137.875 233.3125 137.320312 233.367188 C 136.769531 233.421875 136.214844 233.449219 135.660156 233.453125 L 54.84375 233.453125 C 54.289062 233.449219 53.734375 233.421875 53.179688 233.367188 C 52.628906 233.3125 52.078125 233.230469 51.535156 233.121094 C 50.988281 233.011719 50.453125 232.878906 49.921875 232.714844 C 49.390625 232.554688 48.867188 232.367188 48.355469 232.152344 C 47.839844 231.941406 47.339844 231.703125 46.847656 231.441406 C 46.359375 231.179688 45.882812 230.894531 45.421875 230.585938 C 44.960938 230.277344 44.515625 229.945312 44.085938 229.59375 C 43.65625 229.242188 43.246094 228.867188 42.851562 228.476562 C 42.460938 228.082031 42.085938 227.671875 41.734375 227.242188 C 41.382812 226.8125 41.050781 226.367188 40.742188 225.90625 C 40.433594 225.445312 40.148438 224.96875 39.886719 224.476562 C 39.625 223.988281 39.386719 223.488281 39.175781 222.972656 C 38.960938 222.460938 38.773438 221.9375 38.613281 221.40625 C 38.449219 220.875 38.316406 220.339844 38.207031 219.792969 C 38.097656 219.25 38.015625 218.699219 37.960938 218.148438 C 37.90625 217.59375 37.875 217.039062 37.875 216.484375 L 37.875 61.328125 L 152.625 61.328125 Z M 152.625 216.484375 " fill-opacity="1" fill-rule="nonzero"/></g></svg>