<svg xmlns="http://www.w3.org/2000/svg" xmlns:xlink="http://www.w3.org/1999/xlink" width="350" zoomAndPan="magnify" viewBox="0 0 262.5 262.500001" height="350" preserveAspectRatio="xMidYMid meet" version="1.0"><defs><clipPath id="f2e3ff774d"><path d="M 9 5.953125 L 260 5.953125 L 260 255.976562 L 9 255.976562 Z M 9 5.953125 " clip-rule="nonzero"/></clipPath></defs><path fill="#f2f2f2" d="M 153.734375 44.234375 C 139.609375 30.105469 120.796875 22.324219 100.769531 22.324219 C 80.738281 22.324219 61.929688 30.105469 47.796875 44.234375 C 18.59375 73.441406 18.59375 120.96875 47.796875 150.179688 C 61.921875 164.304688 80.730469 172.085938 100.765625 172.085938 C 120.796875 172.085938 139.609375 164.308594 153.734375 150.179688 C 167.863281 136.046875 175.644531 117.238281 175.644531 97.207031 C 175.644531 77.175781 167.859375 58.363281 153.734375 44.234375 Z M 149.546875 145.988281 C 136.535156 158.996094 119.214844 166.160156 100.765625 166.160156 C 82.3125 166.160156 64.996094 159 51.988281 145.988281 C 25.09375 119.089844 25.09375 75.324219 51.988281 48.425781 C 65 35.417969 82.320312 28.25 100.769531 28.25 C 119.214844 28.25 136.535156 35.417969 149.546875 48.425781 C 176.445312 75.324219 176.445312 119.085938 149.546875 145.988281 Z M 149.546875 145.988281 " fill-opacity="1" fill-rule="nonzero"/><g clip-path="url(#f2e3ff774d)"><path fill="#f2f2f2" d="M 253.90625 223.042969 L 204.042969 173.179688 L 193.726562 162.859375 C 192.613281 161.75 190.648438 161.75 189.535156 162.859375 L 187.964844 164.429688 C 187.820312 164.085938 187.617188 163.761719 187.335938 163.480469 L 174.636719 150.777344 C 185.890625 135.3125 191.980469 116.742188 191.980469 97.203125 C 191.980469 72.804688 182.503906 49.886719 165.292969 32.679688 C 148.082031 15.472656 125.167969 5.996094 100.769531 5.996094 C 76.371094 5.996094 53.453125 15.476562 36.242188 32.683594 C 0.664062 68.261719 0.664062 126.152344 36.242188 161.738281 C 53.453125 178.945312 76.371094 188.417969 100.769531 188.417969 C 120.304688 188.417969 138.875 182.332031 154.339844 171.078125 L 167.039062 183.78125 C 167.320312 184.0625 167.644531 184.269531 167.988281 184.414062 L 166.433594 185.972656 C 165.273438 187.128906 165.273438 189.003906 166.433594 190.160156 L 177.148438 200.878906 L 226.605469 250.347656 C 230.25 253.996094 235.101562 256.003906 240.257812 256.003906 C 245.414062 256.003906 250.261719 253.996094 253.90625 250.347656 C 261.433594 242.8125 261.433594 230.566406 253.90625 223.042969 Z M 40.425781 157.542969 C 7.160156 124.269531 7.160156 70.136719 40.425781 36.867188 C 56.519531 20.777344 77.945312 11.917969 100.765625 11.917969 C 123.582031 11.917969 145.011719 20.777344 161.097656 36.863281 C 177.1875 52.953125 186.046875 74.378906 186.046875 97.199219 C 186.046875 120.019531 177.1875 141.445312 161.097656 157.53125 C 145.007812 173.621094 123.582031 182.480469 100.761719 182.480469 C 77.949219 182.488281 56.519531 173.628906 40.425781 157.542969 Z M 171.226562 179.585938 L 159.050781 167.40625 C 161.203125 165.617188 163.289062 163.730469 165.289062 161.730469 C 167.289062 159.726562 169.179688 157.640625 170.96875 155.492188 L 183.140625 167.667969 C 183.421875 167.949219 183.746094 168.160156 184.09375 168.300781 L 171.855469 180.539062 C 171.714844 180.195312 171.507812 179.867188 171.226562 179.585938 Z M 191.628906 169.144531 L 197.820312 175.335938 L 179.175781 194.527344 L 172.714844 188.0625 Z M 249.71875 246.15625 C 247.1875 248.683594 243.832031 250.074219 240.257812 250.074219 C 236.683594 250.074219 233.324219 248.683594 230.796875 246.15625 L 183.371094 198.714844 L 202.011719 179.523438 L 249.722656 227.234375 C 254.933594 232.449219 254.933594 240.933594 249.71875 246.15625 Z M 249.71875 246.15625 " fill-opacity="1" fill-rule="nonzero"/></g></svg>