<svg xmlns="http://www.w3.org/2000/svg" xmlns:xlink="http://www.w3.org/1999/xlink" width="500" zoomAndPan="magnify" viewBox="0 0 375 225" height="300" preserveAspectRatio="xMidYMid meet" version="1.0"><defs><g/><clipPath id="b20fc836fd"><path d="M 240 47.078125 L 288.191406 47.078125 L 288.191406 89 L 240 89 Z M 240 47.078125 " clip-rule="nonzero"/></clipPath><clipPath id="18302f6ebc"><path d="M 86.441406 77 L 219 77 L 219 112 L 86.441406 112 Z M 86.441406 77 " clip-rule="nonzero"/></clipPath></defs><path fill="#444443" d="M 261.566406 105.019531 C 260.363281 106.078125 258.519531 106.851562 256.519531 107.117188 C 254.523438 107.378906 252.390625 107.140625 250.691406 106.453125 C 252.257812 107.320312 254.390625 107.777344 256.496094 107.695312 C 258.605469 107.597656 260.664062 106.972656 262.109375 105.972656 C 263.132812 106.644531 264.78125 106.910156 266.214844 106.621094 C 267.828125 106.296875 268.539062 105.515625 269.289062 104.660156 C 268.433594 105.441406 267.191406 105.898438 265.699219 105.996094 C 264.167969 106.078125 262.601562 105.71875 261.566406 105.019531 Z M 261.566406 105.019531 " fill-opacity="1" fill-rule="nonzero"/><path fill="#444443" d="M 267.421875 99.878906 C 266.203125 100.382812 264.578125 99.867188 264.085938 98.648438 C 263.542969 97.3125 264.46875 95.804688 265.589844 94.890625 C 266.710938 93.976562 268.082031 93.351562 268.984375 92.21875 C 263.351562 93.300781 257.472656 93.097656 251.933594 91.601562 C 251.511719 92.890625 252.847656 94.097656 254.125 94.554688 C 255.402344 95.011719 256.90625 95.242188 257.714844 96.324219 C 258.386719 97.214844 258.363281 98.527344 257.785156 99.480469 C 257.207031 100.429688 256.125 101.035156 255.015625 101.179688 C 253.449219 101.382812 251.8125 100.707031 250.835938 99.46875 C 249.871094 98.226562 249.621094 96.46875 250.199219 95 C 248.835938 97.757812 249.886719 100.804688 251.558594 102.464844 C 253.222656 104.117188 255.824219 104.261719 258.171875 104.285156 C 260.253906 104.320312 262.421875 104.332031 264.410156 103.78125 L 265.167969 103.550781 C 265.503906 103.453125 265.832031 103.308594 266.132812 103.128906 C 266.144531 103.128906 266.144531 103.128906 266.144531 103.128906 C 268.105469 101.46875 270.371094 99.746094 269.539062 96.757812 C 269.40625 98.082031 268.636719 99.371094 267.421875 99.878906 Z M 267.421875 99.878906 " fill-opacity="1" fill-rule="nonzero"/><path fill="#444443" d="M 271.09375 86.796875 C 271.09375 86.75 271.09375 86.691406 271.09375 86.640625 L 271.035156 86.570312 C 271.058594 86.640625 271.082031 86.714844 271.09375 86.796875 Z M 271.09375 86.796875 " fill-opacity="1" fill-rule="nonzero"/><g clip-path="url(#b20fc836fd)"><path fill="#444443" d="M 272.480469 47.558594 C 267.84375 47.980469 263.109375 50.078125 260.410156 53.773438 C 260.050781 53.316406 259.664062 52.882812 259.242188 52.472656 C 256.675781 49.992188 252.871094 48.632812 249.03125 48.101562 C 246.140625 47.703125 243.152344 47.730469 240.273438 48.199219 C 244.828125 48.355469 249.308594 49.667969 253.003906 51.933594 C 254.484375 52.847656 255.894531 53.957031 256.605469 55.386719 C 257.316406 56.820312 257.207031 58.640625 255.941406 59.761719 C 255.472656 60.183594 254.859375 60.496094 254.4375 60.953125 C 254.015625 61.410156 253.847656 62.132812 254.316406 62.554688 C 254.703125 62.902344 255.339844 62.914062 255.871094 62.769531 C 256.402344 62.625 256.871094 62.351562 257.386719 62.179688 C 259.148438 61.613281 261.242188 62.46875 262.179688 63.855469 C 263.132812 65.226562 263.085938 66.972656 262.484375 68.492188 C 256.796875 82.871094 266.6875 87.207031 269.769531 88.183594 C 270.347656 88.242188 270.839844 88.386719 271.019531 88.796875 L 271.082031 88.859375 C 271.046875 87.414062 269.925781 86.125 268.746094 85.0625 C 267.527344 83.96875 266.144531 82.933594 265.492188 81.535156 C 264.855469 80.148438 265.023438 78.585938 265.457031 77.140625 C 265.890625 75.695312 266.566406 74.308594 266.9375 72.851562 C 267.601562 70.238281 267.226562 67.503906 266.359375 64.949219 C 265.84375 63.433594 265.167969 61.976562 264.410156 60.53125 C 266.492188 61.289062 268.671875 61.796875 270.890625 61.917969 C 274.054688 62.097656 277.320312 61.457031 280.042969 59.820312 C 283.8125 57.554688 286.234375 53.640625 288.507812 49.882812 C 283.257812 48.476562 277.886719 47.078125 272.480469 47.558594 Z M 272.480469 47.558594 " fill-opacity="1" fill-rule="nonzero"/></g><path fill="#444443" d="M 240.429688 72.175781 C 240.730469 69.984375 239.601562 67.671875 237.695312 66.539062 C 235.792969 65.410156 233.230469 65.542969 231.445312 66.855469 C 232.878906 66.566406 234.371094 66.410156 235.757812 66.710938 C 234.648438 66.828125 233.792969 67.769531 233.792969 68.902344 C 233.792969 70.117188 234.78125 71.117188 236.011719 71.117188 C 237.226562 71.117188 238.226562 70.128906 238.226562 68.902344 C 238.226562 68.371094 238.046875 67.890625 237.734375 67.503906 C 239.296875 68.527344 240.441406 70.296875 240.429688 72.175781 Z M 235.589844 70.792969 C 234.820312 70.792969 234.191406 70.164062 234.191406 69.394531 C 234.191406 68.625 234.820312 68 235.589844 68 C 236.359375 68 236.988281 68.625 236.988281 69.394531 C 236.988281 70.164062 236.359375 70.792969 235.589844 70.792969 Z M 235.589844 70.792969 " fill-opacity="1" fill-rule="nonzero"/><g clip-path="url(#18302f6ebc)"><path fill="#444443" d="M 206 85.246094 C 202.675781 88.953125 200.808594 93.335938 197.132812 96.699219 C 189.921875 103.296875 179.636719 105.683594 169.867188 105.320312 C 160.101562 104.960938 150.597656 102.140625 141.167969 99.550781 C 131.738281 96.960938 122.078125 94.554688 112.300781 95.011719 C 102.53125 95.480469 92.488281 99.214844 86.488281 106.933594 C 93.199219 100.359375 103.097656 97.878906 112.492188 98.277344 C 121.875 98.671875 130.941406 101.636719 139.84375 104.660156 C 148.742188 107.667969 157.738281 110.789062 167.097656 111.523438 C 176.457031 112.257812 186.425781 110.320312 193.582031 104.226562 C 198.253906 100.238281 201.410156 94.820312 204.949219 89.796875 C 208.394531 84.90625 212.539062 80.136719 218.101562 77.996094 C 212.71875 78.042969 209.082031 81.8125 206 85.246094 Z M 206 85.246094 " fill-opacity="1" fill-rule="nonzero"/></g><path fill="#444443" d="M 217.992188 77.980469 C 217.980469 77.980469 217.96875 77.980469 217.96875 77.980469 C 217.96875 77.96875 217.980469 77.980469 217.992188 77.980469 Z M 217.992188 77.980469 " fill-opacity="1" fill-rule="nonzero"/><path fill="#444443" d="M 217.96875 77.96875 C 217.847656 77.957031 217.898438 77.96875 217.96875 77.96875 Z M 217.96875 77.96875 " fill-opacity="1" fill-rule="nonzero"/><path fill="#444443" d="M 236.265625 75.261719 C 234.804688 75.261719 233.347656 75.066406 232.023438 74.5625 C 230.023438 73.804688 228.351562 72.238281 228.144531 70.394531 C 227.882812 68.035156 229.90625 65.960938 231.796875 64.214844 C 233.023438 63.085938 234.335938 61.902344 236.058594 61.433594 C 237.792969 60.964844 240.046875 61.507812 240.625 62.976562 C 240.742188 61.6875 239.636719 60.507812 238.3125 59.855469 C 236.988281 59.207031 235.46875 58.941406 234.023438 58.519531 C 232.578125 58.097656 231.121094 57.449219 230.386719 56.304688 C 229.15625 54.414062 230.496094 51.921875 232.625 50.726562 C 234.589844 49.632812 237.011719 49.367188 239.371094 49.199219 C 237.382812 48.308594 234.792969 48.824219 232.699219 49.65625 C 230.410156 50.570312 228.171875 51.835938 225.640625 51.882812 C 224.773438 51.894531 223.894531 51.777344 223.027344 51.859375 C 222.160156 51.957031 221.257812 52.351562 220.992188 53.050781 C 220.921875 53.21875 220.894531 53.390625 220.910156 53.558594 C 218.222656 52.449219 215.175781 52.050781 212.273438 52.304688 C 206.867188 52.761719 201.808594 55.074219 196.882812 57.363281 C 199.773438 60.675781 202.832031 64.109375 206.9375 65.6875 C 209.902344 66.828125 213.222656 66.890625 216.308594 66.167969 C 219.34375 65.457031 222.171875 64.011719 224.738281 62.21875 C 224.703125 62.769531 224.628906 63.324219 224.535156 63.867188 C 222.171875 77.742188 226.109375 84.992188 232.613281 93.855469 C 235.035156 97.15625 239.804688 100.117188 244.152344 101.308594 C 241.671875 99.722656 239.816406 97 240.40625 94.421875 C 240.695312 93.179688 241.40625 92.011719 242.394531 91.074219 C 244.238281 89.328125 245.367188 87.125 245.488281 84.773438 C 245.683594 80.679688 243.972656 76.34375 236.265625 75.261719 Z M 236.265625 75.261719 " fill-opacity="1" fill-rule="nonzero"/><g fill="#9da65d" fill-opacity="1"><g transform="translate(28.311809, 154.445367)"><g><path d="M 1.421875 -15.140625 C 1.421875 -18.117188 2.066406 -20.773438 3.359375 -23.109375 C 4.648438 -25.453125 6.445312 -27.273438 8.75 -28.578125 C 11.0625 -29.890625 13.679688 -30.546875 16.609375 -30.546875 C 20.191406 -30.546875 23.257812 -29.597656 25.8125 -27.703125 C 28.363281 -25.804688 30.066406 -23.222656 30.921875 -19.953125 L 22.84375 -19.953125 C 22.238281 -21.222656 21.382812 -22.1875 20.28125 -22.84375 C 19.175781 -23.5 17.921875 -23.828125 16.515625 -23.828125 C 14.253906 -23.828125 12.421875 -23.035156 11.015625 -21.453125 C 9.609375 -19.878906 8.90625 -17.773438 8.90625 -15.140625 C 8.90625 -12.503906 9.609375 -10.394531 11.015625 -8.8125 C 12.421875 -7.238281 14.253906 -6.453125 16.515625 -6.453125 C 17.921875 -6.453125 19.175781 -6.78125 20.28125 -7.4375 C 21.382812 -8.101562 22.238281 -9.066406 22.84375 -10.328125 L 30.921875 -10.328125 C 30.066406 -7.054688 28.363281 -4.476562 25.8125 -2.59375 C 23.257812 -0.71875 20.191406 0.21875 16.609375 0.21875 C 13.679688 0.21875 11.0625 -0.429688 8.75 -1.734375 C 6.445312 -3.046875 4.648438 -4.863281 3.359375 -7.1875 C 2.066406 -9.507812 1.421875 -12.160156 1.421875 -15.140625 Z M 1.421875 -15.140625 "/></g></g></g><g fill="#9da65d" fill-opacity="1"><g transform="translate(61.075371, 154.445367)"><g><path d="M 1.203125 -12.046875 C 1.203125 -14.515625 1.664062 -16.675781 2.59375 -18.53125 C 3.53125 -20.394531 4.800781 -21.828125 6.40625 -22.828125 C 8.007812 -23.835938 9.800781 -24.34375 11.78125 -24.34375 C 13.476562 -24.34375 14.960938 -24 16.234375 -23.3125 C 17.515625 -22.625 18.5 -21.722656 19.1875 -20.609375 L 19.1875 -24 L 26.546875 -24 L 26.546875 0 L 19.1875 0 L 19.1875 -3.390625 C 18.46875 -2.273438 17.46875 -1.375 16.1875 -0.6875 C 14.914062 0 13.4375 0.34375 11.75 0.34375 C 9.789062 0.34375 8.007812 -0.160156 6.40625 -1.171875 C 4.800781 -2.191406 3.53125 -3.640625 2.59375 -5.515625 C 1.664062 -7.398438 1.203125 -9.578125 1.203125 -12.046875 Z M 19.1875 -12 C 19.1875 -13.832031 18.675781 -15.28125 17.65625 -16.34375 C 16.632812 -17.40625 15.394531 -17.9375 13.9375 -17.9375 C 12.476562 -17.9375 11.238281 -17.410156 10.21875 -16.359375 C 9.195312 -15.316406 8.6875 -13.878906 8.6875 -12.046875 C 8.6875 -10.210938 9.195312 -8.753906 10.21875 -7.671875 C 11.238281 -6.597656 12.476562 -6.0625 13.9375 -6.0625 C 15.394531 -6.0625 16.632812 -6.59375 17.65625 -7.65625 C 18.675781 -8.71875 19.1875 -10.164062 19.1875 -12 Z M 19.1875 -12 "/></g></g></g><g fill="#9da65d" fill-opacity="1"><g transform="translate(90.270196, 154.445367)"><g><path d="M 33.296875 -24.265625 C 36.273438 -24.265625 38.644531 -23.359375 40.40625 -21.546875 C 42.175781 -19.742188 43.0625 -17.234375 43.0625 -14.015625 L 43.0625 0 L 35.75 0 L 35.75 -13.03125 C 35.75 -14.582031 35.335938 -15.78125 34.515625 -16.625 C 33.703125 -17.46875 32.578125 -17.890625 31.140625 -17.890625 C 29.710938 -17.890625 28.585938 -17.46875 27.765625 -16.625 C 26.953125 -15.78125 26.546875 -14.582031 26.546875 -13.03125 L 26.546875 0 L 19.234375 0 L 19.234375 -13.03125 C 19.234375 -14.582031 18.820312 -15.78125 18 -16.625 C 17.1875 -17.46875 16.0625 -17.890625 14.625 -17.890625 C 13.1875 -17.890625 12.054688 -17.46875 11.234375 -16.625 C 10.421875 -15.78125 10.015625 -14.582031 10.015625 -13.03125 L 10.015625 0 L 2.671875 0 L 2.671875 -24 L 10.015625 -24 L 10.015625 -20.984375 C 10.765625 -21.992188 11.738281 -22.789062 12.9375 -23.375 C 14.144531 -23.96875 15.507812 -24.265625 17.03125 -24.265625 C 18.84375 -24.265625 20.457031 -23.875 21.875 -23.09375 C 23.289062 -22.320312 24.398438 -21.21875 25.203125 -19.78125 C 26.035156 -21.101562 27.164062 -22.179688 28.59375 -23.015625 C 30.03125 -23.847656 31.597656 -24.265625 33.296875 -24.265625 Z M 33.296875 -24.265625 "/></g></g></g><g fill="#9da65d" fill-opacity="1"><g transform="translate(135.803812, 154.445367)"><g><path d="M 10.015625 -20.609375 C 10.734375 -21.722656 11.722656 -22.625 12.984375 -23.3125 C 14.253906 -24 15.734375 -24.34375 17.421875 -24.34375 C 19.398438 -24.34375 21.191406 -23.835938 22.796875 -22.828125 C 24.398438 -21.828125 25.664062 -20.394531 26.59375 -18.53125 C 27.53125 -16.675781 28 -14.515625 28 -12.046875 C 28 -9.578125 27.53125 -7.398438 26.59375 -5.515625 C 25.664062 -3.640625 24.398438 -2.191406 22.796875 -1.171875 C 21.191406 -0.160156 19.398438 0.34375 17.421875 0.34375 C 15.753906 0.34375 14.28125 0 13 -0.6875 C 11.726562 -1.375 10.734375 -2.265625 10.015625 -3.359375 L 10.015625 11.4375 L 2.671875 11.4375 L 2.671875 -24 L 10.015625 -24 Z M 20.515625 -12.046875 C 20.515625 -13.878906 20.003906 -15.316406 18.984375 -16.359375 C 17.972656 -17.410156 16.722656 -17.9375 15.234375 -17.9375 C 13.765625 -17.9375 12.519531 -17.40625 11.5 -16.34375 C 10.488281 -15.28125 9.984375 -13.832031 9.984375 -12 C 9.984375 -10.164062 10.488281 -8.71875 11.5 -7.65625 C 12.519531 -6.59375 13.765625 -6.0625 15.234375 -6.0625 C 16.691406 -6.0625 17.9375 -6.597656 18.96875 -7.671875 C 20 -8.753906 20.515625 -10.210938 20.515625 -12.046875 Z M 20.515625 -12.046875 "/></g></g></g><g fill="#9da65d" fill-opacity="1"><g transform="translate(164.998637, 154.445367)"><g><path d="M 13.59375 0.34375 C 11.238281 0.34375 9.125 -0.15625 7.25 -1.15625 C 5.375 -2.164062 3.894531 -3.601562 2.8125 -5.46875 C 1.738281 -7.332031 1.203125 -9.507812 1.203125 -12 C 1.203125 -14.46875 1.742188 -16.640625 2.828125 -18.515625 C 3.921875 -20.390625 5.414062 -21.828125 7.3125 -22.828125 C 9.207031 -23.835938 11.328125 -24.34375 13.671875 -24.34375 C 16.023438 -24.34375 18.148438 -23.835938 20.046875 -22.828125 C 21.941406 -21.828125 23.429688 -20.390625 24.515625 -18.515625 C 25.609375 -16.640625 26.15625 -14.46875 26.15625 -12 C 26.15625 -9.53125 25.601562 -7.359375 24.5 -5.484375 C 23.394531 -3.609375 21.890625 -2.164062 19.984375 -1.15625 C 18.078125 -0.15625 15.945312 0.34375 13.59375 0.34375 Z M 13.59375 -6.015625 C 15 -6.015625 16.195312 -6.53125 17.1875 -7.5625 C 18.175781 -8.601562 18.671875 -10.082031 18.671875 -12 C 18.671875 -13.925781 18.1875 -15.40625 17.21875 -16.4375 C 16.257812 -17.46875 15.078125 -17.984375 13.671875 -17.984375 C 12.242188 -17.984375 11.054688 -17.472656 10.109375 -16.453125 C 9.160156 -15.429688 8.6875 -13.945312 8.6875 -12 C 8.6875 -10.082031 9.148438 -8.601562 10.078125 -7.5625 C 11.015625 -6.53125 12.1875 -6.015625 13.59375 -6.015625 Z M 13.59375 -6.015625 "/></g></g></g><g fill="#9da65d" fill-opacity="1"><g transform="translate(192.387598, 154.445367)"><g/></g></g><g fill="#9da65d" fill-opacity="1"><g transform="translate(201.502916, 154.445367)"><g><path d="M 13.984375 -30.203125 C 17.160156 -30.203125 19.9375 -29.566406 22.3125 -28.296875 C 24.695312 -27.035156 26.539062 -25.265625 27.84375 -22.984375 C 29.15625 -20.710938 29.8125 -18.082031 29.8125 -15.09375 C 29.8125 -12.144531 29.15625 -9.519531 27.84375 -7.21875 C 26.539062 -4.925781 24.691406 -3.148438 22.296875 -1.890625 C 19.910156 -0.628906 17.140625 0 13.984375 0 L 2.671875 0 L 2.671875 -30.203125 Z M 13.5 -6.359375 C 16.28125 -6.359375 18.445312 -7.117188 20 -8.640625 C 21.550781 -10.160156 22.328125 -12.3125 22.328125 -15.09375 C 22.328125 -17.875 21.550781 -20.039062 20 -21.59375 C 18.445312 -23.144531 16.28125 -23.921875 13.5 -23.921875 L 10.015625 -23.921875 L 10.015625 -6.359375 Z M 13.5 -6.359375 "/></g></g></g><g fill="#9da65d" fill-opacity="1"><g transform="translate(232.761585, 154.445367)"><g><path d="M 6.359375 -26.5 C 5.078125 -26.5 4.023438 -26.878906 3.203125 -27.640625 C 2.390625 -28.398438 1.984375 -29.335938 1.984375 -30.453125 C 1.984375 -31.597656 2.390625 -32.550781 3.203125 -33.3125 C 4.023438 -34.070312 5.078125 -34.453125 6.359375 -34.453125 C 7.628906 -34.453125 8.671875 -34.070312 9.484375 -33.3125 C 10.296875 -32.550781 10.703125 -31.597656 10.703125 -30.453125 C 10.703125 -29.335938 10.296875 -28.398438 9.484375 -27.640625 C 8.671875 -26.878906 7.628906 -26.5 6.359375 -26.5 Z M 10.015625 -24 L 10.015625 0 L 2.671875 0 L 2.671875 -24 Z M 10.015625 -24 "/></g></g></g><g fill="#9da65d" fill-opacity="1"><g transform="translate(245.44564, 154.445367)"><g><path d="M 11.78125 -24.34375 C 13.476562 -24.34375 14.960938 -24 16.234375 -23.3125 C 17.515625 -22.625 18.5 -21.722656 19.1875 -20.609375 L 19.1875 -24 L 26.546875 -24 L 26.546875 -0.046875 C 26.546875 2.160156 26.109375 4.160156 25.234375 5.953125 C 24.359375 7.742188 23.023438 9.171875 21.234375 10.234375 C 19.441406 11.296875 17.210938 11.828125 14.546875 11.828125 C 10.984375 11.828125 8.097656 10.988281 5.890625 9.3125 C 3.679688 7.632812 2.421875 5.363281 2.109375 2.5 L 9.375 2.5 C 9.601562 3.414062 10.144531 4.140625 11 4.671875 C 11.863281 5.203125 12.925781 5.46875 14.1875 5.46875 C 15.707031 5.46875 16.921875 5.03125 17.828125 4.15625 C 18.734375 3.28125 19.1875 1.878906 19.1875 -0.046875 L 19.1875 -3.4375 C 18.46875 -2.320312 17.476562 -1.410156 16.21875 -0.703125 C 14.957031 -0.00390625 13.476562 0.34375 11.78125 0.34375 C 9.800781 0.34375 8.007812 -0.160156 6.40625 -1.171875 C 4.800781 -2.191406 3.53125 -3.640625 2.59375 -5.515625 C 1.664062 -7.398438 1.203125 -9.578125 1.203125 -12.046875 C 1.203125 -14.515625 1.664062 -16.675781 2.59375 -18.53125 C 3.53125 -20.394531 4.800781 -21.828125 6.40625 -22.828125 C 8.007812 -23.835938 9.800781 -24.34375 11.78125 -24.34375 Z M 19.1875 -12 C 19.1875 -13.832031 18.675781 -15.28125 17.65625 -16.34375 C 16.632812 -17.40625 15.394531 -17.9375 13.9375 -17.9375 C 12.476562 -17.9375 11.238281 -17.410156 10.21875 -16.359375 C 9.195312 -15.316406 8.6875 -13.878906 8.6875 -12.046875 C 8.6875 -10.210938 9.195312 -8.753906 10.21875 -7.671875 C 11.238281 -6.597656 12.476562 -6.0625 13.9375 -6.0625 C 15.394531 -6.0625 16.632812 -6.59375 17.65625 -7.65625 C 18.675781 -8.71875 19.1875 -10.164062 19.1875 -12 Z M 19.1875 -12 "/></g></g></g><g fill="#9da65d" fill-opacity="1"><g transform="translate(274.640465, 154.445367)"><g><path d="M 6.359375 -26.5 C 5.078125 -26.5 4.023438 -26.878906 3.203125 -27.640625 C 2.390625 -28.398438 1.984375 -29.335938 1.984375 -30.453125 C 1.984375 -31.597656 2.390625 -32.550781 3.203125 -33.3125 C 4.023438 -34.070312 5.078125 -34.453125 6.359375 -34.453125 C 7.628906 -34.453125 8.671875 -34.070312 9.484375 -33.3125 C 10.296875 -32.550781 10.703125 -31.597656 10.703125 -30.453125 C 10.703125 -29.335938 10.296875 -28.398438 9.484375 -27.640625 C 8.671875 -26.878906 7.628906 -26.5 6.359375 -26.5 Z M 10.015625 -24 L 10.015625 0 L 2.671875 0 L 2.671875 -24 Z M 10.015625 -24 "/></g></g></g><g fill="#9da65d" fill-opacity="1"><g transform="translate(287.324505, 154.445367)"><g><path d="M 16.046875 -6.234375 L 16.046875 0 L 12.296875 0 C 9.628906 0 7.550781 -0.648438 6.0625 -1.953125 C 4.570312 -3.265625 3.828125 -5.394531 3.828125 -8.34375 L 3.828125 -17.890625 L 0.90625 -17.890625 L 0.90625 -24 L 3.828125 -24 L 3.828125 -29.859375 L 11.1875 -29.859375 L 11.1875 -24 L 16 -24 L 16 -17.890625 L 11.1875 -17.890625 L 11.1875 -8.265625 C 11.1875 -7.546875 11.359375 -7.023438 11.703125 -6.703125 C 12.046875 -6.390625 12.617188 -6.234375 13.421875 -6.234375 Z M 16.046875 -6.234375 "/></g></g></g><g fill="#9da65d" fill-opacity="1"><g transform="translate(304.781206, 154.445367)"><g><path d="M 1.203125 -12.046875 C 1.203125 -14.515625 1.664062 -16.675781 2.59375 -18.53125 C 3.53125 -20.394531 4.800781 -21.828125 6.40625 -22.828125 C 8.007812 -23.835938 9.800781 -24.34375 11.78125 -24.34375 C 13.476562 -24.34375 14.960938 -24 16.234375 -23.3125 C 17.515625 -22.625 18.5 -21.722656 19.1875 -20.609375 L 19.1875 -24 L 26.546875 -24 L 26.546875 0 L 19.1875 0 L 19.1875 -3.390625 C 18.46875 -2.273438 17.46875 -1.375 16.1875 -0.6875 C 14.914062 0 13.4375 0.34375 11.75 0.34375 C 9.789062 0.34375 8.007812 -0.160156 6.40625 -1.171875 C 4.800781 -2.191406 3.53125 -3.640625 2.59375 -5.515625 C 1.664062 -7.398438 1.203125 -9.578125 1.203125 -12.046875 Z M 19.1875 -12 C 19.1875 -13.832031 18.675781 -15.28125 17.65625 -16.34375 C 16.632812 -17.40625 15.394531 -17.9375 13.9375 -17.9375 C 12.476562 -17.9375 11.238281 -17.410156 10.21875 -16.359375 C 9.195312 -15.316406 8.6875 -13.878906 8.6875 -12.046875 C 8.6875 -10.210938 9.195312 -8.753906 10.21875 -7.671875 C 11.238281 -6.597656 12.476562 -6.0625 13.9375 -6.0625 C 15.394531 -6.0625 16.632812 -6.59375 17.65625 -7.65625 C 18.675781 -8.71875 19.1875 -10.164062 19.1875 -12 Z M 19.1875 -12 "/></g></g></g><g fill="#9da65d" fill-opacity="1"><g transform="translate(333.976031, 154.445367)"><g><path d="M 10.015625 -31.828125 L 10.015625 0 L 2.671875 0 L 2.671875 -31.828125 Z M 10.015625 -31.828125 "/></g></g></g><g fill="#444443" fill-opacity="1"><g transform="translate(102.246318, 174.401114)"><g><path d="M 3.625 -7.828125 C 4.445312 -7.828125 5.164062 -7.660156 5.78125 -7.328125 C 6.394531 -7.003906 6.867188 -6.546875 7.203125 -5.953125 C 7.546875 -5.359375 7.71875 -4.675781 7.71875 -3.90625 C 7.71875 -3.144531 7.546875 -2.46875 7.203125 -1.875 C 6.867188 -1.28125 6.390625 -0.816406 5.765625 -0.484375 C 5.148438 -0.160156 4.4375 0 3.625 0 L 0.6875 0 L 0.6875 -7.828125 Z M 3.5 -1.65625 C 4.21875 -1.65625 4.773438 -1.847656 5.171875 -2.234375 C 5.578125 -2.628906 5.78125 -3.1875 5.78125 -3.90625 C 5.78125 -4.625 5.578125 -5.179688 5.171875 -5.578125 C 4.773438 -5.984375 4.21875 -6.1875 3.5 -6.1875 L 2.59375 -6.1875 L 2.59375 -1.65625 Z M 3.5 -1.65625 "/></g></g></g><g fill="#444443" fill-opacity="1"><g transform="translate(112.211241, 174.401114)"><g><path d="M 2.59375 -6.296875 L 2.59375 -4.71875 L 5.140625 -4.71875 L 5.140625 -3.234375 L 2.59375 -3.234375 L 2.59375 -1.53125 L 5.484375 -1.53125 L 5.484375 0 L 0.6875 0 L 0.6875 -7.828125 L 5.484375 -7.828125 L 5.484375 -6.296875 Z M 2.59375 -6.296875 "/></g></g></g><g fill="#444443" fill-opacity="1"><g transform="translate(120.105243, 174.401114)"><g><path d="M 2.59375 -1.46875 L 5.09375 -1.46875 L 5.09375 0 L 0.6875 0 L 0.6875 -7.828125 L 2.59375 -7.828125 Z M 2.59375 -1.46875 "/></g></g></g><g fill="#444443" fill-opacity="1"><g transform="translate(127.28667, 174.401114)"><g/></g></g><g fill="#444443" fill-opacity="1"><g transform="translate(131.517582, 174.401114)"><g><path d="M 0.375 -3.921875 C 0.375 -4.691406 0.539062 -5.378906 0.875 -5.984375 C 1.207031 -6.585938 1.671875 -7.054688 2.265625 -7.390625 C 2.859375 -7.734375 3.535156 -7.90625 4.296875 -7.90625 C 5.222656 -7.90625 6.015625 -7.660156 6.671875 -7.171875 C 7.335938 -6.679688 7.785156 -6.015625 8.015625 -5.171875 L 5.921875 -5.171875 C 5.765625 -5.492188 5.539062 -5.738281 5.25 -5.90625 C 4.96875 -6.082031 4.644531 -6.171875 4.28125 -6.171875 C 3.6875 -6.171875 3.207031 -5.96875 2.84375 -5.5625 C 2.488281 -5.15625 2.3125 -4.609375 2.3125 -3.921875 C 2.3125 -3.234375 2.488281 -2.6875 2.84375 -2.28125 C 3.207031 -1.875 3.6875 -1.671875 4.28125 -1.671875 C 4.644531 -1.671875 4.96875 -1.753906 5.25 -1.921875 C 5.539062 -2.097656 5.765625 -2.347656 5.921875 -2.671875 L 8.015625 -2.671875 C 7.785156 -1.828125 7.335938 -1.160156 6.671875 -0.671875 C 6.015625 -0.179688 5.222656 0.0625 4.296875 0.0625 C 3.535156 0.0625 2.859375 -0.101562 2.265625 -0.4375 C 1.671875 -0.78125 1.207031 -1.253906 0.875 -1.859375 C 0.539062 -2.460938 0.375 -3.148438 0.375 -3.921875 Z M 0.375 -3.921875 "/></g></g></g><g fill="#444443" fill-opacity="1"><g transform="translate(141.87219, 174.401114)"><g><path d="M 5.5625 -1.375 L 2.640625 -1.375 L 2.171875 0 L 0.171875 0 L 3.015625 -7.828125 L 5.21875 -7.828125 L 8.046875 0 L 6.03125 0 Z M 5.0625 -2.859375 L 4.09375 -5.71875 L 3.140625 -2.859375 Z M 5.0625 -2.859375 "/></g></g></g><g fill="#444443" fill-opacity="1"><g transform="translate(151.948447, 174.401114)"><g><path d="M 9.546875 -7.828125 L 9.546875 0 L 7.640625 0 L 7.640625 -4.6875 L 5.890625 0 L 4.359375 0 L 2.59375 -4.703125 L 2.59375 0 L 0.6875 0 L 0.6875 -7.828125 L 2.9375 -7.828125 L 5.140625 -2.40625 L 7.3125 -7.828125 Z M 9.546875 -7.828125 "/></g></g></g><g fill="#444443" fill-opacity="1"><g transform="translate(164.039974, 174.401114)"><g><path d="M 6.65625 -5.296875 C 6.65625 -4.847656 6.550781 -4.4375 6.34375 -4.0625 C 6.132812 -3.6875 5.8125 -3.382812 5.375 -3.15625 C 4.945312 -2.925781 4.414062 -2.8125 3.78125 -2.8125 L 2.59375 -2.8125 L 2.59375 0 L 0.6875 0 L 0.6875 -7.828125 L 3.78125 -7.828125 C 4.40625 -7.828125 4.929688 -7.71875 5.359375 -7.5 C 5.785156 -7.28125 6.109375 -6.976562 6.328125 -6.59375 C 6.546875 -6.21875 6.65625 -5.785156 6.65625 -5.296875 Z M 3.625 -4.328125 C 3.988281 -4.328125 4.257812 -4.410156 4.4375 -4.578125 C 4.625 -4.742188 4.71875 -4.984375 4.71875 -5.296875 C 4.71875 -5.609375 4.625 -5.847656 4.4375 -6.015625 C 4.257812 -6.191406 3.988281 -6.28125 3.625 -6.28125 L 2.59375 -6.28125 L 2.59375 -4.328125 Z M 3.625 -4.328125 "/></g></g></g><g fill="#444443" fill-opacity="1"><g transform="translate(172.858094, 174.401114)"><g><path d="M 4.390625 0.078125 C 3.648438 0.078125 2.972656 -0.09375 2.359375 -0.4375 C 1.753906 -0.78125 1.269531 -1.253906 0.90625 -1.859375 C 0.550781 -2.472656 0.375 -3.164062 0.375 -3.9375 C 0.375 -4.695312 0.550781 -5.378906 0.90625 -5.984375 C 1.269531 -6.597656 1.753906 -7.078125 2.359375 -7.421875 C 2.972656 -7.765625 3.648438 -7.9375 4.390625 -7.9375 C 5.128906 -7.9375 5.800781 -7.765625 6.40625 -7.421875 C 7.019531 -7.078125 7.503906 -6.597656 7.859375 -5.984375 C 8.210938 -5.378906 8.390625 -4.695312 8.390625 -3.9375 C 8.390625 -3.164062 8.207031 -2.472656 7.84375 -1.859375 C 7.488281 -1.253906 7.007812 -0.78125 6.40625 -0.4375 C 5.800781 -0.09375 5.128906 0.078125 4.390625 0.078125 Z M 4.390625 -1.65625 C 5.015625 -1.65625 5.515625 -1.863281 5.890625 -2.28125 C 6.265625 -2.695312 6.453125 -3.25 6.453125 -3.9375 C 6.453125 -4.625 6.265625 -5.171875 5.890625 -5.578125 C 5.515625 -5.992188 5.015625 -6.203125 4.390625 -6.203125 C 3.753906 -6.203125 3.25 -6 2.875 -5.59375 C 2.5 -5.1875 2.3125 -4.632812 2.3125 -3.9375 C 2.3125 -3.238281 2.5 -2.679688 2.875 -2.265625 C 3.25 -1.859375 3.753906 -1.65625 4.390625 -1.65625 Z M 4.390625 -1.65625 "/></g></g></g><g fill="#444443" fill-opacity="1"><g transform="translate(183.479924, 174.401114)"><g/></g></g><g fill="#444443" fill-opacity="1"><g transform="translate(187.710837, 174.401114)"><g><path d="M 5.5625 -1.375 L 2.640625 -1.375 L 2.171875 0 L 0.171875 0 L 3.015625 -7.828125 L 5.21875 -7.828125 L 8.046875 0 L 6.03125 0 Z M 5.0625 -2.859375 L 4.09375 -5.71875 L 3.140625 -2.859375 Z M 5.0625 -2.859375 "/></g></g></g><g fill="#444443" fill-opacity="1"><g transform="translate(197.787093, 174.401114)"><g/></g></g><g fill="#444443" fill-opacity="1"><g transform="translate(202.018005, 174.401114)"><g><path d="M 6.3125 -7.828125 L 6.3125 -6.296875 L 4.25 -6.296875 L 4.25 0 L 2.34375 0 L 2.34375 -6.296875 L 0.265625 -6.296875 L 0.265625 -7.828125 Z M 6.3125 -7.828125 "/></g></g></g><g fill="#444443" fill-opacity="1"><g transform="translate(210.468709, 174.401114)"><g><path d="M 2.5625 -7.828125 L 2.5625 -3.140625 C 2.5625 -2.671875 2.675781 -2.3125 2.90625 -2.0625 C 3.132812 -1.8125 3.472656 -1.6875 3.921875 -1.6875 C 4.367188 -1.6875 4.707031 -1.8125 4.9375 -2.0625 C 5.175781 -2.3125 5.296875 -2.671875 5.296875 -3.140625 L 5.296875 -7.828125 L 7.203125 -7.828125 L 7.203125 -3.15625 C 7.203125 -2.457031 7.050781 -1.863281 6.75 -1.375 C 6.457031 -0.894531 6.0625 -0.53125 5.5625 -0.28125 C 5.0625 -0.0390625 4.503906 0.078125 3.890625 0.078125 C 3.273438 0.078125 2.722656 -0.0390625 2.234375 -0.28125 C 1.742188 -0.519531 1.359375 -0.882812 1.078125 -1.375 C 0.796875 -1.863281 0.65625 -2.457031 0.65625 -3.15625 L 0.65625 -7.828125 Z M 2.5625 -7.828125 "/></g></g></g><g fill="#444443" fill-opacity="1"><g transform="translate(220.188678, 174.401114)"><g/></g></g><g fill="#444443" fill-opacity="1"><g transform="translate(224.41959, 174.401114)"><g><path d="M 7.46875 -7.828125 L 7.46875 0 L 5.5625 0 L 5.5625 -3.21875 L 2.59375 -3.21875 L 2.59375 0 L 0.6875 0 L 0.6875 -7.828125 L 2.59375 -7.828125 L 2.59375 -4.75 L 5.5625 -4.75 L 5.5625 -7.828125 Z M 7.46875 -7.828125 "/></g></g></g><g fill="#444443" fill-opacity="1"><g transform="translate(234.429058, 174.401114)"><g><path d="M 4.390625 0.078125 C 3.648438 0.078125 2.972656 -0.09375 2.359375 -0.4375 C 1.753906 -0.78125 1.269531 -1.253906 0.90625 -1.859375 C 0.550781 -2.472656 0.375 -3.164062 0.375 -3.9375 C 0.375 -4.695312 0.550781 -5.378906 0.90625 -5.984375 C 1.269531 -6.597656 1.753906 -7.078125 2.359375 -7.421875 C 2.972656 -7.765625 3.648438 -7.9375 4.390625 -7.9375 C 5.128906 -7.9375 5.800781 -7.765625 6.40625 -7.421875 C 7.019531 -7.078125 7.503906 -6.597656 7.859375 -5.984375 C 8.210938 -5.378906 8.390625 -4.695312 8.390625 -3.9375 C 8.390625 -3.164062 8.207031 -2.472656 7.84375 -1.859375 C 7.488281 -1.253906 7.007812 -0.78125 6.40625 -0.4375 C 5.800781 -0.09375 5.128906 0.078125 4.390625 0.078125 Z M 4.390625 -1.65625 C 5.015625 -1.65625 5.515625 -1.863281 5.890625 -2.28125 C 6.265625 -2.695312 6.453125 -3.25 6.453125 -3.9375 C 6.453125 -4.625 6.265625 -5.171875 5.890625 -5.578125 C 5.515625 -5.992188 5.015625 -6.203125 4.390625 -6.203125 C 3.753906 -6.203125 3.25 -6 2.875 -5.59375 C 2.5 -5.1875 2.3125 -4.632812 2.3125 -3.9375 C 2.3125 -3.238281 2.5 -2.679688 2.875 -2.265625 C 3.25 -1.859375 3.753906 -1.65625 4.390625 -1.65625 Z M 4.390625 -1.65625 "/></g></g></g><g fill="#444443" fill-opacity="1"><g transform="translate(245.050896, 174.401114)"><g><path d="M 5.875 -5.34375 C 5.738281 -5.601562 5.535156 -5.800781 5.265625 -5.9375 C 5.003906 -6.082031 4.695312 -6.15625 4.34375 -6.15625 C 3.726562 -6.15625 3.234375 -5.953125 2.859375 -5.546875 C 2.492188 -5.140625 2.3125 -4.597656 2.3125 -3.921875 C 2.3125 -3.203125 2.503906 -2.640625 2.890625 -2.234375 C 3.273438 -1.828125 3.8125 -1.625 4.5 -1.625 C 4.96875 -1.625 5.363281 -1.742188 5.6875 -1.984375 C 6.007812 -2.222656 6.242188 -2.566406 6.390625 -3.015625 L 3.984375 -3.015625 L 3.984375 -4.40625 L 8.125 -4.40625 L 8.125 -2.640625 C 7.976562 -2.160156 7.734375 -1.71875 7.390625 -1.3125 C 7.054688 -0.90625 6.628906 -0.570312 6.109375 -0.3125 C 5.597656 -0.0625 5.015625 0.0625 4.359375 0.0625 C 3.585938 0.0625 2.894531 -0.101562 2.28125 -0.4375 C 1.675781 -0.78125 1.207031 -1.253906 0.875 -1.859375 C 0.539062 -2.460938 0.375 -3.148438 0.375 -3.921875 C 0.375 -4.691406 0.539062 -5.378906 0.875 -5.984375 C 1.207031 -6.585938 1.675781 -7.054688 2.28125 -7.390625 C 2.882812 -7.734375 3.570312 -7.90625 4.34375 -7.90625 C 5.28125 -7.90625 6.066406 -7.675781 6.703125 -7.21875 C 7.347656 -6.769531 7.773438 -6.144531 7.984375 -5.34375 Z M 5.875 -5.34375 "/></g></g></g><g fill="#444443" fill-opacity="1"><g transform="translate(255.405511, 174.401114)"><g><path d="M 5.5625 -1.375 L 2.640625 -1.375 L 2.171875 0 L 0.171875 0 L 3.015625 -7.828125 L 5.21875 -7.828125 L 8.046875 0 L 6.03125 0 Z M 5.0625 -2.859375 L 4.09375 -5.71875 L 3.140625 -2.859375 Z M 5.0625 -2.859375 "/></g></g></g><g fill="#444443" fill-opacity="1"><g transform="translate(265.481775, 174.401114)"><g><path d="M 4.671875 0 L 3.046875 -2.953125 L 2.59375 -2.953125 L 2.59375 0 L 0.6875 0 L 0.6875 -7.828125 L 3.890625 -7.828125 C 4.503906 -7.828125 5.023438 -7.71875 5.453125 -7.5 C 5.890625 -7.28125 6.21875 -6.984375 6.4375 -6.609375 C 6.65625 -6.234375 6.765625 -5.816406 6.765625 -5.359375 C 6.765625 -4.835938 6.613281 -4.375 6.3125 -3.96875 C 6.019531 -3.5625 5.59375 -3.269531 5.03125 -3.09375 L 6.828125 0 Z M 2.59375 -4.296875 L 3.78125 -4.296875 C 4.125 -4.296875 4.382812 -4.378906 4.5625 -4.546875 C 4.738281 -4.722656 4.828125 -4.96875 4.828125 -5.28125 C 4.828125 -5.570312 4.738281 -5.800781 4.5625 -5.96875 C 4.382812 -6.144531 4.125 -6.234375 3.78125 -6.234375 L 2.59375 -6.234375 Z M 2.59375 -4.296875 "/></g></g></g></svg>