<svg xmlns="http://www.w3.org/2000/svg" xmlns:xlink="http://www.w3.org/1999/xlink" width="756" zoomAndPan="magnify" viewBox="0 0 567 495.749986" height="661" preserveAspectRatio="xMidYMid meet" version="1.0"><defs><clipPath id="359f0fa373"><path d="M 20 18 L 548 18 L 548 493.667969 L 20 493.667969 Z M 20 18 " clip-rule="nonzero"/></clipPath></defs><g clip-path="url(#359f0fa373)"><path fill="#ffffff" d="M 283.8125 494.039062 C 281.613281 494.035156 279.609375 493.410156 277.800781 492.152344 C 271.34375 487.671875 118.851562 381.109375 50.371094 276.175781 C 48.402344 273.304688 46.519531 270.378906 44.730469 267.394531 C 42.9375 264.410156 41.242188 261.371094 39.636719 258.28125 C 38.03125 255.195312 36.519531 252.058594 35.105469 248.878906 C 33.691406 245.695312 32.375 242.476562 31.15625 239.214844 C 29.941406 235.953125 28.824219 232.660156 27.804688 229.328125 C 26.789062 226 25.875 222.640625 25.0625 219.257812 C 24.25 215.871094 23.542969 212.464844 22.9375 209.039062 C 22.335938 205.609375 21.835938 202.164062 21.441406 198.707031 C 21.046875 195.246094 20.757812 191.78125 20.578125 188.304688 C 20.394531 184.828125 20.316406 181.347656 20.347656 177.867188 C 20.378906 174.386719 20.511719 170.910156 20.753906 167.4375 C 20.996094 163.964844 21.34375 160.503906 21.796875 157.050781 C 22.25 153.597656 22.808594 150.164062 23.46875 146.746094 C 24.132812 143.328125 24.898438 139.9375 25.769531 136.566406 C 26.636719 133.195312 27.609375 129.851562 28.683594 126.542969 C 29.753906 123.230469 30.929688 119.953125 32.203125 116.714844 C 50.726562 69.324219 88.425781 33.269531 130.597656 22.621094 C 213.347656 1.769531 264.046875 57.953125 283.8125 86.4375 C 303.527344 57.953125 354.261719 1.761719 436.949219 22.621094 C 479.117188 33.269531 516.839844 69.324219 535.34375 116.722656 C 536.617188 119.960938 537.792969 123.234375 538.863281 126.546875 C 539.9375 129.859375 540.910156 133.199219 541.78125 136.570312 C 542.648438 139.941406 543.417969 143.335938 544.078125 146.75 C 544.742188 150.167969 545.300781 153.601562 545.753906 157.054688 C 546.207031 160.503906 546.554688 163.96875 546.796875 167.441406 C 547.039062 170.914062 547.175781 174.390625 547.203125 177.871094 C 547.234375 181.351562 547.160156 184.828125 546.976562 188.304688 C 546.792969 191.78125 546.507812 195.25 546.113281 198.707031 C 545.71875 202.164062 545.222656 205.609375 544.617188 209.039062 C 544.015625 212.464844 543.304688 215.871094 542.496094 219.257812 C 541.683594 222.640625 540.769531 226 539.753906 229.328125 C 538.738281 232.65625 537.621094 235.953125 536.402344 239.214844 C 535.1875 242.476562 533.871094 245.695312 532.457031 248.878906 C 531.042969 252.058594 529.535156 255.191406 527.929688 258.28125 C 526.324219 261.371094 524.625 264.40625 522.835938 267.394531 C 521.046875 270.378906 519.167969 273.304688 517.199219 276.175781 C 448.714844 381.121094 296.230469 487.671875 289.773438 492.152344 C 287.980469 493.394531 285.992188 494.023438 283.8125 494.039062 Z M 166.054688 39.164062 C 155.804688 39.207031 145.714844 40.507812 135.789062 43.074219 C 100.648438 51.941406 67.6875 83.835938 51.839844 124.402344 C 50.71875 127.253906 49.691406 130.136719 48.746094 133.050781 C 47.804688 135.964844 46.953125 138.90625 46.191406 141.871094 C 45.429688 144.835938 44.757812 147.824219 44.175781 150.832031 C 43.597656 153.839844 43.109375 156.859375 42.710938 159.898438 C 42.316406 162.933594 42.015625 165.980469 41.804688 169.035156 C 41.59375 172.089844 41.480469 175.148438 41.457031 178.210938 C 41.433594 181.273438 41.503906 184.335938 41.667969 187.394531 C 41.832031 190.453125 42.089844 193.503906 42.441406 196.546875 C 42.792969 199.585938 43.234375 202.617188 43.769531 205.632812 C 44.308594 208.648438 44.933594 211.644531 45.652344 214.621094 C 46.371094 217.597656 47.179688 220.550781 48.078125 223.476562 C 48.980469 226.40625 49.964844 229.304688 51.042969 232.171875 C 52.117188 235.039062 53.28125 237.871094 54.53125 240.664062 C 55.777344 243.460938 57.113281 246.21875 58.53125 248.933594 C 59.945312 251.648438 61.445312 254.316406 63.027344 256.941406 C 64.605469 259.5625 66.265625 262.136719 68.003906 264.65625 C 126.746094 354.675781 254.589844 449.535156 283.769531 470.585938 C 312.972656 449.554688 440.816406 354.695312 499.535156 264.65625 C 501.273438 262.136719 502.933594 259.5625 504.511719 256.941406 C 506.09375 254.316406 507.59375 251.648438 509.007812 248.933594 C 510.425781 246.21875 511.761719 243.460938 513.007812 240.664062 C 514.257812 237.871094 515.421875 235.039062 516.496094 232.171875 C 517.574219 229.304688 518.5625 226.40625 519.460938 223.476562 C 520.359375 220.550781 521.167969 217.597656 521.886719 214.621094 C 522.605469 211.644531 523.230469 208.648438 523.769531 205.632812 C 524.304688 202.617188 524.746094 199.585938 525.097656 196.546875 C 525.449219 193.503906 525.707031 190.453125 525.871094 187.394531 C 526.035156 184.335938 526.105469 181.277344 526.082031 178.210938 C 526.058594 175.148438 525.945312 172.089844 525.734375 169.035156 C 525.523438 165.980469 525.222656 162.933594 524.828125 159.898438 C 524.429688 156.859375 523.941406 153.839844 523.363281 150.832031 C 522.78125 147.824219 522.113281 144.835938 521.347656 141.871094 C 520.585938 138.90625 519.734375 135.964844 518.792969 133.050781 C 517.847656 130.136719 516.820312 127.253906 515.699219 124.402344 C 499.886719 83.855469 466.933594 51.933594 431.785156 43.066406 C 339.511719 19.753906 293.6875 110.234375 293.238281 111.148438 C 292.800781 112.03125 292.253906 112.835938 291.59375 113.566406 C 290.933594 114.292969 290.183594 114.917969 289.351562 115.4375 C 288.515625 115.957031 287.625 116.355469 286.679688 116.625 C 285.730469 116.894531 284.765625 117.03125 283.785156 117.03125 C 282.800781 117.03125 281.835938 116.894531 280.890625 116.625 C 279.941406 116.355469 279.050781 115.957031 278.21875 115.4375 C 277.382812 114.917969 276.632812 114.292969 275.972656 113.566406 C 275.3125 112.835938 274.765625 112.03125 274.332031 111.148438 C 272.691406 107.859375 237.566406 39.164062 166.054688 39.164062 Z M 166.054688 39.164062 " fill-opacity="1" fill-rule="nonzero"/></g></svg>